<svg width="48" height="45" viewBox="0 0 48 45" fill="none" xmlns="http://www.w3.org/2000/svg">
<path d="M3.72986 29.8719C3.27381 29.9587 2.90734 29.7377 2.76075 29.3826C2.67931 29.1774 2.84219 28.8066 3.01321 28.6093C3.13537 28.4593 3.45297 28.4672 3.73801 28.3883C3.73801 28.2147 3.73801 27.978 3.73801 27.7412C3.7543 27.1967 4.09634 26.7706 4.60125 26.5654C5.63552 26.1551 6.66978 25.7368 7.6959 25.3107C8.31483 25.0503 8.92561 25.0503 9.5364 25.287C10.644 25.721 11.7515 26.1708 12.8591 26.6128C13.3884 26.8179 13.6409 27.1809 13.6083 27.7412C13.592 27.9622 13.6083 28.191 13.6083 28.4514C13.7223 28.4514 13.8282 28.4672 13.9259 28.4672C14.4553 28.483 14.7321 28.7355 14.724 29.1696C14.7159 29.6273 14.5041 29.8088 13.9422 29.8166C13.8608 29.8166 13.7875 29.8166 13.706 29.8166C13.6897 29.8482 13.6816 29.8719 13.6653 29.9035C13.6653 30.8346 13.6653 31.7658 13.6653 32.6891C13.6735 32.7207 13.6897 32.7443 13.6979 32.7759C13.763 32.7759 13.82 32.7838 13.8852 32.7838C14.5123 32.7838 14.7077 32.9416 14.7159 33.4625C14.7159 33.8728 14.4064 34.1253 13.8852 34.1411C13.82 34.1411 13.763 34.1411 13.6979 34.1411C13.6816 34.1727 13.6735 34.2042 13.6572 34.2279C13.6572 35.1433 13.6572 36.0587 13.6572 37.0293H14.2272C24.6676 37.0293 35.108 37.0293 45.5483 37.0293C45.7356 37.0293 45.9229 37.0372 46.1021 37.0451C46.1672 37.0688 46.2324 37.0925 46.2976 37.1083C47.0875 37.1635 47.6657 37.779 47.682 38.6392C47.6983 40.2017 47.7064 41.7642 47.682 43.3345C47.6657 44.3999 46.8595 44.9996 45.8008 44.9996C37.4941 44.9838 29.1874 44.9917 20.8889 44.9917C16.6215 44.9917 12.3542 44.9917 8.07866 44.9917C7.9565 44.9917 7.8262 44.9917 7.70404 44.9917C7.32943 44.9917 6.99553 44.9207 6.88152 44.5182C6.77565 44.1316 6.96296 43.8396 7.4353 43.6344C7.46787 43.6344 7.50045 43.6344 7.52488 43.6344C8.62429 43.6344 9.73185 43.6186 10.8313 43.6186C14.3983 43.6186 17.9734 43.6186 21.5404 43.6186H22.1104C22.1104 42.8216 22.0942 42.0404 22.1186 41.267C22.1267 40.9671 22.1674 40.6278 22.314 40.3674C22.5258 39.9886 22.9411 39.8939 23.3727 39.8939C24.8305 39.8939 26.2882 39.8939 27.7541 39.8939C32.0703 39.8939 36.3865 39.9176 40.7028 39.8781C41.7533 39.8702 42.2582 40.5331 42.2012 41.3538C42.1524 42.0719 42.2012 42.7979 42.2012 43.516C42.2256 43.5397 42.2501 43.5713 42.2745 43.595C43.4798 43.595 44.6932 43.595 45.8985 43.6186C46.1917 43.6186 46.2813 43.4766 46.2813 43.2398C46.2813 41.7405 46.2813 40.2411 46.2813 38.7339C46.2813 38.6392 46.1672 38.5445 46.1102 38.4498C46.0695 38.434 46.0288 38.4182 45.9962 38.4103C41.6963 38.4103 37.3964 38.4103 33.1046 38.4103C22.819 38.4103 12.5252 38.4103 2.23955 38.4103C2.01966 38.4103 1.80793 38.4103 1.58804 38.4103C1.54732 38.4261 1.51475 38.4419 1.47403 38.4577C1.4496 38.5839 1.39259 38.7023 1.39259 38.8286C1.39259 40.2727 1.39259 41.7168 1.38445 43.1609C1.38445 43.5239 1.49032 43.6344 1.86493 43.6265C2.58159 43.6107 3.2901 43.6265 4.00675 43.6344C4.03933 43.6581 4.0719 43.6739 4.11262 43.6975C4.50353 43.7449 4.60125 44.0211 4.60125 44.3289C4.60125 44.7076 4.37323 44.9602 3.99047 44.9681C3.07836 44.9917 2.15811 45.0075 1.25415 44.9444C0.610786 44.897 0.276889 44.392 0 43.879V38.1894C0.293177 37.6764 0.561923 37.1319 1.29487 37.1004C1.39259 37.0767 1.49032 37.0609 1.58804 37.0372H3.77873C3.77873 36.0824 3.77873 35.1591 3.77873 34.2358C3.76244 34.2042 3.73801 34.1727 3.72172 34.1411C3.03764 34.1174 2.74446 33.928 2.70374 33.5019C2.65488 32.9732 2.8992 32.7838 3.70543 32.7364C3.72172 32.7128 3.74615 32.697 3.76244 32.6733C3.76244 31.75 3.76244 30.8346 3.77058 29.9113C3.77058 29.8877 3.77058 29.8561 3.77873 29.8324C3.7543 29.8403 3.72986 29.8482 3.70543 29.864L3.72986 29.8719ZM26.4755 41.2828H23.617V43.6107C24.5943 43.6107 25.539 43.6107 26.4755 43.6107C26.5 43.5792 26.5244 43.5555 26.5488 43.5239C26.5488 42.8058 26.5488 42.0877 26.5488 41.3696C26.5244 41.338 26.5 41.3144 26.4755 41.2828ZM37.8036 43.516L37.8524 43.6107H40.8005V41.2828H37.8524C37.8524 41.2828 37.8198 41.3459 37.8036 41.3775V43.516ZM36.3784 43.5239V41.3696C36.3784 41.3696 36.354 41.3065 36.3458 41.2828H32.9254V43.6186H36.3458C36.3458 43.6186 36.3702 43.5555 36.3784 43.5318V43.5239ZM12.2401 32.6891C12.2401 31.7658 12.2401 30.8346 12.2401 29.9113C12.2239 29.8877 12.2076 29.8561 12.1913 29.8324H5.24461V32.7601H12.1913C12.1913 32.7601 12.2239 32.7207 12.2401 32.697V32.6891ZM12.2401 34.1569H5.24461V37.0136H12.2401V34.1569ZM12.2157 27.8359C11.1733 27.4098 10.1309 26.96 9.08035 26.5733C8.84418 26.4865 8.51028 26.5023 8.26597 26.5891C7.38643 26.9126 6.53133 27.3151 5.64366 27.6307C5.20389 27.7886 5.04102 28.0016 5.17946 28.4199H12.2157V27.8359ZM27.9821 43.595H31.4595V41.2986H27.9821V43.595Z" fill="white"/>
<path d="M22.1975 20.3154C21.204 20.1576 20.2023 19.9997 19.2087 19.834C18.2233 19.6683 17.2216 19.5657 16.2688 19.3132C15.4056 19.0843 14.9414 19.6052 14.3876 20.0076C13.223 20.8441 12.0747 21.7043 10.9183 22.5486C10.7962 22.6355 10.6496 22.738 10.5193 22.738C9.55831 22.7538 8.59734 22.8091 7.64451 22.738C7.07445 22.6907 6.79756 21.799 7.15588 21.2702C8.19015 19.7235 9.24884 18.1926 10.2994 16.6538C9.30585 15.186 8.29602 13.7261 7.31876 12.2583C7.10702 11.9427 6.8057 11.6507 7.01744 11.1772C7.18031 10.8142 7.39205 10.5932 7.77481 10.5143C7.80739 10.5143 7.83996 10.5143 7.86439 10.5143C8.70321 10.5143 9.54202 10.5143 10.3808 10.5143C10.4134 10.538 10.446 10.5538 10.4786 10.5775C10.9428 10.8694 11.4232 11.1299 11.8711 11.4455C13.0031 12.2504 14.0944 13.1264 15.2753 13.8682C15.5929 14.0654 16.1792 13.9313 16.6271 13.8682C17.7754 13.7024 18.9318 13.5288 20.0638 13.2842C21.6274 12.9528 23.2073 12.866 24.8768 12.9528C24.3719 12.1084 23.9158 11.335 23.4516 10.5775C22.1812 8.49414 20.9026 6.41082 19.6241 4.3354C19.0784 3.44367 18.5328 2.55195 17.979 1.66022C17.6207 1.08416 17.6288 0.571217 18.0686 0.223998C18.2233 0.105627 18.4513 0.0188224 18.6468 0.0188224C19.9987 0.00303969 21.3505 -0.0206344 22.6943 0.0346051C23.0526 0.0503878 23.4679 0.255563 23.7285 0.492304C25.1537 1.78649 26.53 3.12802 27.9307 4.44587C28.9813 5.44019 30.04 6.4345 31.0987 7.42092C32.1899 8.44679 33.2731 9.47267 34.3643 10.4907C35.1624 11.2403 35.9605 11.99 36.7749 12.7318C36.9052 12.8502 37.117 12.9212 37.2961 12.9291C38.1675 12.9449 39.0307 12.9449 39.9021 12.9133C40.9853 12.8738 42.0032 13.0869 42.9968 13.5209C43.9333 13.9392 44.9187 14.2627 45.8634 14.6573C47.256 15.2334 47.6225 16.8984 46.5882 18.0348C46.2706 18.382 45.7412 18.5793 45.277 18.7766C44.1613 19.2422 43.0375 19.692 41.8892 20.0787C41.3599 20.2523 40.7654 20.2523 40.1953 20.3312C40.1546 20.3233 40.122 20.3154 40.0813 20.3075C39.0959 20.3075 38.1105 20.3075 37.1251 20.3075C37.0844 20.3075 37.0518 20.3233 37.0111 20.3312C36.5713 20.7494 36.1316 21.1756 35.6918 21.5938C34.291 22.9117 32.8985 24.2295 31.4977 25.5474C30.9114 26.0998 30.3169 26.6443 29.7224 27.1888C29.364 27.5281 28.908 27.5912 28.6311 27.3466C28.2565 27.0073 28.2483 26.6522 28.6718 26.2339C29.2256 25.6894 29.812 25.1844 30.382 24.6556C31.8805 23.251 33.3789 21.8384 34.8774 20.4338C34.91 20.418 34.9426 20.4022 34.967 20.3864C34.9507 20.3706 34.9426 20.347 34.9263 20.3312C33.9816 20.3312 33.0369 20.3233 32.0841 20.3154C31.0172 20.2917 29.9504 20.268 28.8836 20.2602C28.6392 20.2602 28.4031 20.2996 28.1588 20.3233C27.7109 20.3233 27.2548 20.3154 26.8069 20.347C26.6603 20.3549 26.4567 20.4574 26.3834 20.5837C24.5103 23.6377 22.6535 26.6995 20.7968 29.7535C20.3733 30.4558 19.9335 31.1502 19.4693 31.9078C20.5443 31.9078 21.5378 31.9157 22.5232 31.8999C22.6617 31.8999 22.8327 31.7815 22.9386 31.6711C23.6797 30.9687 24.4126 30.2506 25.1537 29.5404C25.5039 29.209 25.8785 28.8933 26.245 28.5698C26.53 28.3172 26.8965 28.3172 27.1815 28.5698C27.4747 28.8223 27.5317 29.2011 27.2548 29.4773C26.53 30.2033 25.7889 30.9056 25.0397 31.6079C24.6244 32.0025 24.1764 32.3813 23.7693 32.7837C23.4272 33.1231 23.0363 33.2888 22.5477 33.2888C21.2935 33.2809 20.0312 33.2572 18.7771 33.2888C17.808 33.3204 17.5067 32.3892 17.8894 31.7815C18.94 30.1165 19.9498 28.4198 20.9759 26.739C22.2301 24.6793 23.4842 22.6197 24.7384 20.5521C24.7709 20.4969 24.7872 20.418 24.8035 20.3549C24.8198 20.3549 24.8361 20.3549 24.8442 20.3391C24.8442 20.3391 24.8442 20.3154 24.8442 20.3075C24.8279 20.3233 24.8198 20.3391 24.8035 20.3549C23.9647 20.347 23.1259 20.3391 22.2952 20.3312C22.2626 20.3312 22.2301 20.3312 22.1975 20.3312V20.3154ZM22.1894 18.9028C22.2301 18.9028 22.2708 18.9186 22.3115 18.9265C22.7106 18.9265 23.1177 18.9265 23.5168 18.9265C26.8639 18.9265 30.211 18.9265 33.5581 18.9186C33.7047 18.9423 33.8594 18.9739 34.006 18.9739C34.967 18.9739 35.928 18.9739 36.8889 18.9739C37.117 18.9739 37.345 18.9344 37.5649 18.9107H40.6269C40.6269 18.9107 40.6921 18.9107 40.7328 18.9028C40.855 18.9028 40.9934 18.9186 41.0993 18.8792C42.5082 18.3426 43.9089 17.8138 45.3015 17.2535C45.4644 17.1904 45.6028 16.9616 45.6517 16.7801C45.7901 16.275 45.5539 15.9673 44.9269 15.7384C44.1939 15.4622 43.4365 15.2255 42.728 14.9019C41.7345 14.4521 40.7084 14.2469 39.6008 14.2785C38.1105 14.318 36.6202 14.2785 35.1299 14.2785C35.0973 14.2785 35.0647 14.2785 35.0321 14.2785C34.3481 13.9707 34.2992 13.6235 34.8774 12.8896C33.9001 11.9821 32.9147 11.0825 31.9375 10.1671C30.8707 9.16491 29.8038 8.1627 28.737 7.1605C27.2629 5.76373 25.7889 4.36696 24.3149 2.97019C23.8588 2.53617 23.4272 2.08636 22.9549 1.67601C22.8001 1.54185 22.564 1.4077 22.3685 1.39981C21.4238 1.36824 20.4792 1.38403 19.4856 1.38403C19.5508 1.51818 19.5915 1.62077 19.6485 1.72336C20.1941 2.63086 20.7316 3.54626 21.2854 4.45377C22.9467 7.16839 24.6162 9.88302 26.2613 12.6055C26.4241 12.8817 26.6033 12.9528 26.9128 12.9528C28.4519 12.937 29.983 12.9449 31.5222 12.9528C31.685 12.9528 31.8642 12.9764 32.0026 13.0553C32.3202 13.2368 32.4424 13.5525 32.3121 13.8603C32.1899 14.1601 31.8968 14.3022 31.5303 14.3022C29.7142 14.3022 27.8982 14.2943 26.0821 14.3022C24.152 14.3022 22.2219 14.2312 20.3081 14.6415C18.826 14.9651 17.2949 15.1071 15.8046 15.4149C15.2834 15.5174 14.8925 15.3912 14.5342 15.1387C13.3533 14.3022 12.1725 13.4578 11.0405 12.5582C10.3564 12.0137 9.64789 11.8085 8.7765 11.9979C9.66418 13.2921 10.5519 14.5626 11.4151 15.8489C11.749 16.346 11.7653 16.8827 11.4395 17.3877C11.0731 17.9638 10.674 18.5162 10.2912 19.0765C9.77819 19.8419 9.26513 20.6153 8.72764 21.4281C9.14297 21.4281 9.5013 21.4439 9.85148 21.4281C9.98993 21.4202 10.1365 21.3571 10.2505 21.2781C11.6676 20.2523 13.0683 19.2106 14.5016 18.2005C14.7459 18.0269 15.1287 17.9006 15.4218 17.9322C16.5783 18.0506 17.7265 18.24 18.883 18.4136C19.9742 18.5793 21.0655 18.7529 22.1568 18.9265L22.1894 18.9028Z" fill="white"/>
<path d="M25.056 15.7217C25.6342 15.7217 26.0088 16.061 26.0169 16.5661C26.0169 17.0553 25.569 17.442 25.0153 17.4341C24.5999 17.4341 24.1602 16.9922 24.1602 16.5818C24.1602 16.1005 24.5511 15.7217 25.0641 15.7217H25.056Z" fill="white"/>
<path d="M29.2714 16.5662C29.2714 17.1107 28.9213 17.4421 28.3512 17.4342C27.8626 17.4342 27.4961 17.0476 27.4961 16.5346C27.4961 16.0611 27.887 15.7139 28.4082 15.7218C28.9864 15.7218 29.2633 16.0059 29.2633 16.5662H29.2714Z" fill="white"/>
<path d="M32.533 16.5504C32.533 17.1107 32.1665 17.4421 31.5801 17.4342C31.1159 17.4342 30.7576 17.0397 30.7658 16.5583C30.7658 16.0375 31.1404 15.7139 31.7104 15.7218C32.2154 15.7218 32.5493 16.0611 32.5411 16.5504H32.533Z" fill="white"/>
<path d="M34.9483 15.7227C35.494 15.7227 35.8767 16.0542 35.8849 16.5277C35.893 17.0169 35.4614 17.4431 34.9402 17.4352C34.4597 17.4352 34.1014 17.0406 34.1095 16.5277C34.1095 15.9753 34.3864 15.7227 34.9483 15.7148V15.7227Z" fill="white"/>
</svg>
