<svg width="47" height="45" viewBox="0 0 47 45" fill="none" xmlns="http://www.w3.org/2000/svg">
<path d="M11.3068 17.3658C11.3068 19.3402 11.2989 21.3067 11.2989 23.2812C11.2989 30.1243 11.2989 36.9674 11.2989 43.8106C11.2989 44.7938 11.0941 44.9921 10.1092 44.9921C8.04477 44.9921 5.98039 44.9921 3.91602 44.9921C3.47477 44.9921 3.07293 44.9286 2.9311 44.4211C2.9311 44.3577 2.9311 44.2943 2.9311 44.2308C2.9311 44.0643 2.91534 43.8978 2.91534 43.7313C2.91534 35.1119 2.91534 26.5005 2.91534 17.8812V17.3182H0.827327C0.732775 17.3023 0.630345 17.2865 0.535793 17.2706C0.354569 17.1437 0.173345 17.0169 0 16.8979C0 16.6838 0 16.4697 0 16.2556C0.291534 16.0098 0.559431 15.7481 0.866724 15.5261C2.96262 14.0433 5.07427 12.5684 7.17805 11.0935C9.81762 9.24596 12.4651 7.41425 15.1125 5.57461C17.2005 4.12352 19.2807 2.65656 21.3608 1.19754C21.8336 0.864499 22.2984 0.515602 22.7712 0.182564C23.1258 -0.0711796 23.4803 -0.0553207 23.8428 0.198423C24.9301 0.967583 26.0254 1.72881 27.1206 2.49004C29.768 4.33761 32.4155 6.17725 35.0629 8.03275C37.4582 9.70587 39.8457 11.3869 42.2331 13.06C43.5568 13.9878 44.8963 14.8918 46.1964 15.8512C46.4249 16.0257 46.614 16.3825 46.6455 16.668C46.677 16.9931 46.3934 17.2151 46.0467 17.2785C45.9758 17.2944 45.9127 17.3102 45.8418 17.3261H43.7459C43.7459 17.5323 43.7459 17.7067 43.7459 17.8891C43.7459 26.5084 43.7459 35.1199 43.7459 43.7392C43.7459 43.9057 43.738 44.0723 43.7302 44.2388C43.7065 44.2705 43.6908 44.3101 43.6671 44.3419C43.5647 44.8256 43.3441 45 42.761 45C40.6178 45 38.4825 45 36.3394 45C36.2606 45 36.1897 45 36.1109 45C35.5987 44.9604 35.3702 44.7145 35.3702 44.1991C35.3702 35.4291 35.3702 26.6591 35.3702 17.8891C35.3702 17.7226 35.3702 17.5561 35.3623 17.3816C35.3308 17.3658 35.2993 17.3499 35.2678 17.334C27.3176 17.334 19.3595 17.334 11.4092 17.334C11.3777 17.3499 11.3462 17.3658 11.3147 17.3816L11.3068 17.3658ZM4.42817 43.3982C4.42817 43.3982 4.45181 43.4617 4.46757 43.4934C6.22465 43.4934 7.98174 43.4934 9.73882 43.4934C9.76246 43.4617 9.7861 43.4379 9.80186 43.4062V34.1683H4.42817V43.4062V43.3982ZM42.1858 43.4934C42.1858 43.4934 42.2094 43.43 42.2252 43.3982V34.1604H36.8515V43.3982C36.8515 43.3982 36.8988 43.4538 36.9146 43.4855C38.6716 43.4855 40.4287 43.4855 42.1858 43.4855V43.4934ZM42.1149 32.6141C42.1464 32.4635 42.2173 32.3128 42.2173 32.1622C42.2173 27.3648 42.2173 22.5754 42.2173 17.7781C42.2173 17.6354 42.2173 17.4847 42.2173 17.334H36.9224L36.8515 17.3816C36.8515 22.3375 36.8515 27.2935 36.8515 32.2415C36.8515 32.3604 36.9461 32.4873 36.9933 32.6062C37.0485 32.63 37.1037 32.6697 37.1588 32.6697C38.7504 32.6697 40.3499 32.6697 41.9416 32.6697C41.9967 32.6697 42.0519 32.63 42.107 32.6062L42.1149 32.6141ZM9.80974 17.3816C9.80974 17.3816 9.76246 17.3499 9.73882 17.334H4.47545C4.45969 17.4133 4.44393 17.4609 4.44393 17.5006C4.44393 22.4327 4.44393 27.3648 4.44393 32.297C4.44393 32.4001 4.50696 32.5111 4.54636 32.6141C4.60152 32.6379 4.65667 32.6776 4.71182 32.6776C6.30344 32.6776 7.90294 32.6776 9.49456 32.6776C9.54972 32.6776 9.60488 32.6379 9.66003 32.6141C9.70731 32.4952 9.80186 32.3683 9.80186 32.2494C9.80186 27.2935 9.80186 22.3375 9.80186 17.3895L9.80974 17.3816ZM3.11233 15.7799H43.4071C43.2968 15.6768 43.2416 15.6054 43.1786 15.5578C40.7675 13.8689 38.3643 12.1799 35.9533 10.4988C33.3058 8.64332 30.6505 6.79575 27.9952 4.94818C26.5296 3.92528 25.072 2.90238 23.5906 1.90326C23.4409 1.80811 23.1652 1.84776 22.9682 1.90326C22.8264 1.93498 22.7082 2.09357 22.5742 2.18079C19.9346 4.02043 17.2872 5.84422 14.6555 7.69178C12.0947 9.48385 9.54184 11.2997 6.98107 13.0997C5.72826 13.9799 4.45969 14.8442 3.11233 15.7799Z" fill="white"/>
<path d="M25.0706 8.08315C25.1888 7.98007 25.2833 7.9087 25.3542 7.82148C25.7718 7.37743 26.5598 7.70253 26.6701 8.21795C26.8907 9.225 27.0247 10.24 26.9143 11.2629C26.7489 12.8012 25.5906 14.1175 23.9044 14.1968C22.9668 14.2444 22.0764 14.1571 21.2728 13.6021C20.4769 13.047 20.0042 12.3016 19.8072 11.3422C19.4684 9.64526 20.1145 8.1783 20.8867 6.75893C21.2885 6.02148 21.8243 5.35541 22.3049 4.65761C22.5334 4.3325 23.0692 4.25321 23.4238 4.47524C24.2275 4.97479 24.5742 5.7836 24.8106 6.63998C24.9366 7.08404 24.9682 7.55187 25.0627 8.08315H25.0706ZM25.4567 9.81178C25.1651 10.0497 24.9682 10.2717 24.716 10.3827C24.4875 10.4858 24.1487 10.573 23.9596 10.4699C23.7547 10.3589 23.5972 10.0259 23.5656 9.77213C23.5026 9.27257 23.5814 8.76508 23.542 8.26553C23.479 7.56773 23.4317 6.86201 23.0535 6.21972C22.9983 6.2673 22.9589 6.29109 22.9274 6.3228C22.1868 7.33778 21.6194 8.44791 21.2885 9.66112C20.9733 10.803 21.3909 11.8972 22.1789 12.3968C22.9904 12.9122 24.4639 12.7933 24.9839 12.151C25.5355 11.477 25.4724 10.684 25.4567 9.81178Z" fill="white"/>
<path d="M19.5985 39.8093C19.5827 40.4357 19.6379 41.078 19.1887 41.6093C18.6214 42.2833 17.8571 42.5212 17.0534 42.3467C16.3285 42.1961 15.7691 41.6886 15.58 40.9115C15.4855 40.5388 15.4776 40.1423 15.4303 39.7379C14.6818 39.5238 14.0514 39.1353 13.8308 38.2868C13.6102 37.4542 13.7441 36.6296 14.5163 36.0111C14.6345 35.9159 14.6975 35.7018 14.6975 35.5432C14.7133 34.0049 14.6975 32.4586 14.6975 30.9203C14.6975 30.8886 14.6975 30.8648 14.6975 30.8331C14.6818 30.841 14.6581 30.8569 14.6424 30.8648C14.2169 30.841 13.7835 30.849 13.358 30.7935C12.9168 30.738 12.7435 30.4366 12.7435 30.0005C12.7435 28.7794 12.775 27.5582 12.7356 26.3371C12.7119 25.6393 13.035 25.3459 13.7678 25.2983C14.0357 25.2825 14.3114 25.2983 14.6266 25.2983C14.8157 23.7917 15.4303 22.6419 17.1086 22.4516C17.1401 22.4437 17.1795 22.4358 17.211 22.4278C17.2662 22.4199 17.3186 22.4445 17.3737 22.4365H20.4826C20.4826 19.4985 21.6766 19.7258 23.2466 19.7258C24.7908 19.7258 26.0938 19.4972 26.0938 22.4364C26.0938 22.4364 28.1262 22.4365 29.1269 22.4365C29.2214 22.4524 29.3215 22.4437 29.4161 22.4596C30.724 22.523 31.7956 23.6411 31.8665 24.9415C31.8823 25.3063 31.969 25.449 32.3314 25.4014C32.5126 25.3776 32.6939 25.4173 32.8751 25.4014C33.5763 25.3063 33.8758 25.7582 33.8758 26.3847C33.8758 27.5265 33.8758 28.6763 33.8758 29.8181C33.8758 30.5635 33.4897 30.849 32.8908 30.8252C32.5836 30.8093 32.2763 30.8807 31.969 30.9124C31.9532 30.8965 31.9296 30.8728 31.9138 30.8569C31.9138 30.8807 31.9217 30.9045 31.9296 30.9362C31.9296 32.4745 31.9217 34.0208 31.9296 35.5591C31.9296 35.7177 31.9926 35.9318 32.1108 36.0348C33.466 37.256 32.9775 39.2859 31.0944 39.7379C31.0865 39.7379 31.0786 39.7617 31.0628 39.8013C31.0392 40.3802 31.1338 40.9908 30.7083 41.5379C30.1725 42.2198 29.487 42.4736 28.6754 42.3626C27.9426 42.2595 27.4147 41.8075 27.1626 41.1256C27.0129 40.7212 27.0129 40.2533 26.9499 39.8093L26.8711 39.7379C24.4757 39.7379 22.0726 39.7379 19.6772 39.7379C19.6536 39.7617 19.6221 39.7855 19.5985 39.8093ZM22.498 23.9503C20.8276 23.9424 19.1572 23.9265 17.4868 23.9186H17.3923C16.7855 23.99 16.2655 24.3389 16.2419 24.8701C16.1867 26.0199 16.2261 27.1776 16.2261 28.3274H22.498C22.498 28.3274 22.5453 28.2719 22.569 28.2481V24.0296L22.498 23.9503ZM24.066 24.0296V28.2481C24.066 28.2481 24.1133 28.3036 24.1369 28.3274H30.4246C30.4246 27.3203 30.4246 26.345 30.4246 25.3776C30.4246 24.5054 30.1016 24.1089 29.2427 23.9186H29.1482C27.4778 23.9186 25.8073 23.9345 24.1369 23.9503L24.066 24.0296ZM14.7054 26.9794L14.6503 26.8842C14.5321 26.8842 14.4139 26.8842 14.3036 26.8842C14.2799 26.9159 14.2642 26.9477 14.2405 26.9794V29.2393C14.2405 29.2393 14.2799 29.3027 14.3036 29.3265C14.4139 29.3265 14.5321 29.3265 14.6424 29.3265C14.6581 29.2948 14.6818 29.2631 14.6975 29.2313V26.9794H14.7054ZM32.3945 26.9794C32.3945 26.9794 32.3551 26.9159 32.3314 26.8842C32.2132 26.8842 32.095 26.8842 31.9847 26.8842C31.969 26.9159 31.9453 26.9477 31.9296 26.9794V29.2313C31.9296 29.2313 31.969 29.2948 31.9926 29.3265C32.1029 29.3265 32.2211 29.3265 32.3314 29.3265C32.3551 29.2948 32.3708 29.2631 32.3945 29.2393C32.3945 28.486 32.3945 27.7327 32.3945 26.9794ZM21.9992 22.4364H24.5773C24.5773 21.0005 24.1369 20.8705 23.2466 20.8705C22.4087 20.8705 21.9992 21.0612 21.9992 22.4364ZM16.3207 29.8498L16.2182 29.9054C16.2182 31.6736 16.2182 33.4419 16.2182 35.2102C16.2498 35.226 16.2813 35.2419 16.3128 35.2578C20.9852 35.2578 25.6498 35.2578 30.3222 35.2578L30.4167 35.2102C30.4167 33.4419 30.4167 31.6736 30.4167 29.9054C30.3852 29.8895 30.3537 29.8657 30.3143 29.8498H16.3128H16.3207ZM23.2545 38.2392C25.7128 38.2392 28.1711 38.2392 30.6295 38.2392C31.1101 38.2392 31.378 38.0331 31.3938 37.6683C31.4095 37.2877 31.0786 37.0498 30.4877 37.0498C25.6419 37.0498 20.804 37.0498 15.9582 37.0498C15.4461 37.0498 15.2018 37.2481 15.2097 37.6604C15.2097 38.0014 15.5249 38.2392 15.9582 38.2392C18.385 38.2392 20.8119 38.2392 23.2466 38.2392H23.2545ZM16.951 39.8251C16.9353 40.5705 17.148 40.9273 17.5656 40.9036C18.0147 40.8718 18.1644 40.5705 18.0935 39.8251H16.951ZM29.5894 39.8093C29.3767 39.8093 29.1955 39.8093 29.0142 39.8093C28.8251 39.8093 28.6281 39.8093 28.439 39.8093C28.4154 40.5229 28.6518 40.9194 29.0457 40.9036C29.5027 40.8877 29.6446 40.6102 29.5894 39.8093Z" fill="white"/>
<path d="M26.2335 32.8053C24.2637 32.8053 22.286 32.8053 20.3162 32.8053C20.2847 32.8053 20.2531 32.8053 20.2216 32.8132C19.8277 32.6864 19.5834 32.3851 19.607 32.0044C19.6307 31.7031 19.7804 31.3542 20.2059 31.3542C20.2453 31.3384 20.2847 31.3225 20.3162 31.3066C22.286 31.3066 24.2558 31.3066 26.2257 31.3066C26.2651 31.3225 26.2966 31.3384 26.336 31.3621C26.6984 31.3939 26.9033 31.608 26.9584 31.9569C27.0451 32.4564 26.7457 32.6943 26.3281 32.8212C26.2966 32.8212 26.2651 32.8212 26.2335 32.8212V32.8053Z" fill="white"/>
<path d="M23.2703 34.773C22.3012 34.773 21.332 34.7968 20.3629 34.773C19.7325 34.7571 19.4095 34.2259 19.7325 33.6946C19.8507 33.4963 20.1737 33.314 20.4022 33.314C22.2933 33.2822 24.1922 33.2902 26.0832 33.2981C26.6584 33.2981 26.9421 33.536 26.9736 33.9642C27.013 34.4558 26.6978 34.773 26.1305 34.7809C25.1771 34.7889 24.2237 34.7809 23.2624 34.7809C23.2624 34.7809 23.2624 34.7809 23.2624 34.773H23.2703Z" fill="white"/>
<path d="M17.4204 34.7654C16.9949 34.7654 16.6798 34.472 16.6719 34.0438C16.6719 33.6711 16.9634 33.3063 17.2943 33.2984C17.7356 33.2825 18.1295 33.6156 18.1374 34.02C18.1532 34.4323 17.8301 34.7654 17.4125 34.7733L17.4204 34.7654Z" fill="white"/>
<path d="M29.8917 34.0438C29.8917 34.5275 29.6553 34.7654 29.1905 34.7654C28.7807 34.7654 28.4498 34.4482 28.434 34.0517C28.4183 33.7345 28.828 33.3064 29.1432 33.2984C29.5844 33.2826 29.8917 33.5997 29.8917 34.0517V34.0438Z" fill="white"/>
</svg>
