<svg width="44" height="45" viewBox="0 0 44 45" fill="none" xmlns="http://www.w3.org/2000/svg">
<path d="M7.81535 28.8598C6.77963 28.8438 5.73587 28.8359 4.70014 28.8199C4.66 28.8279 4.61985 28.8438 4.58774 28.8518C3.49581 28.5969 2.80532 27.9516 2.57249 26.8442C2.57249 26.7407 2.57249 26.6451 2.58052 26.5415C2.58052 24.2949 2.58052 22.0484 2.58052 19.8018C2.58052 19.6982 2.58052 19.6026 2.57249 19.4991C2.81335 18.5829 3.29509 17.8739 4.28264 17.6508C4.58774 17.5791 4.91692 17.5632 5.23005 17.5552C8.0241 17.5473 10.8262 17.5473 13.6202 17.5393C13.6764 17.5393 13.7246 17.5473 13.7808 17.5552C13.7808 17.5393 13.7808 17.5234 13.7808 17.5074C13.7326 17.5074 13.6764 17.4915 13.6283 17.4835C11.8378 16.5036 11.1233 14.9263 11.2276 12.9904C11.2758 12.138 11.4123 11.2059 12.3356 10.7438C12.6568 10.5845 13.0502 10.5447 13.4356 10.4411C13.3473 9.99496 13.2509 9.4851 13.1385 8.99117C12.8013 7.54126 12.8414 6.16305 13.8531 4.9362C14.0137 4.73704 14.0056 4.41041 14.0859 4.14751C14.6961 2.11604 16.1493 0.968855 18.1325 0.419163C19.6821 -0.0110309 21.2637 -0.106629 22.8615 0.116434C23.6242 0.227966 24.403 0.267799 25.1497 0.451029C27.1489 0.936989 28.554 2.17181 29.4773 3.98818C30.0554 5.1274 30.3685 6.33831 30.3364 7.61296C30.3123 8.57691 30.2561 9.54087 30.2079 10.457C30.6254 10.5606 31.0911 10.6004 31.4925 10.7836C32.1589 11.0943 32.3436 11.7635 32.4721 12.4088C32.7129 13.6277 32.5524 14.8068 31.8779 15.8504C31.4765 16.4638 30.8824 16.9498 30.3524 17.5234C30.4488 17.5234 30.6174 17.5552 30.786 17.5552C33.4436 17.5552 36.0931 17.5552 38.7507 17.5552C40.0433 17.5552 41.0469 18.4315 41.1352 19.5947C41.1593 19.6982 41.1754 19.7938 41.1995 19.8974C41.1995 22.0802 41.1995 24.2631 41.1995 26.4459C41.1754 26.5495 41.1593 26.6451 41.1352 26.7486C41.079 27.5931 40.4448 28.3977 39.6178 28.6765C39.4412 28.7323 39.2645 28.7881 39.0879 28.8438C39.0477 28.8359 39.0156 28.8279 38.9755 28.8199C37.9397 28.8359 36.904 28.8598 35.8763 28.8757C35.8763 28.8598 35.8683 28.8359 35.8603 28.8199C35.8603 28.8279 35.8442 28.8438 35.8522 28.8438C35.8603 28.8518 35.8763 28.8598 35.8844 28.8677C36.5909 29.744 37.2894 30.6204 38.02 31.5286C38.5901 31.3294 39.2645 31.0904 39.9389 30.8594C40.4608 30.6841 41.063 30.7717 41.1352 31.3613C41.1593 31.433 41.1754 31.4967 41.1995 31.5684C41.1995 32.7873 41.1995 34.0062 41.1995 35.225C41.2155 35.2569 41.2236 35.2888 41.2396 35.3206C41.6411 35.3206 42.0505 35.3206 42.452 35.3286C42.998 35.3286 43.2228 35.5198 43.3673 36.0297C43.7366 37.3362 43.6804 38.6746 43.6483 40.005C43.6322 40.5786 43.4957 41.1522 43.3432 41.7098C43.2308 42.1081 42.9337 42.379 42.46 42.371C42.0425 42.371 41.617 42.371 41.1352 42.371C41.1352 42.9845 41.1352 43.582 41.1352 44.1874C41.1352 44.6973 40.8623 44.9761 40.3484 45C40.22 45 40.0915 45 39.963 45C27.9358 45 15.9004 45 3.87317 45C2.73306 45 2.5484 44.8168 2.5484 43.6696C2.5484 43.2553 2.5484 42.8411 2.5484 42.371C2.16301 42.371 1.79368 42.371 1.43238 42.371C0.725841 42.371 0.460889 42.1639 0.316369 41.4788C0.0674729 40.3077 -0.0690185 39.1286 0.035357 37.9337C0.0915593 37.2406 0.260166 36.5555 0.436802 35.8703C0.565264 35.3605 1.02291 35.2569 1.48056 35.233C1.83383 35.2091 2.19513 35.2171 2.5484 35.2171C2.57249 35.1852 2.59657 35.1613 2.62066 35.1294C2.62066 33.9743 2.62869 32.8191 2.62869 31.672C2.62869 30.7956 3.03013 30.6522 3.81697 30.8673C4.38702 31.0187 4.94904 31.2418 5.48697 31.4887C5.79207 31.6321 5.9125 31.5923 6.05702 31.2896C6.47453 30.3973 7.02049 29.5927 7.79126 28.9633C7.82338 28.9474 7.84747 28.9235 7.87958 28.9076C7.86353 28.8916 7.83944 28.8757 7.82338 28.8598H7.81535ZM29.7663 15.8504C30.7459 15.1334 31.0991 14.1694 30.9386 12.9904C30.794 11.9468 30.7298 11.9069 29.8065 12.4009C29.7824 12.4168 29.7663 12.4487 29.7503 12.4726C29.7503 12.5124 29.7342 12.5522 29.7262 12.5921C29.7342 13.6835 29.7503 14.7669 29.7583 15.8583C29.7342 15.8583 29.7182 15.8743 29.6941 15.8822C29.6941 15.8982 29.7101 15.9061 29.7182 15.9221C29.7342 15.9061 29.7503 15.8822 29.7663 15.8663V15.8504ZM6.85991 27.2107C6.85991 27.2107 6.85991 27.2585 6.85189 27.2824C6.87597 27.2665 6.90006 27.2505 6.92415 27.2266H7.78324C7.81535 27.0912 7.88761 26.9558 7.88761 26.8283C7.88761 24.3905 7.88761 21.9528 7.88761 19.515C7.88761 19.3875 7.82338 19.2601 7.78324 19.1326H6.92415C6.92415 19.1326 6.87597 19.2043 6.85189 19.2362C6.85189 21.897 6.85189 24.5499 6.85189 27.2107H6.85991ZM39.5937 19.6982C39.393 19.2362 39.0477 19.045 38.5419 19.1485V27.2027C39.0718 27.3063 39.4251 27.147 39.5937 26.653C39.5937 26.6132 39.6017 26.5813 39.6098 26.5415C39.6098 24.2949 39.6098 22.0563 39.6098 19.8098C39.6098 19.7699 39.6017 19.7381 39.5937 19.6982ZM4.18629 26.653C4.32278 27.1788 4.51548 27.2744 5.24611 27.1788V19.1246C4.74832 19.0928 4.2987 19.0928 4.18629 19.6903L4.17024 19.8018C4.17024 22.0484 4.17024 24.287 4.17024 26.5335C4.17024 26.5734 4.17826 26.6132 4.18629 26.6451V26.653ZM9.42113 19.2282V27.2107C9.46931 27.2426 9.51748 27.2744 9.56565 27.3142C9.7182 27.1948 9.95104 27.0992 10.0153 26.9398C10.2883 26.2627 10.7459 25.8325 11.4685 25.6811C12.0385 25.5616 12.6086 25.458 13.1626 25.2907C13.8611 25.0836 14.4071 25.2509 14.8487 25.7926C15.5472 25.5536 16.2617 25.2828 16.3982 24.5021C16.5347 23.6974 16.5026 22.8609 16.5347 22.0324C16.5347 21.9687 16.4625 21.897 16.4143 21.8412C15.7399 21.1083 15.1457 20.3196 14.7282 19.4114C14.672 19.284 14.4552 19.1406 14.3188 19.1326C12.6969 19.1167 11.0831 19.1326 9.46128 19.1326C9.44522 19.1645 9.43719 19.1963 9.42113 19.2282ZM34.3267 27.2107C34.3267 27.2107 34.3749 27.147 34.399 27.1231V19.1246C32.7531 19.1246 31.1634 19.1326 29.5817 19.1167C29.2525 19.1167 29.1401 19.2521 28.9715 19.507C28.5138 20.232 27.9759 20.9171 27.4942 21.6341C27.3737 21.8173 27.2613 22.0404 27.2533 22.2555C27.2212 22.845 27.2372 23.4425 27.2453 24.04C27.2533 24.9084 27.8073 25.6014 28.7547 25.8643C28.827 25.8882 28.9634 25.7847 29.0277 25.705C29.3649 25.3146 29.7744 25.1234 30.2962 25.235C30.8181 25.3465 31.332 25.4899 31.8539 25.5935C32.6808 25.7448 33.4115 26.0555 33.7326 26.892C33.8611 27.2266 34.0377 27.2824 34.3428 27.2266L34.3267 27.2107ZM10.8984 43.4226C10.8984 43.4226 10.9306 43.3589 10.9466 43.3191C10.9466 42.14 10.9466 40.953 10.9546 39.7739C10.9707 39.7341 10.9787 39.6943 10.9948 39.6465C11.0349 39.3119 11.2035 39.0968 11.5648 39.0808C12.0064 39.0569 12.3838 39.1286 12.4801 39.6544C12.4801 40.7777 12.4801 41.909 12.4801 43.0323C12.4801 43.1597 12.5444 43.2872 12.5845 43.4147H21.1273V32.62C21.1273 32.62 21.063 32.604 21.0309 32.5881C20.4769 32.7554 19.9229 32.9307 19.3689 33.098C17.0004 33.8229 14.6319 34.5399 12.2714 35.2808C11.8619 35.4083 11.5006 35.3923 11.0992 35.225C10.2481 34.8745 9.38099 34.5718 8.51387 34.2452C7.14895 33.7273 5.77601 33.2095 4.4111 32.6837C4.37899 32.6837 4.34687 32.6837 4.31476 32.6837C4.28264 32.7474 4.21841 32.8112 4.21841 32.8829C4.21841 33.7194 4.21841 34.5479 4.21841 35.3764C4.97313 35.5596 5.62347 35.9022 6.1052 36.4678C7.55843 38.1727 7.21319 40.9291 4.98918 41.9329C4.28264 42.2515 4.13009 42.618 4.22644 43.2633C4.22644 43.3111 4.25052 43.3509 4.26658 43.4067H10.9225L10.8984 43.4226ZM31.2437 35.241C31.2437 35.241 31.2196 35.1852 31.2035 35.1533C30.224 34.8586 29.2364 34.5718 28.2569 34.277C26.4263 33.7353 24.6038 33.1856 22.7732 32.6439C22.7491 32.6757 22.725 32.7076 22.7009 32.7315V43.3987H39.5696V42.3153C37.731 41.8213 36.888 40.4591 36.7675 39.1048C36.623 37.4557 37.731 35.9261 39.2966 35.4242C39.4171 35.3844 39.5937 35.2489 39.6017 35.1454C39.6258 34.3328 39.6178 33.5282 39.6178 32.6996C39.4412 32.7235 39.3207 32.7156 39.2163 32.7554C37.1931 33.5122 35.1858 34.285 33.1545 35.0259C32.8896 35.1215 32.8494 35.241 32.8494 35.464C32.8494 36.4121 32.8494 37.3601 32.8494 38.3081C32.8334 38.3798 32.8173 38.4515 32.7932 38.5232C32.7451 38.9614 32.3998 39.1366 32.0465 39.1764C31.6933 39.2163 31.4283 38.9853 31.3159 38.6268C31.2918 38.5232 31.2758 38.4196 31.2517 38.3161C31.2517 37.2884 31.2517 36.2687 31.2437 35.241ZM28.1365 12.2814C27.9598 11.9388 27.7993 11.5723 27.5985 11.2457C27.3095 10.7836 27.2132 10.3057 27.2292 9.76393C27.2453 9.21424 27.2212 8.64861 27.1329 8.09892C26.9241 6.73664 25.4869 6.02762 24.4673 6.12322C23.8972 6.17898 23.3432 6.39408 22.7812 6.52951C22.3717 6.62511 21.9382 6.80037 21.5448 6.74461C20.8382 6.64104 20.1558 6.37018 19.4572 6.21085C18.5018 5.99575 17.5062 6.44188 16.9763 7.26243C16.5428 7.92366 16.4785 8.65658 16.5508 9.39747C16.623 10.1941 16.4544 10.9191 16.0129 11.5723C15.6917 12.0424 15.6515 12.5283 15.6596 13.0621C15.6756 14.2172 15.6596 15.3804 15.6756 16.5355C15.6756 17.5951 15.9807 18.5749 16.5508 19.4672C17.45 20.8852 18.6865 21.9528 20.1558 22.7574C21.2397 23.3469 22.3557 23.4186 23.4476 22.7892C24.122 22.3989 24.7724 21.9528 25.3906 21.4827C27.0124 20.2638 27.9197 18.6387 28.1284 16.6311C28.1365 16.6231 28.1606 16.6072 28.1606 16.5992C28.1606 16.5753 28.1445 16.5514 28.1284 16.5275C28.1284 15.1493 28.1284 13.7711 28.1284 12.3929C28.1284 12.361 28.1284 12.3212 28.1284 12.2893L28.1365 12.2814ZM28.9313 27.5931C28.3372 27.4019 28.3372 27.4019 27.9277 27.7524C27.7109 27.9356 27.4942 28.1268 27.2533 28.2862C25.9687 29.1625 24.5957 29.7998 23.006 29.9512C21.9944 30.0468 21.0068 30.0946 20.0112 29.8635C18.3171 29.4652 16.8157 28.7323 15.5793 27.4895C15.4749 27.3859 15.226 27.3541 15.0815 27.4019C14.9852 27.4337 14.9049 27.6568 14.8968 27.8002C14.8647 28.1985 14.8727 28.6048 14.8727 29.0032C14.8727 30.2698 14.8727 31.5445 14.8727 32.843C16.7114 32.2774 18.558 31.6959 20.4127 31.1541C21.0309 30.9709 21.625 30.6522 22.3316 30.8833C23.6885 31.3214 25.0694 31.6959 26.4343 32.1021C27.2694 32.3491 28.0963 32.612 28.9233 32.859V27.5931H28.9313ZM28.7226 7.70059C28.7226 7.70059 28.8029 7.68466 28.843 7.66873C28.7306 7.02344 28.6744 6.37018 28.4897 5.74082C28.0241 4.10768 27.0445 2.87286 25.4468 2.17181C24.387 1.70178 23.2308 1.64601 22.0987 1.58228C20.8543 1.50261 19.6178 1.60618 18.4135 1.96467C16.8479 2.4347 15.5151 3.60578 15.4589 5.37436C15.4589 5.58149 15.2581 5.78065 15.1297 5.97185C15.0574 6.08338 14.937 6.16305 14.8567 6.27458C14.3027 7.0314 14.5195 7.86789 14.6319 8.68845C14.656 8.88761 14.7363 9.07881 14.7925 9.27797C14.9289 9.07084 14.9771 8.87168 14.9851 8.67251C15.0333 7.2943 15.499 6.12322 16.6953 5.33453C17.6267 4.7211 18.6303 4.37854 19.7864 4.6255C20.9185 4.8645 22.0586 5.39826 23.2389 4.75297C23.3031 4.71314 23.3914 4.71314 23.4637 4.6972C25.4227 4.18734 27.6146 5.0557 28.4737 7.01547C28.57 7.23853 28.6343 7.46956 28.7146 7.70059H28.7226ZM25.7037 23.2354C23.1104 25.2907 20.6214 25.2987 18.0843 23.2672C18.2047 24.6295 17.8193 25.6811 16.9281 26.5176C19.3208 29.0032 23.9052 29.2422 26.8519 26.5734C25.8161 25.7528 25.5913 24.6216 25.7117 23.2274L25.7037 23.2354ZM1.81777 40.8733C2.52431 40.8255 3.23888 40.8733 3.91331 40.714C4.90086 40.483 5.27019 39.9731 5.44683 38.9215C5.56726 38.2125 4.95707 37.2406 4.19432 37.0573C3.41552 36.8741 2.59657 36.89 1.80974 36.8183C1.48859 38.2284 1.47253 39.519 1.80974 40.8733H1.81777ZM42.1469 38.7941C42.0987 38.2603 42.0666 37.7265 42.0024 37.1848C41.9863 37.0733 41.8578 36.89 41.7856 36.89C41.1433 36.89 40.4849 36.8263 39.8587 36.9458C39.0156 37.1131 38.4777 37.8301 38.4135 38.5471C38.3171 39.6226 38.8069 40.4033 39.69 40.6582C40.3484 40.8494 41.079 40.7857 41.7776 40.8096C41.8498 40.8096 41.9863 40.5945 42.0024 40.467C42.0666 39.9173 42.0987 39.3597 42.1469 38.7941ZM13.1546 33.3609C13.2188 31.2099 13.283 29.0828 13.3473 26.892C12.8575 26.9876 12.4641 27.0753 12.0546 27.131C11.597 27.1868 11.3802 27.3939 11.3882 27.8639C11.4043 28.326 11.4685 28.7801 11.4765 29.2422C11.5167 30.7319 11.5488 32.2137 11.5889 33.7034C11.5889 33.7273 11.621 33.7512 11.6532 33.799C12.1349 33.6556 12.6247 33.5122 13.1465 33.3609H13.1546ZM30.4488 26.8761C30.4488 27.0912 30.4488 27.2824 30.4488 27.4736C30.4809 29.0191 30.5211 30.5726 30.5451 32.1181C30.5612 33.3609 30.5451 33.3449 31.7736 33.7353C32.1027 33.8389 32.1911 33.7353 32.1911 33.4565C32.2232 31.5445 32.2714 29.6245 32.2794 27.7126C32.2794 27.5532 32.0867 27.3142 31.9341 27.2585C31.4604 27.0992 30.9626 27.0115 30.4488 26.8841V26.8761ZM36.0128 19.1485V27.2107H36.9281V19.1485H36.0128ZM9.97512 33.1378V29.3298C8.72262 30.0229 7.90367 30.947 7.37376 32.1738C8.273 32.5084 9.13209 32.8271 9.97512 33.1378ZM36.3821 32.1579C35.8442 30.955 35.0012 30.1025 33.8691 29.4095C33.829 30.0707 33.7728 30.6602 33.7487 31.2577C33.7326 31.8711 33.7487 32.4925 33.7487 33.1298C34.2304 32.9546 34.6479 32.8032 35.0734 32.6439C35.499 32.4845 35.9165 32.3332 36.3821 32.1579ZM13.1064 12.0981C12.4159 13.4684 12.9057 15.3326 14.118 15.8424C14.118 14.998 14.118 14.1774 14.118 13.3489C14.118 12.7169 13.8103 12.3 13.1947 12.0981C13.1947 12.0981 13.1626 12.0981 13.1064 12.0981ZM30.1357 17.5313C30.1357 17.5313 30.0714 17.4995 30.0474 17.4995C30.0313 17.4995 30.0152 17.5313 29.9992 17.5473C30.0233 17.5552 30.0554 17.5791 30.0795 17.5712C30.0955 17.5712 30.1116 17.5393 30.1357 17.5234V17.5313Z" fill="white"/>
<path d="M38.4278 3.50192C40.6839 3.44615 42.5546 5.02353 43.0605 7.1506C43.3575 8.39339 43.0926 9.58837 42.6269 10.7435C41.9605 12.4006 40.9007 13.7867 39.6 14.9977C38.9015 15.6509 37.7935 15.6429 37.0709 14.9499C35.9147 13.8266 34.9754 12.5519 34.2769 11.11C33.8594 10.2416 33.5783 9.30954 33.5703 8.36152C33.5703 7.13467 33.9718 6.01139 34.8389 5.07133C35.7943 4.04365 36.9264 3.46209 38.4198 3.50192H38.4278ZM38.3234 5.04743C36.2198 5.1271 34.8228 6.99127 35.2483 9.06258C35.6418 10.9506 36.7738 12.4563 38.1468 13.7788C38.2271 13.8584 38.5161 13.8505 38.6044 13.7708C39.7445 12.7352 40.6357 11.5083 41.2138 10.0903C41.5751 9.21394 41.7437 8.28185 41.4627 7.3418C41.0051 5.82815 39.8409 5.11913 38.3234 5.04743Z" fill="white"/>
<path d="M32.7804 40.8567C32.7804 41.2709 32.4673 41.5976 32.0337 41.6055C31.5921 41.6215 31.2148 41.2789 31.2228 40.8567C31.2228 40.4743 31.5841 40.068 31.9374 40.0521C32.4512 40.0282 32.7724 40.3389 32.7804 40.8487V40.8567Z" fill="white"/>
<path d="M12.456 37.3122C12.456 37.8141 12.159 38.1247 11.6853 38.1247C11.2517 38.1247 10.8984 37.7742 10.8984 37.344C10.8984 36.9138 11.2597 36.5713 11.6933 36.5792C12.1429 36.5872 12.456 36.8899 12.456 37.3042V37.3122Z" fill="white"/>
<path d="M38.318 10.7357C37.1137 10.9189 35.7809 9.65225 35.805 8.23421C35.8211 6.87989 36.8327 5.74864 38.2217 5.71678C39.8516 5.67694 40.8632 6.88786 40.9515 8.18641C41.0318 9.36546 39.683 10.9827 38.31 10.7357H38.318ZM38.3341 9.19019C38.8399 9.19019 39.3859 8.75203 39.3779 8.28997C39.3779 7.75621 38.9925 7.27822 38.3261 7.26229C37.8684 7.24635 37.3385 7.78011 37.3385 8.23421C37.3385 8.69627 37.8524 9.19019 38.3341 9.19816V9.19019Z" fill="white"/>
</svg>
