<svg width="230" height="88" viewBox="0 0 230 88" fill="none" xmlns="http://www.w3.org/2000/svg">
<g clip-path="url(#clip0_29_65)">
<path d="M41.6199 16.4C41.2199 15.38 40.6599 15.1 39.6499 15.1H39.1399V11.77H40.6599C43.3699 11.77 44.2099 12.34 45.1699 14.87L51.9899 32.58C52.4999 33.99 52.9499 35.91 52.9499 35.91H53.0599C53.0599 35.91 53.5099 34 54.0199 32.58L60.8399 14.87C61.7999 12.33 62.6399 11.77 65.2899 11.77H66.7599V15.1H66.2499C65.2299 15.1 64.6099 15.38 64.2699 16.4L55.0199 40.14H50.8499L41.6199 16.4Z" fill="#BCEBDC"/>
<path d="M90.37 16.34C90.37 15.55 89.92 15.1 89.13 15.1H86.76V11.77H90.76C93.18 11.77 94.2 12.79 94.2 15.21V35.57C94.2 36.42 94.65 36.81 95.44 36.81H97.81V40.14H93.81C91.39 40.14 90.37 39.13 90.37 36.7V16.34ZM90.26 0.5H93.98V5.35H90.26V0.5Z" fill="#BCEBDC"/>
<path d="M120.29 16.4C119.89 15.38 119.33 15.1 118.32 15.1H117.81V11.77H119.33C122.04 11.77 122.88 12.34 123.84 14.87L130.66 32.58C131.17 33.99 131.62 35.91 131.62 35.91H131.73C131.73 35.91 132.18 34 132.69 32.58L139.51 14.87C140.47 12.33 141.31 11.77 143.96 11.77H145.43V15.1H144.92C143.9 15.1 143.28 15.38 142.94 16.4L133.69 40.14H129.52L120.27 16.4H120.29Z" fill="#BCEBDC"/>
<path d="M182.79 21.9899H184.37V21.6499C184.37 15.7299 182.23 13.6399 177.04 13.6399C175.63 13.6399 171.51 14.0299 171.51 16.1199V17.9199H167.84V15.2099C167.84 11.2599 174.61 10.4199 177.09 10.4199C186.06 10.4199 188.2 15.2099 188.2 21.3099V34.8999C188.2 35.7499 188.65 36.1399 189.44 36.1399H191.81V39.4699H187.92C185.49 39.4699 184.54 38.3999 184.54 36.0899C184.54 34.8499 184.6 33.9999 184.6 33.9999H184.49C184.55 33.9999 182.18 40.1399 175.07 40.1399C170.33 40.1399 165.43 37.3799 165.43 31.7399C165.43 22.3199 177.89 21.9899 182.8 21.9899H182.79ZM175.68 36.8699C181.09 36.8699 184.37 31.2299 184.37 26.3299V25.0299H182.73C178.27 25.0299 169.36 25.1399 169.36 31.5199C169.36 34.1699 171.45 36.8699 175.68 36.8699Z" fill="#BCEBDC"/>
<path d="M17.8551 55.1799C21.6151 55.1799 29.9851 56.6399 29.9851 62.5699V66.7299H22.9051V64.9999C22.9051 63.1799 20.0751 62.4799 18.0351 62.4799C13.4351 62.4799 9.71511 65.4499 9.71511 71.1999C9.71511 76.3799 13.5651 80.5799 18.2151 80.5799C23.7451 80.5799 27.2451 76.5499 27.2451 76.5499L31.2751 82.2199C31.2751 82.2199 26.4951 87.8899 18.0851 87.8899C8.08511 87.8899 1.48511 80.7199 1.48511 71.1999C1.48511 61.6799 8.43511 55.1799 17.8651 55.1799H17.8551Z" fill="#B2FFE1"/>
<path d="M36.1849 62.35H33.3049V55.71H48.0949C54.2449 55.71 58.5449 59.3 58.5449 65.67C58.5449 72.04 53.8949 73.9 53.8949 73.9V73.99C53.8949 73.99 55.1349 74.52 55.8449 75.89L57.8349 79.7C58.3249 80.63 59.1149 80.72 60.0049 80.72H60.5349V87.36H56.1949C53.9849 87.36 52.7449 86.96 51.7249 85.01L48.0049 77.88C47.4749 76.91 46.8049 76.68 45.1749 76.68H44.1149V87.35H36.1949V62.34L36.1849 62.35ZM46.8549 70.05C49.2049 70.05 50.4449 68.68 50.4449 66.16C50.4449 63.64 49.2049 62.35 46.9949 62.35H44.1149V70.05H46.8549Z" fill="#B2FFE1"/>
<path d="M64.655 80.72H67.975V62.35H64.655V55.71H78.775V62.35H75.455V80.72H78.775V87.36H64.655V80.72Z" fill="#B2FFE1"/>
<path d="M96.485 55.1799C100.245 55.1799 108.615 56.6399 108.615 62.5699V66.7299H101.535V64.9999C101.535 63.1799 98.705 62.4799 96.665 62.4799C92.065 62.4799 88.345 65.4499 88.345 71.1999C88.345 76.3799 92.195 80.5799 96.845 80.5799C102.375 80.5799 105.875 76.5499 105.875 76.5499L109.905 82.2199C109.905 82.2199 105.125 87.8899 96.715 87.8899C86.715 87.8899 80.115 80.7199 80.115 71.1999C80.115 61.6799 87.065 55.1799 96.495 55.1799H96.485Z" fill="#B2FFE1"/>
<path d="M111.425 80.72H114.745V62.35H111.425V55.71H125.545V62.35H122.225V80.72H125.545V87.36H111.425V80.72Z" fill="#B2FFE1"/>
<path d="M130.795 63.06C130.795 62.44 130.445 62.09 129.825 62.09H127.925V55.45H135.495C137.755 55.45 138.725 56.42 138.725 58.68V75.2399C138.725 78.5599 140.805 80.33 143.815 80.33C146.825 80.33 148.905 78.5599 148.905 75.2399V58.68C148.905 56.42 149.875 55.45 152.135 55.45H159.705V62.09H157.805C157.185 62.09 156.835 62.44 156.835 63.06V75.4499C156.835 82.5799 151.705 87.62 143.865 87.62C136.025 87.62 130.805 82.5699 130.805 75.4499V63.06H130.795Z" fill="#B2FFE1"/>
<path d="M159.255 80.72H160.365C160.985 80.72 161.295 80.37 161.335 79.75L163.285 55.71H171.565L176.615 68.19C177.415 70.18 178.205 72.75 178.205 72.75H178.295C178.295 72.75 179.095 70.18 179.885 68.19L184.935 55.71H193.215L195.165 79.75C195.205 80.37 195.515 80.72 196.135 80.72H197.245V87.36H190.695C188.435 87.36 187.645 86.39 187.465 84.13L186.755 73.99C186.575 71.6 186.755 68.68 186.755 68.68H186.665C186.665 68.68 185.735 72.04 184.895 73.99L181.355 82.27H175.155L171.615 73.99C170.775 72.04 169.845 68.68 169.845 68.68H169.755C169.755 68.68 169.935 71.6 169.755 73.99L169.045 84.13C168.865 86.39 168.075 87.36 165.815 87.36H159.265V80.72H159.255Z" fill="#B2FFE1"/>
<path d="M199.895 80.72H200.735C201.445 80.72 201.665 80.5 201.935 79.75L210.565 55.71H218.795L227.425 79.75C227.695 80.5 227.915 80.72 228.625 80.72H229.465V87.36H224.375C222.165 87.36 221.275 86.7 220.655 84.79L219.285 80.72H210.075L208.705 84.79C208.085 86.69 207.195 87.36 204.985 87.36H199.895V80.72ZM217.605 74.3L216.015 69.03C215.395 67.04 214.735 63.81 214.735 63.81H214.645C214.645 63.81 213.985 67.04 213.365 69.03L211.775 74.3H217.615H217.605Z" fill="#B2FFE1"/>
<path d="M148.355 56.3299V50.1399L139.575 51.0799V57.2699L148.355 56.3299Z" fill="#B2FFE1"/>
</g>
<defs>
<clipPath id="clip0_29_65">
<rect width="229.05" height="87.39" fill="white" transform="translate(0.949951 0.5)"/>
</clipPath>
</defs>
</svg>
