<svg width="47" height="45" viewBox="0 0 47 45" fill="none" xmlns="http://www.w3.org/2000/svg">
<path d="M17.3324 31.091C17.5123 30.5091 17.7625 29.9582 18.349 29.6789C18.6305 29.547 18.9433 29.4073 19.2483 29.4073C21.7193 29.384 24.1825 29.3452 26.6535 29.4073C27.9515 29.4383 28.6866 30.2608 28.6944 31.6652C28.7179 35.3817 28.6944 39.0982 28.6944 42.8148V43.1872C28.7882 43.1872 28.8586 43.2027 28.9368 43.2027C33.3315 43.2027 37.7261 43.2027 42.1208 43.2027C42.199 43.2027 42.2693 43.195 42.3475 43.1872C42.371 43.1639 42.3945 43.1329 42.4179 43.1096C42.4179 42.3337 42.4257 41.5578 42.4257 40.7819C42.4257 31.7272 42.4257 22.6725 42.4257 13.6178C42.4257 13.4394 42.4179 13.2609 42.4101 13.0825C42.3866 13.0592 42.3632 13.0437 42.3397 13.0204C41.0104 13.0204 39.6732 13.0204 38.3439 12.9971C37.6479 12.9894 37.3195 12.6014 37.382 11.9186C37.4211 11.4841 37.7418 11.3212 38.1015 11.2048H38.1953C39.9704 11.2048 41.7454 11.2048 43.5205 11.1893C44.0522 11.1893 44.3337 10.941 44.3415 10.4832C44.3415 10.0332 44.0757 9.76164 43.5987 9.74612C43.106 9.73836 42.6056 9.74612 42.1051 9.74612C37.7887 9.74612 33.4644 9.74612 29.1479 9.73836C28.7961 9.73836 28.6006 9.84699 28.4442 10.1418C28.2643 10.491 28.0454 10.8169 27.803 11.2126C28.9681 11.2126 30.1019 11.2126 31.2358 11.2126C31.2984 11.2358 31.3609 11.2591 31.4235 11.2824C31.9161 11.4996 32.1351 11.8566 32.049 12.3066C31.9708 12.71 31.6033 12.9971 31.095 13.0049C29.5155 13.0126 27.9437 13.0126 26.3641 13.0204C26.325 13.0359 26.2938 13.0514 26.2547 13.067C25.5196 13.6023 24.808 14.161 24.0495 14.6575C23.5256 14.9989 22.9235 14.9757 22.3839 14.642C21.8678 14.3239 21.3752 13.9592 20.8904 13.5946C20.6792 13.4394 20.4838 13.2532 20.2883 13.0747C20.257 13.0514 20.2335 13.0359 20.2022 13.0126C16.5035 13.0126 12.797 13.0049 9.09833 13.0049C7.35454 13.0049 5.61075 13.0126 3.85915 13.0204C3.83569 13.0437 3.81223 13.0592 3.78877 13.0825C3.78877 15.255 3.77313 17.4352 3.77313 19.6078C3.77313 21.4389 3.77313 23.2777 3.77313 25.1088C3.77313 25.6209 3.55418 25.9391 3.10846 26.0787C2.56891 26.2572 2.23266 26.0942 2.02935 25.5511C2.00589 25.489 1.99025 25.4192 1.96679 25.3571C1.96679 24.1002 1.95115 22.851 1.95115 21.594C1.95115 18.8862 1.95115 16.1861 1.95115 13.4782C1.95115 13.1368 1.8886 12.9428 1.52889 12.7954C0.551433 12.3764 0.0431543 11.6548 0.0196953 10.5375C-0.0037637 9.39697 0.481055 8.63659 1.45069 8.17106C1.83386 7.9926 2.30304 7.95381 2.74094 7.93829C3.91389 7.90725 5.08684 7.92277 6.26761 7.92277C6.29888 7.89949 6.32234 7.88397 6.35362 7.8607C6.35362 6.54943 6.35362 5.23041 6.36926 3.91915C6.36926 3.35275 6.68987 3.01911 7.2607 3.00359C8.07395 2.98032 8.88719 3.00359 9.70044 3.00359C11.6554 3.00359 13.6181 3.00359 15.573 3.00359C16.0109 3.00359 16.3863 2.94152 16.7929 2.72427C17.6061 2.28977 18.4819 1.96389 19.3264 1.59922C20.4525 1.11041 21.5941 0.644872 22.7045 0.117263C23.2285 -0.131023 23.6429 0.0629508 24.0808 0.256925C26.0983 1.1492 28.1157 2.057 30.1332 2.94928C30.2583 3.00359 30.4225 2.99583 30.5711 2.99583C33.2533 2.99583 35.9276 3.01135 38.6097 2.98808C39.3526 2.98808 39.8374 3.29067 39.8218 4.19071C39.7983 5.41663 39.8218 6.64254 39.8218 7.8607C39.8531 7.88397 39.8765 7.89949 39.9078 7.92277C41.2293 7.93829 42.5587 7.89949 43.8802 7.97708C45.1157 8.04691 46.1401 9.12541 46.1557 10.3746C46.1792 11.6471 45.4128 12.5626 44.2399 12.9428V43.2027C44.584 43.2027 44.928 43.2027 45.2643 43.2027C45.7804 43.2105 46.2261 43.645 46.2183 44.1105C46.2104 44.5605 45.7647 44.9795 45.2799 44.995C45.1861 44.995 45.1001 44.995 45.0062 44.995C30.3834 44.995 15.7529 44.995 1.13009 44.995C0.918957 44.995 0.700006 45.0183 0.504514 44.964C0.0900722 44.8554 -0.0897795 44.3821 0.0431548 43.7226C0.113532 43.3579 0.402859 43.2105 0.762563 43.2027C0.958055 43.2027 1.15355 43.2027 1.34904 43.2027C1.52889 43.2027 1.70874 43.2027 1.93551 43.2027C1.93551 43.0243 1.93551 42.8613 1.93551 42.7062C1.93551 39.3853 1.93551 36.0722 1.93551 32.7514C1.93551 32.5885 1.95115 32.4255 1.95897 32.2626C1.98243 32.2005 1.99807 32.1385 2.02153 32.0764C2.2483 31.5876 2.54545 31.4246 3.085 31.5565C3.47599 31.6574 3.7184 31.929 3.74968 32.3402C3.76531 32.5031 3.7575 32.6661 3.7575 32.829C3.7575 36.2585 3.75749 39.6802 3.76531 43.1096C3.78877 43.1329 3.81223 43.1639 3.83569 43.1872C6.39272 43.1872 8.94975 43.2027 11.5068 43.2027C13.4304 43.2027 15.3619 43.2027 17.2855 43.2027C17.3012 43.1717 17.309 43.1407 17.3246 43.1174C17.3246 39.2379 17.3246 35.3507 17.3246 31.4712C17.3246 31.4402 17.3246 31.4014 17.3246 31.3703C17.3246 31.316 17.3324 31.2617 17.3403 31.1996C17.3403 31.1686 17.3246 31.1298 17.3168 31.0988L17.3324 31.091ZM17.8485 9.76164C17.8485 9.76164 17.7938 9.73836 17.7625 9.73061C15.0256 9.73061 12.2809 9.73836 9.54405 9.74612C7.22943 9.74612 4.90699 9.74612 2.59236 9.74612C1.87296 9.74612 1.59927 10.2505 1.92769 10.8789C2.09191 11.1893 2.35778 11.1893 2.63928 11.1893C7.87846 11.1893 13.1176 11.1893 18.3568 11.1893H18.7009C18.3959 10.6772 18.1222 10.2194 17.8485 9.76164ZM37.906 7.92277C37.906 7.92277 37.9685 7.88397 37.9998 7.8607C37.9998 6.85203 37.9998 5.84337 37.9998 4.82695C37.9685 4.81919 37.9451 4.80367 37.9138 4.79591C35.5053 4.79591 33.1047 4.81143 30.6962 4.79591C30.3678 4.79591 30.2896 4.9123 30.2192 5.21489C30.0159 6.09941 29.7579 6.97618 29.5233 7.85294C29.5546 7.87622 29.5858 7.89173 29.6171 7.91501C32.3775 7.91501 35.1456 7.91501 37.906 7.91501V7.92277ZM16.8476 7.92277C16.8476 7.92277 16.9102 7.88397 16.9414 7.8607C16.6678 6.85979 16.4019 5.85889 16.1126 4.79591H8.27726C8.27726 4.79591 8.22252 4.81919 8.19124 4.82695C8.19124 5.83561 8.19124 6.84427 8.19124 7.8607L8.28508 7.92277C11.1393 7.92277 13.9934 7.92277 16.8476 7.92277ZM19.2013 31.3626C19.2013 31.3626 19.1935 31.4324 19.1857 31.4712C19.1857 35.3507 19.1857 39.2301 19.1857 43.1096C19.2013 43.1407 19.217 43.1717 19.2326 43.2027C21.7584 43.2027 24.2841 43.2027 26.8099 43.2027C26.8333 43.1794 26.8568 43.1484 26.8802 43.1251C26.8802 39.3 26.8802 35.4826 26.8959 31.6574C26.8959 31.316 26.7395 31.1919 26.3954 31.1919C24.1355 31.1996 21.8835 31.1919 19.6236 31.1996C19.4828 31.1996 19.3421 31.3082 19.2013 31.3703V31.3626ZM17.9267 4.18295C18.0909 4.94333 18.1926 5.69595 18.4115 6.40977C19.1544 8.79177 20.3899 10.8789 22.3683 12.4618C23.2285 13.1523 23.1894 13.2066 24.0417 12.5238C24.4718 12.1824 24.8784 11.8022 25.2537 11.4065C26.1217 10.5065 26.802 9.45904 27.3494 8.34175C27.9124 7.18567 28.2956 5.98303 28.4676 4.69505C28.5302 4.22951 28.4051 4.10536 28.061 3.95794C26.5831 3.32171 25.1208 2.6622 23.6351 2.04148C23.4161 1.94838 23.0955 1.94062 22.8844 2.02597C21.2657 2.70099 19.6549 3.41482 17.9189 4.16744L17.9267 4.18295Z" fill="white"/>
<path d="M14.6091 38.5554C14.5152 39.0132 14.2103 39.2537 13.7724 39.2615C11.5907 39.277 9.409 39.2615 7.22731 39.2615C6.79723 39.2615 6.56264 39.0055 6.46881 38.6175C6.42189 38.4313 6.41407 38.2373 6.41407 38.0433C6.41407 34.6061 6.42189 31.1767 6.40625 27.7395C6.40625 26.948 6.7425 26.4903 7.64176 26.5135C9.62795 26.5601 11.6141 26.5291 13.6003 26.5291C14.179 26.5291 14.5074 26.7618 14.6169 27.2351C14.6404 27.2972 14.656 27.367 14.6795 27.4291C14.6795 31.1068 14.6795 34.7846 14.6795 38.4546C14.6638 38.4934 14.6404 38.5244 14.6247 38.5632L14.6091 38.5554ZM8.28297 33.7914C8.28297 33.7914 8.25951 33.8458 8.25169 33.869C8.25169 35.0329 8.25169 36.2045 8.25169 37.3683C8.25951 37.3994 8.27515 37.4304 8.28297 37.4537C9.78434 37.4537 11.2857 37.4537 12.7871 37.4537C12.8106 37.4226 12.8262 37.3916 12.8497 37.3606V33.8923C12.8497 33.8923 12.8027 33.838 12.7871 33.807C11.317 33.807 9.83908 33.807 8.36899 33.807C8.34553 33.7914 8.31425 33.7837 8.29079 33.7992L8.28297 33.7914ZM12.7871 31.9758C12.7871 31.9758 12.8262 31.9138 12.8497 31.8827V28.4145C12.8497 28.4145 12.8106 28.3524 12.7871 28.3214C11.2857 28.3214 9.78434 28.3214 8.28297 28.3214C8.27515 28.3524 8.25951 28.3835 8.25169 28.4067V31.8983C8.25169 31.8983 8.27515 31.9603 8.28297 31.9836C9.78434 31.9836 11.2857 31.9836 12.7871 31.9836V31.9758Z" fill="white"/>
<path d="M31.0587 27.0565C31.1603 26.6685 31.4418 26.5211 31.8172 26.5211C33.9676 26.5211 36.1258 26.4978 38.2762 26.5211C39.0034 26.5288 39.2302 26.9944 39.2302 27.553C39.2224 28.9884 39.2302 30.4238 39.2302 31.8592C39.2302 33.9386 39.2302 36.0103 39.2302 38.0897C39.2302 38.9742 38.9409 39.269 38.0573 39.269C36.0398 39.269 34.0223 39.269 32.0048 39.269C31.5826 39.269 31.1994 39.1992 31.0665 38.7182C31.043 38.6561 31.0274 38.594 31.0039 38.5397C30.9961 38.3768 30.9805 38.2138 30.9805 38.0509C30.9805 34.6059 30.9805 31.1687 30.9805 27.7237C30.9805 27.5608 30.9961 27.3978 31.0039 27.2349C31.0274 27.1728 31.043 27.1185 31.0665 27.0565H31.0587ZM32.8024 37.3681C32.8024 37.3681 32.8494 37.4224 32.8728 37.4457H37.377V33.8688C37.377 33.8688 37.3222 33.8223 37.2988 33.799C35.8208 33.799 34.3507 33.799 32.8728 33.799C32.8494 33.8223 32.8259 33.8455 32.8024 33.8688C32.8024 35.0327 32.8024 36.1965 32.8024 37.3603V37.3681ZM32.8728 28.3289C32.8728 28.3289 32.8259 28.3832 32.8024 28.4065V31.898C32.8024 31.898 32.8494 31.9524 32.8728 31.9756H37.377V28.3289C35.8678 28.3289 34.3664 28.3289 32.8728 28.3289Z" fill="white"/>
<path d="M34.7743 11.2744C35.4077 11.2744 35.6814 11.546 35.6735 12.1434C35.6735 12.6555 35.306 12.9814 34.7508 12.9814C34.1956 12.9814 33.8672 12.64 33.8672 12.0658C33.8672 11.4917 34.1252 11.2744 34.7743 11.2744Z" fill="white"/>
<path d="M2.82502 27.9561C3.40368 27.9561 3.76338 28.2897 3.76338 28.8173C3.76338 29.3837 3.31766 29.663 2.78592 29.7406C2.41058 29.7949 1.95704 29.2673 1.94922 28.8251C1.94922 28.2897 2.27765 27.9561 2.8172 27.9561H2.82502Z" fill="white"/>
<path d="M6.28125 17.777C6.28125 17.4588 6.44546 17.2959 6.76607 17.2959H8.8852C9.19016 17.2959 9.46385 17.3502 9.71408 17.4511C9.96431 17.5519 10.1754 17.6994 10.3553 17.8933C10.5351 18.0873 10.6681 18.3123 10.7697 18.5684C10.8714 18.8322 10.9183 19.1193 10.9183 19.4296C10.9183 19.74 10.8714 20.0271 10.7697 20.2909C10.6681 20.5547 10.5351 20.7797 10.3553 20.9736C10.1754 21.1676 9.96431 21.315 9.71408 21.4237C9.46385 21.5323 9.18235 21.5866 8.8852 21.5866H7.8139V23.0298C7.8139 23.3479 7.64969 23.5108 7.3369 23.5108H6.76607C6.44546 23.5108 6.28125 23.3479 6.28125 23.0298V17.777ZM8.56459 20.2831C8.83046 20.2831 9.03377 20.2055 9.16671 20.0426C9.29964 19.8796 9.3622 19.6779 9.3622 19.4296C9.3622 19.1813 9.29964 18.9796 9.16671 18.8244C9.04159 18.6692 8.8461 18.5916 8.58805 18.5916H7.80608V20.2753H8.55677L8.56459 20.2831Z" fill="white"/>
<path d="M11.3477 20.3599C11.3477 19.9177 11.4259 19.4987 11.5822 19.1107C11.7386 18.7228 11.9654 18.3892 12.2547 18.1021C12.5441 17.815 12.8881 17.59 13.2948 17.4271C13.6936 17.2641 14.1393 17.1865 14.6241 17.1865C15.1089 17.1865 15.5546 17.2641 15.9534 17.4271C16.3522 17.59 16.7041 17.815 16.9935 18.1021C17.2828 18.3892 17.5017 18.7228 17.6659 19.1107C17.8223 19.4987 17.9005 19.9099 17.9005 20.3599C17.9005 20.81 17.8223 21.2445 17.6659 21.6324C17.5096 22.0281 17.2828 22.3695 16.9935 22.6643C16.7041 22.9592 16.3601 23.1842 15.9534 23.3549C15.5546 23.5256 15.1089 23.6032 14.6241 23.6032C14.1393 23.6032 13.6936 23.5178 13.2948 23.3549C12.8881 23.1842 12.5441 22.9592 12.2547 22.6643C11.9654 22.3695 11.7465 22.0281 11.5822 21.6324C11.4259 21.2367 11.3477 20.81 11.3477 20.3599ZM12.9272 20.3599C12.9272 20.6237 12.9663 20.872 13.0523 21.097C13.1384 21.322 13.2557 21.516 13.4042 21.6867C13.5528 21.8497 13.7327 21.9816 13.936 22.0747C14.1393 22.1678 14.366 22.2143 14.6163 22.2143C14.8665 22.2143 15.0855 22.1678 15.2966 22.0747C15.4999 21.9816 15.6798 21.8497 15.8283 21.6867C15.9769 21.5238 16.0942 21.3298 16.1802 21.097C16.2662 20.872 16.3053 20.6237 16.3053 20.3599C16.3053 20.0961 16.2662 19.8711 16.1802 19.6539C16.0942 19.4366 15.9769 19.2504 15.8283 19.0875C15.6798 18.9245 15.4999 18.8004 15.2966 18.715C15.0933 18.6219 14.8665 18.5831 14.6163 18.5831C14.366 18.5831 14.1471 18.6297 13.936 18.715C13.7327 18.8081 13.5528 18.9323 13.4042 19.0875C13.2557 19.2426 13.1384 19.4366 13.0523 19.6539C12.9663 19.8711 12.9272 20.1039 12.9272 20.3599Z" fill="white"/>
<path d="M18.7773 17.777C18.7773 17.4588 18.9416 17.2959 19.2622 17.2959H19.833C20.1536 17.2959 20.31 17.4588 20.31 17.777V22.2073H22.3822C22.7028 22.2073 22.867 22.3703 22.867 22.6884V23.0375C22.867 23.3556 22.7028 23.5186 22.3822 23.5186H19.2622C18.9416 23.5186 18.7773 23.3556 18.7773 23.0375V17.7847V17.777Z" fill="white"/>
<path d="M23.4766 17.7769C23.4766 17.4588 23.6408 17.2959 23.9614 17.2959H24.5322C24.8528 17.2959 25.0092 17.4588 25.0092 17.7769V23.0298C25.0092 23.3479 24.845 23.5108 24.5322 23.5108H23.9614C23.6408 23.5108 23.4766 23.3479 23.4766 23.0298V17.7769ZM23.8519 16.745C23.7972 16.6441 23.8128 16.52 23.8988 16.3726L24.1412 15.9381C24.2663 15.7131 24.4618 15.5967 24.7121 15.5967H25.1109C25.3142 15.5967 25.4393 15.651 25.4862 15.7674C25.5331 15.8838 25.4862 16.0157 25.3611 16.1786L25.017 16.6131C24.8685 16.8071 24.673 16.9002 24.4306 16.9002H24.1803C24.0161 16.9002 23.9066 16.8459 23.8597 16.745H23.8519Z" fill="white"/>
<path d="M25.8906 20.3901C25.8906 19.9401 25.9688 19.5211 26.133 19.1332C26.2973 18.7452 26.5162 18.4116 26.8055 18.1245C27.0949 17.8374 27.4389 17.6124 27.8456 17.4495C28.2444 17.2865 28.6901 17.2012 29.1749 17.2012C29.4173 17.2012 29.6363 17.2167 29.8396 17.2555C30.0429 17.2943 30.2306 17.3408 30.4026 17.3951C30.5746 17.4495 30.7232 17.5193 30.8483 17.5891C30.9734 17.659 31.0907 17.7288 31.1767 17.7909C31.3018 17.8762 31.3644 17.9771 31.38 18.0935C31.3957 18.2098 31.3644 18.3262 31.2784 18.4504L31.0594 18.8073C30.9812 18.9392 30.8796 19.0168 30.7701 19.0323C30.6606 19.0478 30.5355 19.0168 30.4026 18.9392C30.254 18.8616 30.082 18.784 29.8865 18.7064C29.691 18.6288 29.472 18.59 29.2375 18.59C28.9247 18.59 28.651 18.6443 28.432 18.7452C28.2131 18.8461 28.0254 18.978 27.8847 19.1409C27.7439 19.3038 27.6344 19.4901 27.5719 19.7073C27.5015 19.9168 27.4702 20.1341 27.4702 20.3591C27.4702 20.5841 27.5015 20.8168 27.5719 21.0419C27.6422 21.2669 27.7517 21.4608 27.8925 21.6393C28.041 21.8177 28.2209 21.9574 28.4398 22.066C28.6588 22.1747 28.9247 22.229 29.2296 22.229C29.4955 22.229 29.7301 22.1824 29.949 22.0893C30.168 21.9962 30.3557 21.8953 30.5042 21.7867C30.7779 21.5927 31.0047 21.6238 31.1767 21.8721L31.4191 22.2135C31.4973 22.3376 31.5364 22.454 31.5286 22.5704C31.5208 22.6868 31.4582 22.7876 31.3409 22.8807C31.2393 22.9583 31.122 23.0359 30.9812 23.1213C30.8405 23.2066 30.6763 23.2842 30.4964 23.3618C30.3087 23.4316 30.1054 23.4937 29.8865 23.548C29.6597 23.5945 29.4173 23.6256 29.1593 23.6256C28.6588 23.6256 28.2053 23.548 27.7986 23.3851C27.392 23.2221 27.0479 22.9971 26.7586 22.71C26.4693 22.4229 26.2503 22.0816 26.1018 21.6936C25.9532 21.3057 25.875 20.8789 25.875 20.4134L25.8906 20.3901Z" fill="white"/>
<path d="M32.3398 17.777C32.3398 17.4588 32.5041 17.2959 32.8247 17.2959H33.3955C33.7161 17.2959 33.8725 17.4588 33.8725 17.777V23.0298C33.8725 23.3479 33.7083 23.5108 33.3955 23.5108H32.8247C32.5041 23.5108 32.3398 23.3479 32.3398 23.0298V17.777Z" fill="white"/>
<path d="M36.397 17.6917C36.483 17.4279 36.6628 17.3037 36.9365 17.3037H37.7263C38 17.3037 38.1799 17.4356 38.2659 17.6917L40.08 22.96C40.1348 23.1307 40.1269 23.2626 40.0566 23.3557C39.9862 23.4566 39.8611 23.5031 39.6812 23.5031H39.1026C38.8289 23.5031 38.649 23.3712 38.563 23.1074L38.2971 22.2074H36.35L36.0842 23.1074C36.006 23.3712 35.834 23.5031 35.5524 23.5031H34.9738C34.8018 23.5031 34.6766 23.4566 34.5984 23.3557C34.5281 23.2548 34.5202 23.1229 34.575 22.96L36.3891 17.6917H36.397ZM37.9453 20.9892L37.5934 19.7788C37.5621 19.678 37.5386 19.5693 37.5074 19.4452C37.4839 19.321 37.4526 19.2047 37.4213 19.096C37.3901 18.9719 37.3666 18.84 37.3353 18.7081H37.3197C37.2884 18.84 37.265 18.9719 37.2337 19.096C37.2024 19.2047 37.1789 19.321 37.1477 19.4452C37.1242 19.5693 37.0929 19.678 37.0616 19.7788L36.7019 20.9892H37.9374H37.9453Z" fill="white"/>
</svg>
