<svg width="49" height="45" viewBox="0 0 49 45" fill="none" xmlns="http://www.w3.org/2000/svg">
<path d="M48.5841 23.1539C48.5841 23.7379 47.8962 23.881 47.4662 23.9571C45.8238 24.2277 44.1814 24.456 42.6164 24.6843C42.4703 25.3946 43.0034 25.5637 43.4333 25.8681C44.8608 26.8996 45.9012 28.1933 46.0818 30.0028C46.1936 31.0935 46.2452 32.1927 46.4086 33.275C46.8385 36.1667 46.6321 39.0754 46.6579 41.9756C46.6665 43.5652 45.841 44.5968 44.1986 44.9688C44.1642 44.9688 44.1299 44.9688 44.0955 44.9688C42.2811 44.9688 40.4581 44.9688 38.6437 44.9688C38.5749 44.9688 38.5061 44.9688 38.4373 44.9688C36.8637 44.6221 35.9608 43.4891 36.021 41.3161H12.4513C12.5889 43.1171 12.0213 44.5038 10.0436 44.9688C10.0092 44.9688 9.97479 44.9688 9.9404 44.9688C8.09162 44.9688 6.23424 44.9688 4.38547 44.9688C4.35107 44.9688 4.31668 44.9688 4.28228 44.9688C3.06123 44.7743 1.87457 43.6582 1.90897 42.0179C1.95196 39.8195 1.92617 37.6211 1.92617 35.4311C1.99496 34.7801 2.01216 33.9937 2.08955 33.3426C2.26153 31.8629 2.18414 30.341 2.68288 28.912C3.15582 27.5591 4.00711 26.4599 5.23677 25.699C5.62372 25.4622 5.99347 25.3016 5.86449 24.6843C5.35715 24.5998 4.74663 24.4898 4.1361 24.3968C2.95804 24.2193 1.77139 24.0671 0.601928 23.8557C0.232173 23.788 0 23.4921 0 23.0778C0 21.9448 0 20.8117 0 19.6787C0 19.2052 0.25797 18.9769 0.705116 18.8924C0.75671 18.8924 0.808303 18.8754 0.851298 18.867C2.65708 18.867 5.69699 18.8754 6.27724 18.8754C6.85749 18.8754 6.85749 19.1644 7.11134 19.4673C7.4381 17.531 7.78206 15.5525 9.49325 14.1658C11.2302 12.7622 13.2854 12.9144 15.4007 12.9651C15.4007 12.4578 15.4007 11.9674 15.4007 11.477C15.4007 10.5046 15.6673 10.234 16.639 10.234C17.7912 10.234 18.9349 10.2256 20.0872 10.2171V9.54206C20.0872 8.83227 20.0872 8.51758 20.7321 8.51758C23.0796 8.51758 25.4185 8.51758 27.766 8.51758C28.3938 8.51758 28.3938 8.83227 28.3938 9.4054C28.3938 9.4054 28.3938 9.90426 28.411 10.1579C28.4454 10.1748 28.4798 10.2002 28.5141 10.2171C29.6664 10.2171 30.8187 10.2256 31.9709 10.234C32.8394 10.234 33.106 10.5131 33.106 11.367C33.106 11.8659 33.106 12.3648 33.106 12.8637C33.106 12.8806 33.1232 12.889 33.1662 12.9482C33.9315 12.9482 34.7226 12.9228 35.5223 12.9482C38.0074 13.0412 40.0883 14.4025 40.8794 16.8461C41.1116 17.5733 41.2148 18.3343 41.3782 19.0868C41.4126 19.2306 41.4556 19.3659 41.5244 19.5942C41.7221 19.0107 42.1177 18.8501 42.625 18.8501C44.3362 18.8501 47.1539 18.8585 47.7586 18.8585C48.3634 18.8585 48.6013 19.2306 48.5841 19.6533C48.5583 19.6111 48.6099 19.6956 48.5841 19.6533C48.5841 20.8202 48.5841 22.5699 48.5841 23.1539ZM43.2442 20.5496C43.2012 21.3021 43.1496 22.0547 43.098 22.9002C44.405 22.6973 45.6089 22.5113 46.7611 22.3337C46.8127 21.6996 46.8643 21.1415 46.9073 20.5834C46.8729 20.5665 46.8385 20.5496 46.8041 20.5327C45.6605 20.5327 44.5168 20.5327 43.3645 20.5327C43.3215 20.5327 43.2786 20.5412 43.2442 20.5496ZM5.31416 20.5834C4.1017 20.5834 2.88065 20.5834 1.6682 20.5834C1.6682 20.9893 1.6682 20.5834 1.651 21.8095C1.651 22.3183 1.651 22.3183 2.25293 22.4352C2.25293 22.4352 4.57465 22.7903 5.31416 22.8918V20.5834ZM21.9875 10.1326L21.8843 10.1748V12.9228H26.6912V10.1748C26.6912 10.1748 26.6224 10.141 26.5794 10.1326H21.9875ZM29.8298 37.9847C29.8298 37.9847 29.7696 37.9255 29.7438 37.9001C26.0806 37.9001 22.4089 37.9001 18.7457 37.9001C18.7199 37.9255 18.6855 37.9508 18.6597 37.9847C18.6597 38.5004 18.6597 39.0078 18.6597 39.5235C18.6941 39.5489 18.7199 39.5743 18.7543 39.5996H29.7438C29.7438 39.5996 29.804 39.5489 29.8384 39.5235C29.8384 39.0078 29.8384 38.5004 29.8384 37.9847H29.8298ZM27.1297 24.8196H33.2006C34.2153 24.8196 35.2385 24.8196 36.2532 24.828C37.2593 24.828 38.2654 24.828 39.2714 24.828C39.3144 24.828 39.3488 24.8111 39.3918 24.8111H40.8708C40.8193 24.5913 40.7763 24.4306 40.7419 24.2615C40.2861 22.1308 39.8046 20.0085 39.3918 17.8693C39.0307 16.0175 37.3539 14.7323 35.8233 14.6816C35.7803 14.6731 35.7373 14.6647 35.6943 14.6562C31.1626 14.6562 26.631 14.6477 22.0993 14.6477C18.9951 14.6477 15.8909 14.6477 12.7867 14.6562C12.7437 14.6647 12.7007 14.6731 12.6577 14.6816C10.9207 14.8169 9.58784 15.933 9.12349 17.8777C8.58176 20.1353 8.15181 22.4098 7.66167 24.752C7.85945 24.7689 8.02283 24.7858 8.17761 24.7858C10.2672 24.7858 12.3653 24.7858 14.4548 24.7858C18.6425 24.7858 22.8302 24.8027 27.0179 24.8111C27.0523 24.8111 27.0953 24.8111 27.1297 24.8111V24.8196ZM31.6098 39.5235C31.6098 39.5235 31.6442 39.5827 31.6614 39.6166C34.284 39.6166 36.8981 39.6166 39.5208 39.6166C40.1829 39.6166 40.5613 39.9294 40.5441 40.4367C40.5269 40.9356 40.1055 41.2738 39.4864 41.2823C38.9361 41.2823 38.3857 41.2823 37.8182 41.2823C37.8182 41.5867 37.8526 41.8319 37.8182 42.0686C37.6892 42.7873 38.3857 43.3707 39.1081 43.3454C40.6043 43.2947 42.1091 43.3285 43.6139 43.3285C44.5168 43.3285 44.9639 42.8888 44.9639 41.9925C44.9639 39.8787 44.9639 37.7733 44.9639 35.6594C44.9639 35.4903 44.964 35.3128 44.9468 35.1436C44.8092 33.6978 44.663 32.2604 44.5426 30.8145C44.4222 29.4532 43.8461 28.3455 42.7626 27.4746C42.0833 26.9334 41.275 26.7221 40.4495 26.536C40.4151 26.536 40.3721 26.536 40.3377 26.536C40.2689 26.536 40.2087 26.536 40.1399 26.536C39.968 26.5107 39.8046 26.4599 39.6326 26.4599C29.3654 26.4599 19.0983 26.4599 8.83113 26.4599C8.60756 26.4599 8.39258 26.5191 8.16901 26.5445C7.00815 26.6713 6.01067 27.1448 5.21957 27.9819C4.42846 28.8275 4.1017 29.8928 3.98992 31.0089C3.84373 32.5056 3.75775 34.0191 3.64596 35.5241C3.64596 37.7056 3.64596 39.9886 3.66316 42.1701C3.66316 42.7704 3.94692 43.2608 4.49726 43.2777C6.28584 43.3369 8.07442 43.3623 9.86301 43.2777C10.6627 43.2355 10.9809 42.3561 10.7315 41.2992C10.121 41.2992 9.51905 41.2992 8.90852 41.2992C8.38398 41.2907 8.07442 40.9779 8.08302 40.479C8.08302 39.9294 8.39258 39.6419 9.00311 39.6419C11.6602 39.6419 14.3087 39.6419 16.9657 39.6419C16.9829 39.6081 17.0001 39.5827 17.0173 39.5489C17.0173 38.7626 17.0173 37.9762 17.0173 37.1898C17.0345 37.0799 17.0603 36.97 17.0775 36.8601C17.1549 36.3781 17.4817 36.2513 17.9288 36.2513C22.1681 36.2513 26.3988 36.2513 30.6381 36.2513C31.1282 36.2513 31.4636 36.4542 31.5926 36.9362C31.6012 36.9869 31.6098 37.0377 31.6184 37.0884C31.6184 37.9086 31.6184 38.7287 31.627 39.5489L31.6098 39.5235ZM31.3948 12.9313V11.942H28.411V12.9313H31.3948ZM17.2065 11.9336V12.9228H20.0872V11.9336H17.2065Z" fill="white"/>
<path d="M14.7974 7.58509C14.8146 7.99095 14.634 8.27844 14.2815 8.33762C13.9805 8.38836 13.5506 8.39681 13.3528 8.2277C12.6219 7.602 11.9426 6.90021 11.2718 6.20686C10.9365 5.86019 10.9967 5.4036 11.3578 5.04002C11.6244 4.76944 12.1403 4.73562 12.4585 5.04002C13.1894 5.72491 13.9031 6.4267 14.6082 7.13696C14.7114 7.24688 14.7286 7.4329 14.7888 7.57664L14.7974 7.58509Z" fill="white"/>
<path d="M37.2001 5.2513C37.4034 5.49009 37.374 5.84179 37.1614 6.0723C36.5529 6.73195 35.7643 7.63778 35.2431 8.14343C34.8303 8.54083 34.3058 8.57465 33.9704 8.23644C33.6265 7.88976 33.6437 7.37399 34.0392 6.97658C34.6583 6.35088 35.2947 5.73364 35.9224 5.11639C36.2061 4.84582 36.5415 4.71053 36.8941 4.94728C36.9816 5.00786 37.094 5.12673 37.2001 5.2513Z" fill="white"/>
<path d="M23.4492 2.14842C23.4492 1.68337 23.4492 1.21833 23.4492 0.761734C23.4578 0.229044 23.6728 0.017659 24.1973 0.00074823C24.7305 -0.0161626 25.1088 0.25441 25.1174 0.727913C25.1432 1.68337 25.1432 2.64729 25.1174 3.6112C25.1088 4.03397 24.6273 4.43983 24.2231 4.43138C23.7674 4.42292 23.4578 4.07625 23.4492 3.53511C23.4492 3.07006 23.4492 2.60501 23.4492 2.14842Z" fill="white"/>
<path d="M0.826053 18.8906C0.774395 18.8906 0.722736 18.9078 0.679688 18.9165C0.731346 18.9165 0.783005 18.8992 0.826053 18.8906Z" fill="white"/>
<path d="M28.4985 10.2491C28.4985 10.2491 28.4292 10.2065 28.3945 10.1895C28.4292 10.2065 28.4638 10.2321 28.4985 10.2491Z" fill="white"/>
<path d="M39.2617 24.8688C39.2617 24.8688 39.3392 24.8516 39.3823 24.8516C39.3392 24.8516 39.3048 24.8688 39.2617 24.8688Z" fill="white"/>
<path d="M46.9087 20.6243C46.9087 20.6243 46.8393 20.5896 46.8047 20.5723C46.8393 20.5896 46.874 20.6069 46.9087 20.6243Z" fill="white"/>
<path d="M43.3627 20.5723C43.3627 20.5723 43.2766 20.5809 43.2422 20.5895C43.2852 20.5895 43.3283 20.5809 43.3627 20.5723Z" fill="white"/>
<path d="M18.739 37.9404C18.739 37.9404 18.6783 37.9916 18.6523 38.0256C18.6783 38.0001 18.713 37.9745 18.739 37.9404Z" fill="white"/>
<path d="M29.821 38.0256C29.821 38.0256 29.7604 37.966 29.7344 37.9404C29.7604 37.966 29.795 38.0001 29.821 38.0256Z" fill="white"/>
<path d="M16.9297 39.6484C16.9297 39.6484 16.9643 39.5888 16.9817 39.5547C16.9643 39.5888 16.947 39.6143 16.9297 39.6484Z" fill="white"/>
<path d="M18.6406 39.5625C18.6406 39.5625 18.7013 39.6136 18.7359 39.6392C18.7013 39.6136 18.6753 39.5881 18.6406 39.5625Z" fill="white"/>
<path d="M29.7266 39.6392C29.7266 39.6392 29.7872 39.5881 29.8219 39.5625C29.7872 39.5881 29.7612 39.6136 29.7266 39.6392Z" fill="white"/>
<path d="M31.5938 39.5547C31.5938 39.5547 31.6284 39.6143 31.6457 39.6484C31.6284 39.6143 31.6111 39.5888 31.5938 39.5547Z" fill="white"/>
<path d="M26.6908 10.2162C26.6908 10.2162 26.6214 10.1815 26.5781 10.1729C26.6128 10.1902 26.6474 10.2075 26.6908 10.2162Z" fill="white"/>
<path d="M40.9665 35.2269C39.081 35.2269 36.9354 35.3176 35.0434 35.3198C34.9965 35.3199 34.9498 35.3149 34.9041 35.3042C34.0151 35.0955 33.282 34.6745 32.7287 33.9078C31.7742 32.6057 32.2558 30.6187 34.3109 30.272C36.2027 29.9591 38.0686 29.511 39.9604 29.1728C42.2391 28.7669 44.0449 30.644 43.615 32.8086C43.3398 34.1868 41.964 35.1677 40.9665 35.2269ZM35.0676 33.6119C36.9164 33.6119 38.9973 33.6119 40.8461 33.6119C41.6974 33.3244 42.1618 32.6226 41.9726 31.9039C41.7576 31.0753 41.1471 30.6609 40.3388 30.8131C38.3782 31.1852 36.4262 31.5572 34.4743 31.9546C34.1389 32.0223 33.8208 32.2506 33.9583 32.6226C34.1389 33.113 34.4571 33.5527 35.0676 33.6119Z" fill="white"/>
<path d="M13.8978 35.2929C12.0232 35.2929 10.1486 35.2929 8.27407 35.2929C8.23108 35.3014 8.18808 35.3183 8.14509 35.3267C6.63167 35.0984 5.70298 34.2783 5.37622 32.7817C5.03227 31.2005 6.20172 28.9936 8.11069 29.1712C9.19416 29.2727 10.2604 29.4756 11.3267 29.6785C12.6251 29.9237 13.915 30.2112 15.2048 30.4733C16.5119 30.7439 17.0622 32.1729 16.5291 33.3989C16.0475 34.4981 15.179 35.09 14.0268 35.3183C13.9838 35.3098 13.9408 35.3014 13.8978 35.2929ZM11.0085 33.5849C11.92 33.5849 12.8229 33.5849 13.7344 33.5849C14.2503 33.5849 14.6201 33.3228 14.9039 32.9592C15.265 32.4942 15.05 32.046 14.4567 31.9277C12.7455 31.5895 11.0343 31.2343 9.32315 30.913C8.82441 30.82 8.28267 30.7608 7.78393 30.8285C7.35398 30.8877 6.91544 31.8431 6.99283 32.3082C7.12181 33.0945 7.58616 33.5596 8.28267 33.568C9.19416 33.5765 10.0971 33.568 11.0085 33.568V33.5849Z" fill="white"/>
</svg>
