<svg width="47" height="45" viewBox="0 0 38 35" fill="none" xmlns="http://www.w3.org/2000/svg">
    <path fill="white" d="M37.4592 13.3972C37.0645 14.1499 36.8797 14.2796 36.0313 14.3835C36.0313 14.8161 36.0313 15.2573 36.0313 15.6899C36.0313 16.1052 35.8214 16.3647 35.4938 16.3734C35.1578 16.3734 34.9562 16.1311 34.9562 15.6986C34.9562 15.2573 34.9562 14.8247 34.9562 14.3489C34.7799 14.3489 34.6371 14.3489 34.5027 14.3489C31.8989 14.3489 29.2951 14.3489 26.6997 14.3489C26.1034 14.3489 25.6246 14.1412 25.2047 13.7086C23.3064 11.7447 21.4082 9.79799 19.5099 7.84267C19.4175 7.7475 19.3251 7.66098 19.216 7.55716C19.1068 7.66098 19.0144 7.75616 18.922 7.84267C17.0573 9.76338 15.1843 11.6754 13.328 13.6135C12.8493 14.1153 12.3201 14.3575 11.623 14.3489C9.0528 14.3229 6.49102 14.3402 3.92083 14.3402H3.46727C3.46727 14.4959 3.46727 14.6344 3.46727 14.7815C3.46727 18.5623 3.46727 22.3432 3.46727 26.124C3.46727 26.721 3.29928 26.9806 2.92131 26.9719C2.54335 26.9719 2.38376 26.7037 2.38376 26.1067C2.38376 22.3345 2.38376 18.571 2.38376 14.7988C2.38376 14.6517 2.38376 14.5132 2.38376 14.3489C1.8714 14.3748 1.46824 14.2104 1.18266 13.7951C0.838289 13.3106 0.855087 11.7101 1.20786 11.2255C1.46824 10.8622 1.82941 10.6978 2.25777 10.7064C2.50975 10.7151 2.60214 10.594 2.67773 10.3777C3.69405 7.53986 4.71876 4.70205 5.74348 1.8729C6.12985 0.774115 6.75979 0.324219 7.9105 0.324219C15.4447 0.324219 22.9788 0.324219 30.513 0.324219C31.6385 0.324219 32.2853 0.782767 32.6716 1.86425C33.6963 4.70205 34.7211 7.53986 35.7374 10.3777C35.8214 10.6113 35.9222 10.7237 36.1825 10.7237C36.8377 10.7237 37.224 11.1131 37.4592 11.7014V13.3885V13.3972ZM3.71085 10.7151C3.91243 10.7151 4.03842 10.7151 4.17281 10.7151C6.35663 10.7151 8.54884 10.7151 10.7327 10.7151C11.0182 10.7151 11.2198 10.6372 11.4214 10.4296C13.5296 8.24066 15.6546 6.06039 17.7713 3.88013C18.754 2.86786 19.6863 2.87651 20.669 3.88878C22.7857 6.06905 24.9023 8.24931 27.0189 10.4382C27.2121 10.6372 27.4053 10.7151 27.674 10.7151C29.8831 10.7064 32.0921 10.7151 34.3011 10.7151H34.6959C34.6539 10.568 34.6287 10.4901 34.6035 10.4123C33.6207 7.67829 32.6296 4.94431 31.6385 2.21897C31.4285 1.63065 31.185 1.44896 30.5718 1.44896C22.9956 1.44896 15.4111 1.44896 7.8349 1.44896C7.24695 1.44896 6.99497 1.63065 6.79339 2.20167C6.12985 4.01856 5.4747 5.83545 4.81956 7.65233C4.45839 8.65595 4.09722 9.65956 3.71925 10.7151H3.71085ZM7.06217 13.2501C8.52365 13.2501 9.98512 13.2328 11.4466 13.2587C11.9254 13.2587 12.2697 13.1203 12.6057 12.7742C14.5963 10.6978 16.5954 8.6473 18.6028 6.58816C19.1152 6.06039 19.2999 6.06039 19.8039 6.58816C21.8365 8.6819 23.8776 10.7757 25.9018 12.878C26.1622 13.1463 26.4477 13.2674 26.8173 13.2674C29.7067 13.2587 32.596 13.2674 35.4854 13.2674C36.5269 13.2674 36.3757 13.4145 36.4009 12.3416C36.4093 11.9696 36.3001 11.8571 35.939 11.8571C33.0748 11.8744 30.2106 11.8571 27.3465 11.8744C27.0021 11.8744 26.7417 11.7706 26.4981 11.5197C24.2975 9.23562 22.0801 6.96019 19.8711 4.68475C19.3587 4.15699 19.0648 4.15699 18.5524 4.68475C16.335 6.96884 14.1092 9.25293 11.9002 11.5457C11.6734 11.7793 11.4382 11.8831 11.1106 11.8831C8.38926 11.8744 5.66788 11.8831 2.94651 11.8831C2.01419 11.8831 2.03099 11.8831 2.01419 12.8261C2.01419 13.1809 2.11498 13.2933 2.45935 13.2933C3.99642 13.276 5.5251 13.2933 7.06217 13.2933V13.2501Z"></path>
    <path fill="white" d="M37.4592 13.3972C37.0645 14.1499 36.8797 14.2796 36.0313 14.3835C36.0313 14.8161 36.0313 15.2573 36.0313 15.6899C36.0313 16.1052 35.8214 16.3647 35.4938 16.3734C35.1578 16.3734 34.9562 16.1311 34.9562 15.6986C34.9562 15.2573 34.9562 14.8247 34.9562 14.3489C34.7799 14.3489 34.6371 14.3489 34.5027 14.3489C31.8989 14.3489 29.2951 14.3489 26.6997 14.3489C26.1034 14.3489 25.6246 14.1412 25.2047 13.7086C23.3064 11.7447 21.4082 9.79799 19.5099 7.84267C19.4175 7.7475 19.3251 7.66098 19.216 7.55716C19.1068 7.66098 19.0144 7.75616 18.922 7.84267C17.0573 9.76338 15.1843 11.6754 13.328 13.6135C12.8493 14.1153 12.3201 14.3575 11.623 14.3489C9.0528 14.3229 6.49102 14.3402 3.92083 14.3402H3.46727C3.46727 14.4959 3.46727 14.6344 3.46727 14.7815C3.46727 18.5623 3.46727 22.3432 3.46727 26.124C3.46727 26.721 3.29928 26.9806 2.92131 26.9719C2.54335 26.9719 2.38376 26.7037 2.38376 26.1067C2.38376 22.3345 2.38376 18.571 2.38376 14.7988C2.38376 14.6517 2.38376 14.5132 2.38376 14.3489C1.8714 14.3748 1.46824 14.2104 1.18266 13.7951C0.838289 13.3106 0.855087 11.7101 1.20786 11.2255C1.46824 10.8622 1.82941 10.6978 2.25777 10.7064C2.50975 10.7151 2.60214 10.594 2.67773 10.3777C3.69405 7.53986 4.71876 4.70205 5.74348 1.8729C6.12985 0.774115 6.75979 0.324219 7.9105 0.324219C15.4447 0.324219 22.9788 0.324219 30.513 0.324219C31.6385 0.324219 32.2853 0.782767 32.6716 1.86425C33.6963 4.70205 34.7211 7.53986 35.7374 10.3777C35.8214 10.6113 35.9222 10.7237 36.1825 10.7237C36.8377 10.7237 37.224 11.1131 37.4592 11.7014V13.3885V13.3972ZM3.71085 10.7151C3.91243 10.7151 4.03842 10.7151 4.17281 10.7151C6.35663 10.7151 8.54884 10.7151 10.7327 10.7151C11.0182 10.7151 11.2198 10.6372 11.4214 10.4296C13.5296 8.24066 15.6546 6.06039 17.7713 3.88013C18.754 2.86786 19.6863 2.87651 20.669 3.88878C22.7857 6.06905 24.9023 8.24931 27.0189 10.4382C27.2121 10.6372 27.4053 10.7151 27.674 10.7151C29.8831 10.7064 32.0921 10.7151 34.3011 10.7151H34.6959C34.6539 10.568 34.6287 10.4901 34.6035 10.4123C33.6207 7.67829 32.6296 4.94431 31.6385 2.21897C31.4285 1.63065 31.185 1.44896 30.5718 1.44896C22.9956 1.44896 15.4111 1.44896 7.8349 1.44896C7.24695 1.44896 6.99497 1.63065 6.79339 2.20167C6.12985 4.01856 5.4747 5.83545 4.81956 7.65233C4.45839 8.65595 4.09722 9.65956 3.71925 10.7151H3.71085ZM7.06217 13.2501C8.52365 13.2501 9.98512 13.2328 11.4466 13.2587C11.9254 13.2587 12.2697 13.1203 12.6057 12.7742C14.5963 10.6978 16.5954 8.6473 18.6028 6.58816C19.1152 6.06039 19.2999 6.06039 19.8039 6.58816C21.8365 8.6819 23.8776 10.7757 25.9018 12.878C26.1622 13.1463 26.4477 13.2674 26.8173 13.2674C29.7067 13.2587 32.596 13.2674 35.4854 13.2674C36.5269 13.2674 36.3757 13.4145 36.4009 12.3416C36.4093 11.9696 36.3001 11.8571 35.939 11.8571C33.0748 11.8744 30.2106 11.8571 27.3465 11.8744C27.0021 11.8744 26.7417 11.7706 26.4981 11.5197C24.2975 9.23562 22.0801 6.96019 19.8711 4.68475C19.3587 4.15699 19.0648 4.15699 18.5524 4.68475C16.335 6.96884 14.1092 9.25293 11.9002 11.5457C11.6734 11.7793 11.4382 11.8831 11.1106 11.8831C8.38926 11.8744 5.66788 11.8831 2.94651 11.8831C2.01419 11.8831 2.03099 11.8831 2.01419 12.8261C2.01419 13.1809 2.11498 13.2933 2.45935 13.2933C3.99642 13.276 5.5251 13.2933 7.06217 13.2933V13.2501Z"></path>
    <path fill="white" d="M37.461 33.7483C37.2846 34.0338 37.0326 34.1116 36.705 34.1116C25.03 34.1116 13.3634 34.1116 1.68836 34.1116C1.10881 34.1116 0.949219 33.9386 0.949219 33.3503C0.949219 32.6149 0.949219 31.8795 0.949219 31.1441C0.949219 30.6596 1.1424 30.4606 1.62116 30.4519C1.85634 30.4519 2.09152 30.4519 2.3855 30.4519C2.3855 29.9588 2.3855 29.4829 2.3855 29.0157C2.3855 28.7215 2.54509 28.4879 2.82226 28.4879C3.01545 28.4879 3.23383 28.6264 3.38502 28.7562C3.46901 28.8254 3.46061 29.0244 3.46061 29.1714C3.46901 29.5867 3.46061 30.002 3.46061 30.4346H14.6401V29.9847C14.6401 26.5326 14.6401 23.0805 14.6401 19.6285C14.6401 18.8671 14.7493 18.7546 15.4716 18.7546C17.9662 18.7546 20.4608 18.7546 22.9554 18.7546C23.6441 18.7546 23.7701 18.8844 23.7701 19.5765C23.7701 23.0373 23.7701 26.5067 23.7701 29.9674V30.426H34.9496C34.9496 30.2789 34.9496 30.1404 34.9496 29.9934C34.9496 26.2212 34.9496 22.449 34.9496 18.6767C34.9496 18.0971 35.1344 17.8116 35.5039 17.8289C35.8567 17.8375 36.0331 18.1144 36.0331 18.6681C36.0331 22.4403 36.0331 26.2125 36.0331 29.9847C36.0331 30.1318 36.0331 30.2702 36.0331 30.4173C36.537 30.5384 37.1166 30.2443 37.461 30.8066V33.7483ZM22.6866 19.888H15.7236V25.3387C15.9588 25.3387 16.1855 25.33 16.4123 25.3387C16.8071 25.3646 17.0087 25.5723 17.0003 25.9183C16.9919 26.2385 16.7651 26.4461 16.4039 26.4548C16.1855 26.4548 15.9588 26.4548 15.732 26.4548V30.4173H22.6866V19.8794V19.888ZM36.3775 31.6199H2.04113V32.9609H36.3859V31.6199H36.3775Z"></path>
    <path fill="white" d="M37.461 33.7483C37.2846 34.0338 37.0326 34.1116 36.705 34.1116C25.03 34.1116 13.3634 34.1116 1.68836 34.1116C1.10881 34.1116 0.949219 33.9386 0.949219 33.3503C0.949219 32.6149 0.949219 31.8795 0.949219 31.1441C0.949219 30.6596 1.1424 30.4606 1.62116 30.4519C1.85634 30.4519 2.09152 30.4519 2.3855 30.4519C2.3855 29.9588 2.3855 29.4829 2.3855 29.0157C2.3855 28.7215 2.54509 28.4879 2.82226 28.4879C3.01545 28.4879 3.23383 28.6264 3.38502 28.7562C3.46901 28.8254 3.46061 29.0244 3.46061 29.1714C3.46901 29.5867 3.46061 30.002 3.46061 30.4346H14.6401V29.9847C14.6401 26.5326 14.6401 23.0805 14.6401 19.6285C14.6401 18.8671 14.7493 18.7546 15.4716 18.7546C17.9662 18.7546 20.4608 18.7546 22.9554 18.7546C23.6441 18.7546 23.7701 18.8844 23.7701 19.5765C23.7701 23.0373 23.7701 26.5067 23.7701 29.9674V30.426H34.9496C34.9496 30.2789 34.9496 30.1404 34.9496 29.9934C34.9496 26.2212 34.9496 22.449 34.9496 18.6767C34.9496 18.0971 35.1344 17.8116 35.5039 17.8289C35.8567 17.8375 36.0331 18.1144 36.0331 18.6681C36.0331 22.4403 36.0331 26.2125 36.0331 29.9847C36.0331 30.1318 36.0331 30.2702 36.0331 30.4173C36.537 30.5384 37.1166 30.2443 37.461 30.8066V33.7483ZM22.6866 19.888H15.7236V25.3387C15.9588 25.3387 16.1855 25.33 16.4123 25.3387C16.8071 25.3646 17.0087 25.5723 17.0003 25.9183C16.9919 26.2385 16.7651 26.4461 16.4039 26.4548C16.1855 26.4548 15.9588 26.4548 15.732 26.4548V30.4173H22.6866V19.8794V19.888ZM36.3775 31.6199H2.04113V32.9609H36.3859V31.6199H36.3775Z"></path>
    <path fill="white" d="M13.053 24.2275C13.053 25.7675 13.053 27.3075 13.053 28.8562C13.053 29.4618 12.885 29.6349 12.2887 29.6349C10.0209 29.6349 7.75304 29.6349 5.48523 29.6349C4.92248 29.6349 4.74609 29.4532 4.74609 28.8649C4.74609 25.7415 4.74609 22.6269 4.74609 19.5035C4.74609 18.9152 4.92248 18.7422 5.49363 18.7422C7.76144 18.7422 10.0293 18.7422 12.2971 18.7422C12.885 18.7422 13.053 18.9152 13.053 19.5295C13.053 21.0955 13.053 22.6615 13.053 24.2275ZM11.9359 27.2989H5.8716V28.5015H11.9359V27.2989ZM8.34099 26.1395V23.5786H5.88V26.1395H8.34099ZM9.4413 26.1136H11.9191V23.5872H9.4413V26.1136ZM5.8716 19.8669V22.4106H8.33259V19.8669H5.8716ZM11.9275 19.8842H9.4581V22.4106H11.9275V19.8842Z"></path>
    <path fill="white" d="M13.053 24.2275C13.053 25.7675 13.053 27.3075 13.053 28.8562C13.053 29.4618 12.885 29.6349 12.2887 29.6349C10.0209 29.6349 7.75304 29.6349 5.48523 29.6349C4.92248 29.6349 4.74609 29.4532 4.74609 28.8649C4.74609 25.7415 4.74609 22.6269 4.74609 19.5035C4.74609 18.9152 4.92248 18.7422 5.49363 18.7422C7.76144 18.7422 10.0293 18.7422 12.2971 18.7422C12.885 18.7422 13.053 18.9152 13.053 19.5295C13.053 21.0955 13.053 22.6615 13.053 24.2275ZM11.9359 27.2989H5.8716V28.5015H11.9359V27.2989ZM8.34099 26.1395V23.5786H5.88V26.1395H8.34099ZM9.4413 26.1136H11.9191V23.5872H9.4413V26.1136ZM5.8716 19.8669V22.4106H8.33259V19.8669H5.8716ZM11.9275 19.8842H9.4581V22.4106H11.9275V19.8842Z"></path>
    <path fill="white" d="M25.3516 23.848C25.3516 22.282 25.3516 20.716 25.3516 19.15C25.3516 18.5617 25.5279 18.3887 26.0991 18.3887C28.3837 18.3887 30.6599 18.3887 32.9445 18.3887C33.4905 18.3887 33.6669 18.5704 33.6669 19.1414C33.6669 22.2734 33.6669 25.4053 33.6669 28.5373C33.6669 29.0997 33.4905 29.2813 32.9361 29.2813C30.6515 29.2813 28.3753 29.2813 26.0907 29.2813C25.5279 29.2813 25.3516 29.0997 25.3516 28.5113C25.3516 26.954 25.3516 25.4053 25.3516 23.848ZM32.5414 26.9453H26.4771V28.148H32.5414V26.9453ZM26.4771 25.7687H28.9465V23.2337H26.4771V25.7687ZM30.072 23.2164V25.7773H32.533V23.2164H30.072ZM28.9633 22.0571V19.5307H26.4855V22.0571H28.9633ZM30.0552 22.0571H32.5414V19.5221H30.0552V22.0571Z"></path>
    <path fill="white" d="M25.3516 23.848C25.3516 22.282 25.3516 20.716 25.3516 19.15C25.3516 18.5617 25.5279 18.3887 26.0991 18.3887C28.3837 18.3887 30.6599 18.3887 32.9445 18.3887C33.4905 18.3887 33.6669 18.5704 33.6669 19.1414C33.6669 22.2734 33.6669 25.4053 33.6669 28.5373C33.6669 29.0997 33.4905 29.2813 32.9361 29.2813C30.6515 29.2813 28.3753 29.2813 26.0907 29.2813C25.5279 29.2813 25.3516 29.0997 25.3516 28.5113C25.3516 26.954 25.3516 25.4053 25.3516 23.848ZM32.5414 26.9453H26.4771V28.148H32.5414V26.9453ZM26.4771 25.7687H28.9465V23.2337H26.4771V25.7687ZM30.072 23.2164V25.7773H32.533V23.2164H30.072ZM28.9633 22.0571V19.5307H26.4855V22.0571H28.9633ZM30.0552 22.0571H32.5414V19.5221H30.0552V22.0571Z"></path>
    <path fill="white" d="M19.2106 10.8945C20.7897 10.8945 22.058 12.2096 22.058 13.8362C22.058 15.4281 20.7813 16.7432 19.2274 16.7605C17.6736 16.7778 16.3633 15.4368 16.3633 13.8275C16.3633 12.2096 17.64 10.8945 19.219 10.8945H19.2106ZM19.2022 15.6184C20.185 15.6184 20.9745 14.8138 20.9745 13.8102C20.9745 12.8239 20.185 12.0106 19.2358 12.002C18.2531 12.002 17.4636 12.7893 17.4468 13.7929C17.43 14.7879 18.2279 15.6098 19.2022 15.6098V15.6184Z"></path>
    <path fill="white" d="M19.2106 10.8945C20.7897 10.8945 22.058 12.2096 22.058 13.8362C22.058 15.4281 20.7813 16.7432 19.2274 16.7605C17.6736 16.7778 16.3633 15.4368 16.3633 13.8275C16.3633 12.2096 17.64 10.8945 19.219 10.8945H19.2106ZM19.2022 15.6184C20.185 15.6184 20.9745 14.8138 20.9745 13.8102C20.9745 12.8239 20.185 12.0106 19.2358 12.002C18.2531 12.002 17.4636 12.7893 17.4468 13.7929C17.43 14.7879 18.2279 15.6098 19.2022 15.6098V15.6184Z"></path>
    <path fill="white" d="M19.2272 20.7539C19.7647 20.7539 20.2939 20.7539 20.8315 20.7539C21.2682 20.7539 21.4782 20.9529 21.4782 21.3941C21.4782 22.1295 21.4782 22.865 21.4782 23.5917C21.4782 24.007 21.2766 24.2406 20.8735 24.2493C19.7563 24.2666 18.6392 24.2666 17.5221 24.2493C17.1274 24.2493 16.9258 24.007 16.9258 23.5831C16.9258 22.865 16.9258 22.1382 16.9258 21.4201C16.9258 20.9616 17.1274 20.7626 17.5893 20.7539C18.1353 20.7539 18.6812 20.7539 19.2272 20.7539ZM18.0345 23.0899H20.3527V21.8786H18.0345V23.0899Z"></path>
    <path fill="white" d="M19.2272 20.7539C19.7647 20.7539 20.2939 20.7539 20.8315 20.7539C21.2682 20.7539 21.4782 20.9529 21.4782 21.3941C21.4782 22.1295 21.4782 22.865 21.4782 23.5917C21.4782 24.007 21.2766 24.2406 20.8735 24.2493C19.7563 24.2666 18.6392 24.2666 17.5221 24.2493C17.1274 24.2493 16.9258 24.007 16.9258 23.5831C16.9258 22.865 16.9258 22.1382 16.9258 21.4201C16.9258 20.9616 17.1274 20.7626 17.5893 20.7539C18.1353 20.7539 18.6812 20.7539 19.2272 20.7539ZM18.0345 23.0899H20.3527V21.8786H18.0345V23.0899Z"></path>
</svg>