<svg width="46" height="45" viewBox="0 0 46 45" fill="none" xmlns="http://www.w3.org/2000/svg">
<path d="M30.5572 0H8.85376C8.49601 0.229077 8.36931 0.532049 8.36931 0.968033C8.38421 4.41157 8.36931 7.85511 8.36931 11.2986C8.34695 11.3134 8.32459 11.3282 8.30968 11.3504C7.07992 11.3504 5.84271 11.3652 4.61295 11.3652C4.57568 11.3725 4.53841 11.3873 4.50115 11.3947C4.44898 11.4169 4.3819 11.4243 4.34464 11.4612C3.01053 12.6288 1.68388 13.7963 0.349776 14.9713C0.0665582 15.2225 -0.0899557 15.4885 0.0889186 15.8728C0.252887 16.2349 0.565915 16.2497 0.893851 16.2497C1.89257 16.2497 2.89874 16.257 3.89745 16.2644C3.91981 16.2866 3.94962 16.3088 3.97198 16.3309C3.97198 16.4048 3.98689 16.4787 3.98689 16.5526C3.98689 20.676 3.98689 24.7994 3.98689 28.9228C3.98689 28.9893 3.97943 29.0632 3.97198 29.1518C3.48753 29.1518 3.03289 29.174 2.5857 29.1518C1.20688 29.0558 -0.00797083 30.1938 -0.000517739 31.7234C0.0143885 34.5167 -0.00051899 37.3099 0.0069341 40.1032C0.0069341 40.4135 0.0740125 40.7313 0.155997 41.0343C0.47648 42.2609 1.78822 43.1551 2.99562 43.1329C3.19686 43.1329 3.45772 43.2142 3.59933 43.3472C3.86018 43.5837 4.03161 43.9236 4.29246 44.1674C5.08994 44.8916 6.04394 45.1207 7.09483 44.9138C8.10099 44.7143 8.81649 44.1009 9.3084 43.2142C9.33821 43.192 9.36057 43.1699 9.39038 43.1403C10.2028 43.1403 11.0152 43.1403 11.8201 43.1255C12.2598 43.1255 12.5654 42.8521 12.5729 42.4826C12.5803 42.0762 12.2822 41.8102 11.7903 41.8102C11.0822 41.8102 10.3816 41.8102 9.68105 41.8102C9.02518 39.4012 8.03392 38.4775 6.15574 38.6548C4.53842 38.81 3.42045 39.6081 3.13723 41.8102C3.01798 41.8028 2.88383 41.8102 2.76458 41.7732C1.62426 41.4924 1.34104 40.9013 1.33358 39.8372C1.30377 37.2065 1.30377 34.5758 1.33358 31.9377C1.34104 30.9918 1.57954 30.7037 2.38447 30.4598C2.41428 30.4598 2.45155 30.4598 2.48136 30.4598C4.84399 30.4598 7.19917 30.4598 9.5618 30.4598C9.59161 30.4598 9.62888 30.4598 9.65869 30.4598C10.0463 30.8514 10.4264 31.2431 10.8139 31.6347C10.7916 31.6643 10.7618 31.6939 10.7394 31.7308H4.34464C4.34464 31.7308 4.27756 31.7751 4.24774 31.7973C3.52479 31.7012 2.79439 32.6323 2.83166 33.2531C2.86892 33.8073 2.88383 34.3689 2.83166 34.9231C2.75713 35.6916 3.39064 36.5192 4.2552 36.6227C4.28501 36.6227 4.31482 36.6227 4.34464 36.6227H15.2336C15.2336 36.6227 15.2932 36.6227 15.323 36.6227C15.4125 36.6966 15.5019 36.7705 15.5839 36.8518C16.5006 37.8494 17.4248 38.8396 18.3341 39.8445C18.9154 40.4874 19.4893 41.1377 20.1005 41.8176H19.6831C18.103 41.8176 16.523 41.8176 14.9504 41.8176C14.4361 41.8176 14.1529 42.0836 14.1678 42.527C14.1827 42.9038 14.4808 43.1403 14.9578 43.1403C19.1465 43.1403 23.3351 43.1403 27.5312 43.1329C27.9262 43.1329 28.1349 43.2511 28.3585 43.5837C29.6479 45.4163 32.3757 45.5271 33.68 43.5837C33.8589 43.325 34.0452 43.2216 34.3732 43.1994C35.0439 43.1625 35.752 43.1329 36.3706 42.9038C37.5035 42.4974 38.0848 41.5885 38.2413 40.4062C38.2339 40.3692 38.2264 40.3396 38.219 40.3027C38.219 39.5194 38.219 38.7361 38.219 37.9528L38.2413 37.8494C38.219 37.4208 38.1966 36.9996 38.1742 36.5119H40.8201C40.8201 36.5119 40.8797 36.5119 40.9095 36.5119C41.2747 36.3493 41.3567 36.0537 41.3567 35.6768C41.3493 29.3883 41.3567 23.1072 41.3567 16.8187C41.3567 16.6561 41.3642 16.5009 41.3716 16.3383C41.394 16.3162 41.4238 16.294 41.4461 16.2644C42.4896 16.2644 43.5405 16.2497 44.5839 16.257C44.9118 16.257 45.1578 16.161 45.3367 15.895C45.3516 15.6881 45.3516 15.4885 45.3516 15.2816C45.277 15.2003 45.2174 15.1043 45.1354 15.0378C44.092 14.1141 43.0262 13.2125 42.0051 12.2593C41.3791 11.6755 40.7605 11.21 39.8214 11.3504C39.2996 11.4243 38.763 11.3652 38.2339 11.3652C37.8239 11.3652 37.4215 11.3652 36.9817 11.3652C36.9817 11.1509 36.9817 10.9957 36.9817 10.8331C36.9817 7.54475 36.9817 4.25639 36.9817 0.968033C36.9817 0.591165 36.9817 0.214297 36.5867 0H32.8676C32.5397 0.206908 32.2937 0.480322 32.4428 0.871969C32.5844 1.24884 32.9422 1.33751 33.3297 1.33012C34.0601 1.31534 34.7905 1.33012 35.5209 1.33751C35.5433 1.32273 35.5731 1.31534 35.6029 1.32273C35.6104 1.3449 35.6253 1.37446 35.6327 1.39663V11.3578H32.4353C32.4353 11.3578 32.3832 11.3282 32.3534 11.3134C32.3534 10.205 32.3534 9.08917 32.3459 7.98073C32.3459 7.3674 32.1819 7.20483 31.5782 7.20483C25.6754 7.20483 19.7725 7.20483 13.8697 7.20483C13.2511 7.20483 13.0275 7.42652 13.0275 8.03985C13.0275 9.10395 13.02 10.1754 13.0126 11.2395C13.0275 11.2617 13.0349 11.2913 13.0126 11.3208C12.9902 11.3356 12.9604 11.3504 12.9381 11.3652H9.75558C9.75558 11.2617 9.74068 11.21 9.74068 11.1509C9.74068 7.90684 9.74813 4.65543 9.75558 1.41141C9.7854 1.38924 9.80775 1.36707 9.83757 1.33751C10.0015 1.33751 10.158 1.32273 10.322 1.32273C14.9355 1.32273 19.5489 1.32273 24.155 1.32273C26.1897 1.32273 28.2244 1.32273 30.2516 1.32273C30.4156 1.32273 30.6093 1.28578 30.7286 1.18972C31.1609 0.820242 31.0938 0.413816 30.5572 0.00738957V0ZM23.3947 16.257C23.3947 16.257 23.4469 16.2497 23.4693 16.2644C25.9512 16.2644 28.4256 16.2644 30.9075 16.2644C30.9298 16.2866 30.9596 16.3088 30.982 16.3309V24.1417H23.3873C23.3873 24.1417 23.3649 24.0826 23.35 24.053C23.35 21.4741 23.35 18.9025 23.35 16.3236L23.3873 16.2497L23.3947 16.257ZM5.41043 29.1001C5.41043 29.1001 5.3508 29.0706 5.32099 29.0558C5.30609 29.0262 5.31354 29.0041 5.32844 28.9819C5.32844 27.8439 5.32844 26.6985 5.32844 25.5605C5.3508 25.5383 5.37316 25.5162 5.40298 25.494C5.52223 25.494 5.64147 25.4792 5.75327 25.4792C17.0298 25.4792 28.3063 25.4792 39.5829 25.4792C39.7021 25.4792 39.8214 25.4792 39.9332 25.4866C39.9555 25.5088 39.9853 25.531 40.0077 25.5531C40.0077 28.7454 40.0077 31.9303 40.0077 35.1226C39.9853 35.1448 39.9555 35.167 39.9332 35.1891C39.2549 35.1891 38.5842 35.1891 37.9059 35.1891C37.8761 35.167 37.8537 35.1448 37.8239 35.1226C36.6389 31.5682 33.2254 29.0853 29.5808 29.1445C29.5435 29.1297 29.5063 29.1149 29.469 29.0927C29.2752 29.0927 29.0889 29.0927 28.8951 29.0927C21.2333 29.0927 13.579 29.0927 5.91724 29.0927C5.73836 29.0927 5.56694 29.0779 5.38807 29.0706V29.1001H5.41043ZM21.9563 16.257C21.9563 16.257 21.9787 16.3088 21.9936 16.3309C21.9936 18.9025 21.9936 21.4815 21.9936 24.053C21.9787 24.0826 21.9638 24.1122 21.9563 24.1417H14.3616V16.3309C14.3616 16.3309 14.4138 16.2866 14.4361 16.257C16.918 16.257 19.3924 16.257 21.8743 16.257C21.8967 16.2423 21.9265 16.2349 21.9563 16.2497V16.257ZM26.2344 33.1127C26.2344 33.1127 26.294 33.0757 26.3238 33.0535H29.2231V35.263H26.3238C26.3238 35.263 26.2642 35.2261 26.2344 35.2039C26.2344 34.5093 26.2344 33.8073 26.2344 33.1127ZM24.8779 35.2039C24.8779 35.2039 24.8183 35.2408 24.7885 35.263C23.827 35.263 22.8656 35.263 21.9041 35.263C21.8892 35.2408 21.8669 35.2187 21.852 35.2039C21.852 34.5093 21.852 33.8147 21.852 33.1127C21.8669 33.0905 21.8892 33.0683 21.9041 33.0535C22.8656 33.0535 23.827 33.0535 24.7885 33.0535C24.8183 33.0757 24.8481 33.0905 24.8779 33.1127C24.8779 33.8073 24.8779 34.5093 24.8779 35.2039ZM13.1318 35.2556C13.1244 35.2113 13.1095 35.1596 13.102 35.1152C13.102 34.4723 13.102 33.8368 13.102 33.1939C13.1095 33.1496 13.1244 33.0979 13.1318 33.0535C14.0933 33.0535 15.0547 33.0535 16.0162 33.0535C16.046 33.0683 16.0758 33.0905 16.1056 33.1053C16.1056 33.7999 16.1056 34.4945 16.1056 35.1965C16.0758 35.2113 16.046 35.2335 16.0162 35.2482C15.0547 35.2482 14.0933 35.2482 13.1318 35.2482V35.2556ZM7.28861 33.1127C7.28861 33.8073 7.28861 34.5093 7.28861 35.2039C7.2737 35.2261 7.25134 35.2482 7.23644 35.263C6.37933 35.263 5.52968 35.263 4.67257 35.2704C4.29992 35.2704 4.1285 35.1596 4.15086 34.7679C4.18067 34.3615 4.18067 33.9477 4.15086 33.5412C4.12104 33.1422 4.29992 33.0314 4.67257 33.0388C5.52968 33.0535 6.37933 33.0461 7.23644 33.0461C7.25134 33.0683 7.26625 33.0831 7.28861 33.1053V33.1127ZM35.1706 33.0979C36.2662 34.3467 36.7581 35.8394 36.937 37.4503C36.9668 37.7164 36.8029 37.805 36.5867 37.7533C36.0277 37.6277 35.5358 37.4503 35.1408 36.9478C34.7905 36.5045 34.321 36.1276 33.8291 35.832C32.8602 35.2408 31.7422 35.2556 30.6466 35.2039C30.6317 35.2039 30.6242 35.2187 30.6093 35.2187C30.6019 35.2187 30.5795 35.2039 30.5795 35.2039C30.5944 34.5314 30.6093 33.859 30.6242 33.1865C30.7286 33.1422 30.8329 33.0535 30.9373 33.0535C32.3161 33.0535 33.6875 33.0535 35.0663 33.0535C35.1036 33.0683 35.1408 33.0831 35.1781 33.0905L35.1706 33.0979ZM29.7671 30.4524C31.1385 30.5189 32.4055 30.881 33.6204 31.7012H33.0614C27.2405 31.7012 21.4122 31.7012 15.5914 31.7012C14.6448 31.7012 13.7057 31.7086 12.7592 31.716C12.7294 31.7086 12.6996 31.6939 12.6772 31.6865C12.3269 31.3096 11.9692 30.9253 11.6189 30.5485C11.5965 30.5337 11.5741 30.5263 11.5518 30.5115C11.5667 30.4967 11.589 30.482 11.604 30.4598C11.7977 30.4598 11.9841 30.4524 12.1778 30.4524C18.0062 30.4524 23.8419 30.4524 29.6703 30.445C29.7001 30.445 29.7373 30.445 29.7671 30.445V30.4524ZM14.3616 11.3134C14.3616 10.4119 14.3616 9.50298 14.3616 8.60146C14.384 8.57929 14.4138 8.55712 14.4361 8.52756C18.0062 8.52756 21.5836 8.52017 25.1537 8.51278C27.0691 8.51278 28.992 8.52017 30.9075 8.52756C30.9298 8.54973 30.9596 8.5719 30.982 8.59407C30.982 9.49559 30.982 10.4045 30.982 11.306C30.9522 11.3208 30.9224 11.3356 30.8926 11.3504H14.4436C14.4436 11.3504 14.384 11.3208 14.3541 11.306L14.3616 11.3134ZM13.0051 16.3309C13.0051 18.9099 13.0051 21.4815 13.0051 24.0604C12.9828 24.0826 12.9604 24.1122 12.9306 24.1343C10.4264 24.1343 7.91467 24.1343 5.41043 24.1343C5.39552 24.1048 5.38061 24.0752 5.36571 24.0383C5.36571 21.4741 5.36571 18.9025 5.36571 16.3383C5.38061 16.3088 5.39552 16.2792 5.41788 16.2497C7.92212 16.2497 10.4264 16.2497 12.9306 16.2497C12.953 16.2718 12.9753 16.294 12.9977 16.3162L13.0051 16.3309ZM32.4279 24.1343C32.4279 24.1343 32.3832 24.0826 32.3608 24.053C32.3608 21.4815 32.3608 18.9025 32.3608 16.3309C32.3832 16.3088 32.4055 16.2866 32.4279 16.2644C34.9321 16.2644 37.4364 16.2644 39.9406 16.2644C39.963 16.294 39.9779 16.3236 40.0002 16.3531C40.0002 18.9173 40.0002 21.4815 40.0002 24.0457C39.9853 24.0752 39.963 24.1122 39.9481 24.1417C37.4438 24.1417 34.9321 24.1417 32.4279 24.1417V24.1343ZM5.06013 12.7101C5.16447 12.7101 5.26882 12.7174 5.37316 12.7174C16.9478 12.7174 28.515 12.7174 40.0897 12.7174C40.194 12.7174 40.2984 12.7174 40.4027 12.7101C40.4325 12.7101 40.4698 12.7101 40.4996 12.7174C41.2971 13.4268 42.0946 14.1436 42.9293 14.89H2.50372C3.31611 14.1584 4.10614 13.449 4.89617 12.7396C4.95579 12.7248 5.01541 12.7174 5.06759 12.7027L5.06013 12.7101ZM27.7995 41.8028C25.8915 41.8028 24.0208 41.8028 22.1501 41.7954C22.0159 41.7954 21.8445 41.7067 21.7476 41.6033C21.3302 41.1599 20.9427 40.6943 20.5253 40.2436C19.7874 39.4381 19.0347 38.6474 18.2894 37.842C17.9316 37.4503 17.5813 37.0513 17.2161 36.6449C17.2907 36.6301 17.313 36.6153 17.3428 36.6153C22.1799 36.6153 27.0169 36.6005 31.854 36.6375C32.6888 36.6375 33.4788 36.9552 34.008 37.7016C34.1794 37.9454 34.3881 38.1745 34.6266 38.3666C35.2824 38.8987 36.065 39.113 36.937 39.0834C36.937 39.4898 36.9668 39.8667 36.937 40.2436C36.8625 40.9973 36.311 41.6328 35.5806 41.7806C35.2824 41.8397 34.9619 41.7806 34.6564 41.8102C34.2986 41.8471 34.2166 41.6698 34.1943 41.3594C34.1347 40.6057 33.8142 39.9406 33.2626 39.4381C32.3385 38.6031 31.213 38.4405 30.0355 38.7878C28.597 39.2164 27.9784 40.1919 27.807 41.8028H27.7995ZM8.25006 41.788C8.3395 42.8373 7.35569 43.6576 6.46877 43.6428C5.3508 43.6206 4.55332 42.8743 4.54587 41.825C4.53842 40.7609 5.23155 40.0071 6.42405 39.9554C7.43767 39.9111 8.30968 40.7461 8.25751 41.7954L8.25006 41.788ZM32.8751 41.7954C33.0018 42.7634 31.8764 43.7093 31.0565 43.6428C29.8491 43.5393 29.1858 42.8521 29.1709 41.8176C29.156 40.7461 29.8417 40.0071 31.0491 39.948C32.1596 39.8963 32.9496 40.8717 32.8751 41.7954ZM20.4582 33.0609V35.2408H17.4919V33.0609H20.4582ZM11.6859 35.2408H8.7047V33.0683H11.6859V35.2408Z" fill="white"/>
</svg>
