<svg width="60" height="45" viewBox="0 0 60 45" fill="none" xmlns="http://www.w3.org/2000/svg">
<path d="M41.3692 9.72503C41.2682 8.5669 41.3417 7.44524 42.269 6.61539C42.8382 6.11384 43.5176 5.80378 44.298 5.86762C45.7944 5.98617 47.4195 6.78866 47.2634 9.77063C47.6857 9.77063 48.108 9.78887 48.5304 9.77063C50.8164 9.6612 51.5692 10.7008 52.1476 12.479C52.9188 14.8318 53.5799 17.2301 54.2776 19.6102C54.4429 20.1665 54.5622 20.7319 54.7642 21.2608C54.9111 21.6438 55.1223 22.0268 55.4069 22.3186C56.4351 23.3947 57.5368 24.4069 58.5559 25.5012C58.8314 25.793 59.0333 26.2672 59.0333 26.6594C59.0701 30.38 59.0517 34.1097 59.0517 37.8395C59.0517 38.7058 58.6569 39.0979 57.7755 39.0979C56.2148 39.0979 54.6632 39.0979 53.0566 39.0979C52.6434 41.4598 51.3489 43.1924 49.2189 44.2685C47.7316 45.0163 46.1433 45.1987 44.5367 44.7792C42.4526 44.232 40.9194 42.9736 39.9921 41.0312C39.074 39.1071 39.1566 37.1555 39.9646 35.1858C33.8776 35.1858 27.8274 35.1858 21.7863 35.1858C20.8774 35.1858 20.5653 34.8393 20.6846 33.9729C20.7489 33.517 20.9968 33.2617 21.465 33.2343C21.6486 33.2343 21.8322 33.2343 22.0159 33.2343C28.2864 33.2343 34.557 33.2343 40.8276 33.2343C41.1856 33.2343 41.4519 33.1522 41.7457 32.906C44.3622 30.6718 48.2641 30.763 50.7797 33.0154C50.899 33.1249 51.0827 33.2252 51.2387 33.2252C53.1575 33.2434 55.0855 33.2343 57.0686 33.2343C57.0686 31.7661 56.9584 30.3162 57.0962 28.8936C57.2431 27.3798 56.8024 26.2399 55.5905 25.328C55.0855 24.9541 54.7275 24.3978 54.2225 24.0148C53.2953 23.3126 52.9556 22.3095 52.6434 21.2699C52.0466 19.2819 51.4591 17.2848 50.8623 15.2877C50.6052 14.4123 50.3482 13.5369 50.0636 12.6705C49.8249 11.9501 49.4852 11.7313 48.714 11.7313C44.9682 11.7313 41.2132 11.7313 37.3847 11.7313C37.3847 11.9684 37.3847 12.1781 37.3847 12.397C37.3847 18.2971 37.3847 24.2063 37.3847 30.1064C37.3847 30.7904 37.1093 31.1825 36.586 31.2737C35.8148 31.4196 35.42 31.0457 35.42 30.1794C35.42 22.5831 35.42 14.9959 35.42 7.39964C35.42 6.19591 35.0895 5.86762 33.8684 5.86762C23.7235 5.86762 13.5786 5.86762 3.43367 5.8585C2.36868 5.8585 1.94636 6.10472 1.95554 7.34493C1.98308 15.7528 1.9739 24.1607 1.9739 32.5686V33.2343C3.14906 33.2343 4.28749 33.2069 5.42593 33.2343C6.80306 33.2799 8.06085 33.2161 9.26355 32.2768C10.5213 31.2919 12.0821 31.1278 13.7071 31.374C16.4889 31.7935 18.2517 33.3802 19.2891 35.8789C19.4544 36.271 19.5003 36.7087 19.6013 37.1373C21.6945 37.1373 23.7419 37.1373 25.7892 37.1373C29.2504 37.1373 32.7208 37.1373 36.182 37.1373C36.9624 37.1373 37.3847 37.4656 37.3939 38.0857C37.4123 38.7332 36.9808 39.0888 36.182 39.0979C30.8938 39.0979 25.6056 39.0979 20.3174 39.0979H19.7941C19.2891 40.1375 18.9127 41.168 18.3251 42.0617C17.3152 43.5937 15.8279 44.5056 14.0101 44.843C11.4945 45.3081 9.39208 44.5421 7.65689 42.7182C6.81224 41.8337 6.27975 40.7667 6.05023 39.5812C5.9676 39.1709 5.82989 39.0888 5.46265 39.0888C3.96616 39.0979 2.46967 39.0888 0.973178 39.0888C0.358056 39.0888 0 38.7423 0 38.1313C0.0367237 27.6078 0.0367237 17.0842 0.0367237 6.56068C0.0367237 5.22015 1.37714 3.91611 2.78182 3.91611C13.3123 3.91611 23.852 3.89787 34.3826 3.92523C36.1728 3.92523 37.3388 5.11984 37.4031 6.94368C37.4398 7.8556 37.4031 8.77664 37.4031 9.73415H41.3509L41.3692 9.72503ZM7.90477 38.0675C7.80378 40.7667 10.1449 42.8824 12.33 42.9827C15.5984 43.1468 17.7467 40.8306 17.6916 38.0948C17.6366 35.1676 15.7086 33.3255 12.6697 33.2525C10.1725 33.1978 7.87723 35.2952 7.90477 38.0583V38.0675ZM41.3509 38.1313C41.2132 40.5935 43.6369 43.2289 46.4555 42.9918C49.2281 42.7638 51.1928 40.8306 51.1377 38.0948C51.0827 34.9487 48.8884 33.2525 46.0607 33.2525C43.334 33.2525 41.2591 35.6326 41.3601 38.1222L41.3509 38.1313ZM57.0778 35.2132H52.5516C52.7444 35.8606 52.9188 36.4807 53.1025 37.1099H57.0778V35.2132ZM2.01062 37.1373C3.23168 37.1373 4.39766 37.1464 5.55446 37.1282C5.71053 37.1282 5.94924 36.9914 5.99514 36.8637C6.19712 36.3257 6.33484 35.7603 6.49091 35.2223H2.0198V37.1373H2.01062ZM45.2711 9.75239C45.3079 9.04109 45.4088 8.3298 44.6927 7.95591C44.4357 7.81912 43.9399 7.84648 43.7012 8.01975C43.0953 8.44835 43.3523 9.13229 43.3431 9.75239H45.2711Z" fill="white"/>
<path d="M21.6804 16.6091C22.6536 16.6091 23.5533 16.6091 24.4531 16.6091C25.2334 16.6091 25.5915 16.9191 25.6099 17.676C25.6282 18.9162 25.6282 20.1564 25.6099 21.3966C25.6099 22.0623 25.1508 22.4727 24.4622 22.4727C23.5625 22.4727 22.6628 22.4727 21.6712 22.4727C21.6712 23.3481 21.6712 24.2145 21.6712 25.0717C21.6712 25.9927 21.2856 26.3757 20.3859 26.3757C19.1557 26.3757 17.9254 26.3757 16.7044 26.3757C16.1535 26.3757 15.7771 25.9927 15.7771 25.4456C15.7771 24.4698 15.7771 23.5032 15.7771 22.4727C14.758 22.4727 13.7848 22.4727 12.8117 22.4727C12.2057 22.4727 11.8477 22.1171 11.8477 21.5152C11.8477 20.2111 11.8477 18.9162 11.8477 17.6122C11.8477 16.9647 12.2057 16.6182 12.8484 16.6182C13.8032 16.6182 14.7672 16.6182 15.7771 16.6182C15.7771 15.6333 15.7771 14.6758 15.7771 13.7274C15.7771 13.0435 16.126 12.7061 16.8145 12.7061C18.0448 12.7061 19.275 12.7061 20.4961 12.7061C21.3224 12.7061 21.6621 13.0435 21.6712 13.8733C21.6712 14.767 21.6712 15.6516 21.6712 16.6091H21.6804ZM17.7418 14.6667C17.7418 15.606 17.7418 16.4996 17.7418 17.3933C17.7418 18.1411 17.3011 18.5606 16.5575 18.5606C15.6486 18.5606 14.7305 18.5606 13.8491 18.5606V20.5121C14.7488 20.5121 15.6118 20.5121 16.4657 20.5121C17.3838 20.5121 17.751 20.886 17.7418 21.7705C17.7418 22.6369 17.7418 23.5123 17.7418 24.3969H19.7065C19.7065 23.4758 19.7065 22.5913 19.7065 21.6976C19.7065 20.8313 20.0279 20.5121 20.9 20.5121C21.809 20.5121 22.7271 20.5121 23.5992 20.5121V18.5606C22.5893 18.5606 21.6253 18.5606 20.6705 18.5606C20.0646 18.5606 19.7157 18.2049 19.7157 17.5939C19.7157 16.6273 19.7157 15.6516 19.7157 14.6758H17.751L17.7418 14.6667Z" fill="white"/>
<path d="M45.0344 23.4476C43.5011 23.4476 41.9587 23.4476 40.4255 23.4476C39.7186 23.4476 39.3789 23.1285 39.3789 22.4445C39.3789 19.882 39.3789 17.3196 39.3789 14.7571C39.3789 13.991 39.7002 13.6719 40.4806 13.6719C42.7942 13.6719 45.1078 13.6719 47.4214 13.6719C48.1375 13.6719 48.4864 13.9272 48.6975 14.6203C49.4228 17.0642 50.1481 19.5173 50.8642 21.9703C51.158 22.9734 50.7724 23.4568 49.7074 23.4568C48.1467 23.4568 46.5951 23.4568 45.0344 23.4568V23.4476ZM48.4772 21.4688C48.4772 21.4688 48.5506 21.4049 48.5782 21.3685C48.0549 19.5538 47.5316 17.7299 46.9807 15.9243C46.9348 15.7875 46.6594 15.6507 46.4849 15.6416C45.5668 15.6143 44.6488 15.6325 43.7215 15.6325C42.9319 15.6325 42.1424 15.6325 41.362 15.6325V21.3685C41.362 21.3685 41.4354 21.4323 41.463 21.4688C43.7949 21.4688 46.1361 21.4688 48.468 21.4688H48.4772Z" fill="white"/>
<path d="M39.413 1.2334C39.6792 1.40666 40.0373 1.52521 40.2025 1.77143C40.5973 2.33682 40.9095 2.95692 41.2308 3.56791C41.5246 4.12418 41.341 4.57102 40.7259 4.89019C40.2576 5.14553 39.8169 5.02698 39.5048 4.52543C39.1376 3.92356 38.7795 3.30345 38.449 2.68335C38.0818 1.99029 38.5316 1.34283 39.4038 1.24252L39.413 1.2334Z" fill="white"/>
<path d="M43.3281 1.94521C43.3281 1.59868 43.3281 1.25215 43.3281 0.914742C43.3465 0.404068 43.6954 0.0301809 44.1636 0.00282336C44.7787 -0.0336534 45.2561 0.285518 45.2837 0.832669C45.3204 1.58044 45.3204 2.33734 45.2837 3.08511C45.2561 3.62314 44.7787 3.95143 44.1636 3.92407C43.5852 3.89672 43.3465 3.63226 43.3281 2.99392C43.3281 2.64739 43.3281 2.30086 43.3281 1.96345V1.94521Z" fill="white"/>
<path d="M49.0953 1.22656C50.0042 1.34511 50.454 2.01081 50.0868 2.72211C49.7746 3.31486 49.4717 3.93496 49.0677 4.45475C48.8566 4.72833 48.3791 5.01103 48.0762 4.95631C47.7548 4.9016 47.461 4.48211 47.2407 4.16294C47.1489 4.03527 47.2407 3.7161 47.3509 3.5246C47.6814 2.91361 48.0211 2.31175 48.4159 1.74636C48.5719 1.51838 48.8657 1.39071 49.1044 1.22656H49.0953Z" fill="white"/>
<path d="M41.2813 27.3608C40.9508 27.3608 40.6294 27.3608 40.2989 27.3608C39.7205 27.3426 39.2431 26.8775 39.2707 26.3577C39.2982 25.8015 39.7113 25.4184 40.2989 25.4093C40.9783 25.4093 41.6485 25.4002 42.3279 25.4093C42.8971 25.4184 43.3654 25.847 43.3103 26.3851C43.2552 26.8958 42.943 27.3791 42.3279 27.3608C41.979 27.3608 41.6302 27.3608 41.2813 27.3608Z" fill="white"/>
<path d="M41.375 21.3672C41.375 21.3672 41.4486 21.4316 41.4762 21.4684C41.4394 21.4316 41.4026 21.404 41.375 21.3672Z" fill="white"/>
<path d="M48.4844 21.4684C48.4844 21.4684 48.558 21.404 48.5856 21.3672C48.5488 21.404 48.512 21.4316 48.4844 21.4684Z" fill="white"/>
<path d="M9.87865 38.0937C9.79602 36.5434 11.1548 35.1391 12.7339 35.1847C14.6068 35.2485 15.7453 36.4522 15.7544 38.1302C15.7544 39.799 14.3957 41.0118 12.7523 41.0483C11.2833 41.0848 9.75012 39.6713 9.87865 38.0846V38.0937ZM13.6887 38.0937C13.6887 37.5465 13.3215 37.1544 12.789 37.1271C12.2565 37.0997 11.8434 37.5465 11.8526 38.1484C11.8526 38.6591 12.2565 39.0694 12.7431 39.0786C13.294 39.0786 13.6887 38.6773 13.6887 38.0937Z" fill="white"/>
<path d="M43.32 38.0846C43.2374 36.5343 44.5961 35.1391 46.1661 35.1847C48.0023 35.2394 49.1682 36.4067 49.205 38.1028C49.2325 39.7534 47.8737 41.021 46.1844 41.0483C44.7338 41.0757 43.2006 39.6713 43.3292 38.0846H43.32ZM45.2939 38.0572C45.2572 38.6044 45.6428 39.0512 46.1569 39.0786C46.6343 39.1059 47.1943 38.6317 47.2402 38.1575C47.2861 37.7198 46.7261 37.1362 46.2579 37.1271C45.7162 37.1271 45.3214 37.4918 45.2939 38.0572Z" fill="white"/>
</svg>
