<?xml version="1.0" encoding="UTF-8" standalone="no"?>
<!-- Created with Inkscape (http://www.inkscape.org/) -->
<svg
   xmlns:svg="http://www.w3.org/2000/svg"
   xmlns="http://www.w3.org/2000/svg"
   version="1.0"
   width="602.36218"
   height="250.08661"
   id="svg2407">
  <defs
     id="defs2409" />
  <g
     transform="translate(-230.25433,-453.47682)"
     id="layer1">
    <g
       id="g4917">
      <path
         d="M 804.53759,556.88871 C 803.01941,557.17629 801.6467,557.17449 800.14859,557.51571 C 799.65368,557.64278 799.3895,557.58439 798.89459,557.72471 C 797.89139,557.99892 797.10053,558.15775 796.17759,558.35171 C 796.17759,558.35171 793.91203,559.0389 793.04259,558.97871 C 792.89546,559.05227 792.5761,559.16751 792.41559,559.18771 C 792.26177,559.43516 791.83374,559.20282 791.57959,559.39671 C 791.0178,559.37664 790.50283,559.71425 789.90759,559.81471 C 789.41937,559.72107 789.06818,560.05708 788.65359,560.02371 C 787.94467,560.41161 787.11034,560.21605 786.3546,560.65071 C 785.76605,560.55039 785.24432,560.97527 784.6826,561.06871 C 784.02048,561.28941 783.41522,561.5687 782.5926,561.69571 C 778.43935,563.0935 772.84651,564.06667 768.1716,565.4577 C 766.53304,565.75198 765.22721,566.3353 763.78261,566.5027 C 762.89979,566.89061 762.19755,566.91067 761.27461,567.3387 C 760.53224,567.36545 759.57077,567.66969 758.97561,567.7567 C 757.84534,568.14461 756.57963,568.24493 755.42261,568.5927 L 755.42261,568.8017 L 755.21361,568.8017 C 754.81233,568.67463 754.55651,569.15122 754.16861,569.0107 C 753.70714,568.88363 752.97815,569.48234 752.49661,569.4287 C 751.41984,569.36851 750.98512,570.69614 749.98861,570.6827 C 749.89498,570.66264 740.32446,572.82794 737.44862,573.8177 C 736.83332,573.97152 737.3499,574.77569 736.82162,574.8627 C 735.6044,575.21716 734.20327,575.35774 733.05962,575.6987 C 732.76535,575.72545 732.16838,575.50635 732.01462,575.9077 C 731.82067,575.9077 731.30569,576.08841 731.17862,575.9077 C 731.07161,575.76725 731.17193,575.4477 731.17862,575.2807 C 731.25888,575.01987 730.91438,574.90931 730.76062,574.8627 C 730.37941,574.96971 730.05664,575.07845 729.71562,575.0717 C 729.27421,575.41279 728.66728,575.07993 728.25262,575.2807 C 726.88158,575.52147 725.86166,576.1169 724.49062,576.1167 C 723.15971,576.79887 721.56797,576.95758 720.31063,577.5797 C 720.10999,578.32207 719.13862,578.67994 718.42963,578.8337 C 717.84108,578.74007 699.98574,584.02204 698.57464,584.47669 C 698.05966,584.59708 697.77542,584.57213 697.32064,584.68569 C 697.01299,584.83952 696.61673,584.92807 696.27564,584.89469 C 695.54665,584.85457 695.57173,585.97481 695.23064,586.14869 C 695.23733,586.40953 694.93978,586.34418 694.81264,586.35769 C 694.83357,586.3393 694.78923,586.14863 694.81264,586.14869 C 694.9464,585.79423 694.81605,585.38646 694.39464,585.31269 C 693.90641,585.61365 692.42161,586.97948 691.88664,587.19369 C 690.4019,587.84912 691.52716,588.15496 687.91564,589.49269 C 686.52454,589.62645 685.31568,590.34541 683.94464,590.74669 C 683.61024,591.33524 682.7408,591.02083 682.27264,591.58269 C 681.87136,592.11773 678.93366,593.38858 677.88365,593.25469 C 677.50243,593.34163 677.05928,593.57391 676.83865,593.88169 C 676.85871,595.18585 675.01443,594.40824 674.53965,595.34469 C 674.07149,595.47845 673.75381,595.47163 673.28565,595.34469 C 673.23883,595.01029 673.73207,595.14064 673.91265,594.92669 C 673.95278,594.76618 673.95779,594.39346 673.70365,594.29969 C 672.88102,594.03217 672.11859,594.59042 671.19565,594.71769 C 671.09533,594.77788 670.87797,594.80483 670.77765,594.71769 C 670.00184,594.71769 669.80789,595.01343 669.10565,594.92669 C 668.64418,595.26109 668.02387,595.18572 667.64265,595.55369 C 667.1143,595.46006 666.85006,595.81633 666.38865,595.76269 C 666.10107,595.80951 665.86197,595.95149 665.76165,595.97169 C 665.52088,596.18571 659.52342,598.32767 659.28265,598.68869 C 659.18902,599.42437 660.00161,599.50309 659.70065,600.15169 C 659.70065,600.15169 657.91991,601.25039 657.81966,601.19669 C 657.81966,601.19669 657.35986,601.17 657.19266,601.19669 C 656.93851,601.40401 656.97369,601.84522 656.56566,602.03269 C 656.54559,601.99256 655.66779,602.34368 655.52066,602.45069 C 654.98562,602.22329 654.46562,602.26175 654.05766,602.24169 C 653.38719,602.38929 652.66114,602.97101 651.96766,603.07769 C 651.96766,603.07769 650.83571,602.65139 650.92266,602.45069 C 651.15005,602.11629 651.26883,602.30696 651.54966,602.03269 C 651.71686,601.9123 651.98103,601.65301 651.96766,601.40569 C 651.8874,601.24517 651.73699,600.98769 651.54966,600.98769 C 650.78723,601.2017 649.93959,601.38041 649.25066,601.61469 C 648.836,601.50099 648.29755,601.92394 647.99666,601.82369 L 647.99666,602.03269 C 647.58869,601.92568 647.63551,602.01282 647.16066,602.03269 C 646.88645,602.31358 646.22768,602.30516 645.90666,602.65969 C 645.45188,602.52593 645.16764,603.02271 644.65266,602.86869 C 642.0109,604.01902 639.17519,605.04576 636.29267,605.79468 C 635.19583,606.04883 634.24112,606.65229 633.15767,606.83968 C 632.26816,607.30784 631.32348,607.17402 630.44067,607.67568 C 630.32697,607.82282 630.3136,608.12886 630.44067,608.30268 C 629.75849,608.67721 628.81047,608.76422 628.14167,609.13868 C 628.04804,609.13868 628.01293,609.1653 627.93267,609.13868 C 627.76547,609.16544 627.77717,609.24054 627.72367,609.34768 C 627.28895,609.49482 626.90439,609.82099 626.46967,609.97468 C 626.18877,609.69379 625.8727,609.31585 625.42467,609.55668 C 624.30109,610.27899 622.44684,610.14034 621.87167,611.43768 C 621.45033,611.47112 621.22969,611.57459 621.03567,611.85568 C 620.3535,612.13658 619.57435,612.38403 618.94567,612.69168 C 618.51764,612.56461 618.46414,612.98087 618.10967,612.90068 C 618.04948,612.97425 617.76518,613.08293 617.69167,613.10968 C 617.49772,613.00267 617.27876,612.82705 617.06467,612.90068 C 616.67008,612.88731 615.7755,612.80685 615.60167,612.90068 C 614.69211,612.49271 614.01655,613.11971 613.09368,612.69168 C 612.14398,612.94583 611.26611,613.21321 610.37668,613.52768 C 609.90852,613.72163 609.57084,613.79834 609.12268,613.94568 C 608.84178,614.03263 607.93389,614.37706 607.65968,614.36368 C 607.65968,614.36368 595.61634,619.72404 595.32868,619.79768 C 593.89745,620.68049 591.68205,620.82415 590.10369,621.88768 C 584.30519,624.20841 585.01412,624.17832 579.23569,626.48568 C 578.58027,626.88027 577.65398,627.47222 577.14569,627.73967 C 576.8648,628.04732 577.21424,628.32835 577.35469,628.57567 C 576.75277,628.97027 570.53956,630.94316 569.8307,631.08367 C 569.00807,630.5687 568.06506,632.27741 567.3227,632.33767 C 567.00836,632.47143 566.95158,632.7441 566.9047,632.96467 C 565.27951,633.94112 560.24011,635.00959 558.9627,636.09967 C 558.14008,636.53439 557.20376,636.85695 556.4547,637.14467 C 556.38113,637.07779 556.34602,637.01579 556.2457,636.93567 C 555.53677,637.26338 554.66894,637.42376 553.9467,637.77167 C 552.44859,638.92201 549.66806,638.66264 548.30371,639.65267 C 548.01612,639.75968 541.19771,642.16053 541.19771,642.16067 C 540.93019,642.16067 540.02229,642.64742 539.73471,642.78767 C 539.30668,642.96156 538.94218,642.96477 538.48071,643.20567 C 537.61127,643.58688 535.2571,644.96809 534.30071,645.29567 C 533.38446,644.90776 532.32441,646.67487 531.37471,646.34067 C 531.20083,646.44099 530.31293,646.30736 529.91171,646.34067 C 529.83815,646.36073 529.75615,646.3408 529.70271,646.34067 C 528.18454,647.02953 527.30507,646.78368 525.94072,647.38567 C 525.4458,648.74333 523.43773,648.4841 522.38772,649.26666 C 522.01988,649.48068 522.02155,650.51886 521.76072,650.31166 C 520.46993,650.88683 519.14738,651.33499 517.78972,651.98366 C 517.88335,652.15086 517.87673,652.48346 517.78972,652.61066 C 516.96041,653.17914 515.91548,653.32962 515.07272,653.86466 C 514.00933,654.15893 513.23687,654.78426 512.14672,655.11866 C 509.35114,656.08842 505.0741,657.10513 502.53273,658.46266 C 502.01106,658.36903 501.74695,658.79853 501.27873,658.67166 C 500.99783,659.04619 500.30562,659.01763 500.02473,659.29866 C 500.08492,659.3856 500.10672,659.42747 500.23373,659.50766 C 499.81238,660.53092 498.34765,659.29211 497.72573,660.13466 C 497.04355,660.24836 496.74259,660.52109 496.05373,660.76166 C 495.55882,661.32345 494.7279,661.72981 494.17273,662.22466 C 493.67782,662.66607 493.08934,662.25121 492.50073,662.22466 C 491.99244,662.44536 491.8855,662.88824 491.66473,663.26966 C 490.287,663.98527 488.99121,664.50379 487.69373,665.35966 C 487.41953,665.32622 486.90957,665.41503 486.64873,665.56866 C 485.83949,665.34127 485.23429,665.719 484.55874,665.98666 C 484.44504,666.43475 483.88151,666.59513 483.51374,666.82266 C 482.96532,667.49814 481.61267,667.27082 480.79674,667.65866 C 480.05437,668.48128 478.87728,668.79896 478.28874,669.74866 C 478.15498,670.07637 477.81389,670.07316 477.45274,670.16666 C 477.18522,670.45424 476.6869,670.6732 476.19874,670.79365 C 476.2188,670.98761 475.63862,670.74864 475.57174,671.00265 C 474.923,671.00265 474.85278,671.41417 474.31774,671.42065 C 474.1171,671.28689 473.79775,671.66316 473.69074,671.62965 C 472.78117,671.66309 472.53372,672.56597 472.01874,672.46565 C 471.35663,672.13125 470.71291,672.99902 470.13774,673.09265 C 469.91035,673.50062 469.24824,673.35997 469.30174,673.92865 C 468.1581,674.55064 464.7523,675.91345 464.07675,676.22765 C 463.85604,676.54868 463.46312,676.567 463.44975,676.85465 C 463.24242,676.92822 462.96821,677.35458 462.61375,677.48165 C 461.95832,677.64216 461.72585,678.05528 461.15075,678.10865 C 460.61571,678.05515 459.74453,678.07187 459.26975,678.52665 C 459.13599,678.64035 459.16107,678.98632 459.06075,679.15365 C 459.06075,679.15365 458.8785,679.60007 458.85175,679.78065 C 458.5976,680.17524 458.39696,680.17364 458.01575,680.40765 C 457.41383,680.48791 456.89216,680.79047 456.34375,680.61665 C 455.66157,680.93767 454.41426,680.97459 454.25375,681.87065 C 453.92604,681.87065 453.56321,681.72351 453.20875,681.87065 C 452.99473,682.0646 452.87937,682.3457 452.99975,682.70665 C 452.13031,683.38882 450.81445,683.58759 449.86475,684.16965 C 449.6708,684.90533 448.62413,684.7499 448.61075,685.63265 C 448.69101,685.8266 449.00361,685.84178 449.23775,685.84165 C 449.96006,685.61426 450.98004,685.41709 451.32775,684.58765 C 451.8561,684.14624 452.64034,684.62604 453.20875,684.37865 C 453.60334,683.39551 454.86069,683.38388 455.71675,682.91565 C 456.40561,682.74176 456.30864,683.69794 456.97075,683.75165 C 457.70643,684.07267 458.60088,683.59455 459.26975,683.33365 C 460.22613,683.18651 459.30325,681.83574 460.10575,681.66165 C 460.20607,681.70178 460.47024,681.62995 460.52375,681.87065 C 460.75783,681.99772 461.00354,681.90931 461.15075,681.66165 C 461.27782,681.39413 461.58045,681.04635 461.35975,680.82565 C 461.6072,680.31736 462.11716,680.11331 462.40475,679.57165 C 462.95316,679.44458 463.57515,679.33436 464.07675,679.15365 C 464.36453,679.00973 464.61479,678.803 464.91274,678.73565 L 465.12174,678.73565 C 465.18862,678.75906 465.26386,678.73572 465.33074,678.73565 C 465.33074,678.73565 465.01139,679.20548 465.53974,679.78065 C 465.72701,679.91441 465.95942,680.08984 466.16674,679.98965 C 467.46422,679.45461 468.43056,678.52645 469.92874,678.52665 C 470.36346,679.60342 471.49206,678.40647 472.22774,678.52665 C 472.40163,678.74067 472.36485,679.02665 472.64574,679.15365 C 473.42824,679.30747 473.60045,678.45629 474.10874,678.10865 C 474.20237,677.87457 474.11376,677.64196 473.89974,677.48165 C 474.34115,677.08706 474.85445,676.79774 475.36274,676.43665 C 476.17199,676.00193 476.18877,676.83619 476.61674,677.06365 C 477.73363,676.90314 478.58635,676.46026 479.54274,676.01865 C 479.77013,675.86483 480.021,675.69248 479.96074,675.39165 C 480.52922,674.83655 481.57923,674.26319 482.46874,673.92865 C 482.59581,673.68789 482.38005,673.47554 482.25974,673.30165 L 483.51374,672.46565 C 483.94846,671.7701 482.6142,672.22482 483.09574,671.62965 C 483.41007,671.27519 483.90164,671.13147 484.34974,671.21165 C 484.74433,671.1314 485.12722,670.88207 485.39474,671.00265 C 485.68232,671.40393 486.0735,671.83865 486.64873,671.83865 C 486.92294,671.89216 487.14197,671.62945 487.27573,671.62965 C 488.01141,671.13474 488.59661,671.08625 489.36573,671.42065 C 490.17498,670.86555 490.86384,670.08981 491.87373,669.74866 C 492.6161,669.11998 493.60599,669.69014 494.38173,669.12166 C 495.0104,668.6535 495.18931,669.59818 495.84473,669.33066 C 496.0855,669.49786 495.98016,669.66358 496.05373,669.95766 C 495.52538,670.49938 494.86828,670.63328 494.17273,670.79365 C 493.78483,671.15481 493.2865,671.02613 492.91873,671.42065 C 492.69134,671.66142 492.80504,671.94907 492.91873,672.25665 C 493.17956,672.53086 493.48052,672.53909 493.75473,672.46565 C 494.51048,672.54591 495.53875,672.54243 496.05373,672.04765 C 497.27763,672.04765 498.3009,671.70677 499.39773,671.21165 C 499.65187,670.44922 500.34401,671.39571 500.65173,670.79365 C 500.81893,670.79365 500.94266,670.86227 501.06973,671.00265 C 501.6984,671.22336 502.30025,670.72323 502.74173,670.37565 C 503.19651,669.44602 504.6244,669.84082 504.83173,668.70366 C 505.29989,668.78391 505.9737,668.54983 506.29473,668.70366 C 506.8097,668.61671 507.62403,668.69215 507.75772,668.07666 C 508.23257,667.90946 507.94158,667.29911 508.17572,667.03166 C 509.1388,666.94471 509.93634,665.99669 510.89272,666.40466 C 511.66853,666.9932 512.75366,666.48317 513.60972,666.19566 C 513.74348,665.84119 513.75686,665.6873 513.60972,665.35966 C 513.91068,664.83131 514.60449,665.00693 515.07272,664.73266 C 515.46063,664.16418 516.2983,664.0773 516.95372,663.89666 C 517.44863,663.28805 518.18598,663.79279 518.83472,663.47866 C 519.37645,663.21114 520.4482,663.66264 520.71572,663.06066 C 519.98004,662.19791 521.33101,662.51739 521.55172,662.01566 C 521.80586,661.95547 522.30746,661.68146 522.38772,662.01566 C 522.52148,662.2698 522.52148,662.79307 522.38772,663.06066 C 522.789,663.45525 522.05165,663.84663 522.17872,664.31466 C 522.51312,664.86307 523.22713,664.26951 523.64172,664.52366 C 524.33727,664.08894 525.43912,664.39665 525.94072,663.68766 C 526.73659,663.56059 527.58429,663.61763 528.23972,663.26966 C 528.56074,662.97539 528.60756,662.56749 529.07572,662.43366 C 529.22285,662.10595 528.69116,662.08749 528.65772,661.80666 C 529.17269,661.20474 530.90983,660.48578 530.95671,660.55266 C 530.97009,660.51253 530.89311,661.33014 531.37471,661.59766 C 531.91644,661.43715 532.38293,661.27175 532.83771,660.97066 C 533.25906,660.58276 534.22046,661.08603 534.30071,660.34366 C 534.4746,659.96913 534.27062,659.5613 533.88271,659.50766 C 534.02985,659.01944 533.34105,658.58806 533.88271,658.25366 L 537.85371,656.58166 L 538.68971,656.58166 C 538.84353,657.11001 539.80661,656.72204 539.52571,657.41766 C 539.57921,657.74537 539.825,657.83586 540.15271,657.83566 C 541.69764,657.64171 542.86135,656.57832 544.33271,656.16366 C 544.39959,655.86939 544.71894,655.87273 544.95971,655.74566 C 544.97308,655.56509 544.93296,655.25236 544.95971,655.11866 L 545.16871,655.32766 C 545.3961,655.16715 545.71037,654.85622 546.00471,654.90966 C 546.76714,655.10361 546.67518,655.88444 547.04971,656.37266 C 547.05639,656.68031 546.81228,657.01471 546.63171,657.20866 C 546.0231,658.05135 547.46938,658.72536 547.67671,659.50766 C 549.50253,660.55768 550.55428,658.68169 552.0657,658.25366 L 552.2747,658.04466 C 552.36834,657.63669 551.67613,657.60325 551.8567,657.20866 C 552.16435,657.06821 552.48043,656.95264 552.9017,656.99966 C 553.02209,657.01304 553.14588,657.30885 553.3197,657.20866 C 553.96175,657.9109 554.87634,657.73521 555.6187,657.83566 C 556.24737,657.90923 556.36448,657.11998 556.8727,656.99966 C 556.69213,656.67864 557.21707,656.66847 557.2907,656.58166 L 557.4997,656.79066 C 557.4462,656.79735 558.99949,656.48121 559.3807,656.58166 C 559.89568,656.7823 560.36725,656.58654 560.6347,656.37266 C 561.73153,656.15865 560.79856,655.07693 561.8887,654.90966 C 562.15622,655.11699 562.4856,654.97821 562.9337,655.11866 C 563.54231,655.08522 563.5306,654.44331 563.9787,654.28266 C 565.73764,653.21927 569.31739,652.2261 570.0397,651.35666 C 570.12664,651.18946 570.00124,651.05885 570.2487,650.93866 C 570.99775,651.14599 571.79195,650.56246 572.54769,650.72966 C 573.27,650.50227 573.04435,649.79013 573.59269,649.47566 C 574.23474,649.4556 574.77807,649.67142 575.47369,649.68466 C 575.72784,649.81842 576.14417,650.06769 576.51869,649.89366 C 576.87984,649.71978 576.56885,649.23162 576.93669,649.05766 C 577.53192,649.05098 578.17397,648.53587 578.60869,649.05766 C 579.30424,649.08442 579.82765,649.92216 580.48969,649.26666 C 580.71708,648.70487 581.44607,648.74152 581.32569,648.01267 C 581.50627,647.78527 581.42267,647.45261 581.74369,647.38567 C 582.26535,647.38567 583.01608,647.10999 583.62469,647.17667 C 584.25336,647.22348 584.42397,646.53482 584.87869,646.34067 C 585.01245,646.46105 584.98737,646.38742 585.08769,646.34067 C 585.18801,646.04639 585.91867,646.54987 586.13269,646.54967 C 586.31326,646.67674 586.20793,647.29371 586.34169,647.59467 C 586.62927,648.0227 587.34154,647.73692 587.59569,647.80367 C 587.72276,647.69666 587.9133,647.93087 588.01369,647.80367 C 588.00031,648.01768 588.21098,647.7503 588.43169,647.80367 C 588.55876,647.91067 588.35143,648.10115 588.43169,648.22167 C 588.57882,648.38887 588.79117,648.71323 589.05869,648.63966 C 589.93481,648.23839 590.66387,648.16502 591.56669,647.80367 C 592.07497,647.06799 592.85419,647.991 593.65669,647.80367 C 594.21179,647.79029 594.5294,647.55106 594.91068,647.17667 C 595.83363,647.23686 596.69477,646.90259 597.20968,646.34067 L 597.20968,646.13167 C 598.10588,646.23199 599.15094,646.18871 599.92668,645.71367 C 600.04038,645.37258 600.23935,644.99116 600.55368,644.87767 C 601.51007,644.59677 602.55674,644.28257 603.47968,644.04167 C 605.84723,643.14548 608.29337,642.32961 610.79468,641.53367 C 610.93513,641.42666 611.03712,641.56223 611.00368,641.74267 C 610.69603,642.03694 611.19261,642.41976 611.21268,642.78767 C 611.46682,642.80773 611.99016,643.20413 612.25768,642.99667 C 613.22075,643.41132 613.85611,642.43661 614.76568,642.36967 C 615.4746,642.03527 616.26205,641.57868 617.06467,641.32467 C 619.60611,640.54886 622.36498,639.45049 625.00667,638.60767 C 625.28757,638.34684 626.17714,638.66291 625.84267,637.98067 C 625.2675,637.67302 624.81265,637.89192 624.17067,637.77167 L 624.17067,637.56267 C 624.53182,637.27509 625.10699,637.34865 625.00667,636.72667 C 626.57835,636.31201 628.07981,635.67846 629.60467,635.26367 C 629.68492,635.14329 629.93405,634.824 629.81367,634.63667 C 629.86717,634.06819 630.30858,634.27893 630.64967,634.21867 C 631.1312,634.61995 631.89196,634.68175 632.11267,635.26367 C 632.46713,635.43756 633.00551,635.47274 633.36667,635.47267 C 634.97847,635.07139 636.21074,634.70683 637.75566,634.21867 C 637.85598,634.11166 637.95296,633.86916 638.17366,634.00967 C 639.76541,633.67527 641.13136,633.17708 642.56266,632.75567 C 642.91044,632.56172 643.64445,632.51832 644.02566,632.33767 C 644.02566,632.33767 644.91015,631.96141 645.07066,632.12867 C 645.07066,632.12867 645.91509,631.87794 646.11566,631.71067 C 646.11566,631.71067 646.53366,631.60179 646.53366,631.50167 C 646.77443,631.28766 663.79538,629.93013 664.08965,629.82967 C 664.55781,629.48859 676.83865,625.99244 676.83865,625.85868 C 680.01545,624.52108 687.82361,621.8125 688.96064,621.67868 C 689.21478,621.73887 689.30674,621.36956 689.58764,621.46968 C 690.09593,621.18209 690.38017,621.19714 690.84164,620.84268 C 691.34324,620.76242 691.91005,620.84121 692.30464,620.63368 C 693.42822,620.59355 694.30268,619.76772 695.43964,620.21568 C 696.14188,620.18893 696.43448,619.59202 696.90264,619.17068 C 697.39755,618.88309 698.54454,616.89857 698.99264,616.87168 C 700.13628,616.42358 699.99249,615.03094 701.08264,614.99068 C 701.37691,615.58591 701.38854,614.7986 701.70963,615.19968 C 702.18448,615.66784 702.80647,615.20811 703.38163,615.40868 C 703.86317,615.35518 703.89828,614.67307 704.42663,614.57268 C 704.72091,614.1179 705.56366,613.83185 705.26263,613.10968 C 705.40977,612.96255 707.05662,612.56949 707.14363,612.48268 C 707.79906,613.15148 705.59536,613.78517 705.88963,613.94568 C 706.12371,614.09951 706.49824,614.05249 706.72563,613.94568 C 707.70877,613.59122 708.9326,613.30858 710.06963,612.90068 C 710.49766,612.23188 711.9105,612.05619 711.95063,611.01968 C 712.59268,610.59834 713.39858,610.96604 714.04063,611.01968 C 714.1142,611.17351 714.25792,611.27737 714.45863,611.43768 C 714.92679,611.46443 715.46022,611.578 715.92163,611.43768 C 715.96844,611.59819 716.11063,611.46611 716.13063,611.64668 C 716.89975,611.60655 717.80096,611.03299 718.42963,611.01968 C 718.85097,611.12 719.52646,611.29382 720.10163,611.01968 C 720.32233,610.38432 720.98277,610.61847 721.56463,610.18368 C 721.71176,610.01648 721.60469,609.75726 721.56463,609.55668 C 721.42418,608.97483 720.76548,609.1536 721.14663,608.51168 C 721.14663,608.51168 721.35563,608.16217 721.35563,608.30268 C 721.61646,608.24918 721.84218,608.53676 721.98263,608.30268 L 722.19163,608.30268 C 722.56615,608.4632 724.69969,607.46655 724.69962,607.46668 C 724.8267,607.36636 725.16946,607.31955 725.74462,606.63068 C 726.2061,606.49024 726.13086,606.44857 726.37162,606.42168 C 726.59902,606.32805 733.47936,604.32172 735.35862,603.91369 C 735.5927,603.72642 735.6044,603.24 735.98562,603.28669 C 736.34008,603.04592 736.15275,602.71159 735.98562,602.45069 C 736.42034,602.12297 736.92702,602.47737 737.44862,602.45069 C 739.04705,603.13955 739.9817,601.47243 741.41962,601.40569 C 742.53651,600.77702 743.52634,601.01765 744.76362,600.56969 C 746.08784,600.56969 746.8904,599.55973 748.10761,599.73369 C 748.52896,599.62668 748.73802,599.31575 749.15261,599.31569 C 749.17936,599.309 749.36161,599.10675 749.36161,599.10669 C 749.60238,598.68534 750.11234,598.87595 750.40661,598.68869 C 750.54037,598.85589 751.1556,598.82419 751.24261,598.89769 C 751.45663,598.82412 760.89179,597.60376 761.06561,596.80769 C 761.19268,596.89463 763.16403,596.12739 763.36461,596.18069 C 763.73245,595.85298 764.27083,595.64712 764.61861,595.55369 C 765.38773,595.2126 766.58648,595.37499 767.3356,594.92669 C 768.0646,594.37827 769.00934,594.19288 770.0526,594.29969 C 771.223,594.08567 772.18607,593.47024 773.3966,593.46369 C 774.43993,592.90859 775.87952,593.4469 776.9496,593.04569 C 777.39101,593.25302 777.81563,592.98383 778.2036,592.83669 C 778.66507,592.74975 778.46109,591.89034 778.6216,591.58269 C 780.30697,591.32855 781.95891,590.82026 783.6376,590.74669 C 784.11913,590.64637 784.46356,590.65152 784.8916,590.53769 C 785.63396,590.35043 786.3863,590.10284 786.9816,590.53769 C 787.88448,590.20329 788.70208,589.78857 789.69859,589.70169 C 789.81898,589.695 789.80727,589.54131 789.90759,589.70169 C 790.24868,589.67494 796.67745,588.65515 796.80459,588.44769 C 796.82131,588.45772 796.99774,588.43432 797.01359,588.44769 C 797.52857,588.34737 797.8847,587.99946 798.05859,587.61169 C 798.27929,587.37093 798.93806,587.32752 799.31259,587.19369 C 800.4763,587.19369 801.68683,586.89113 802.65659,586.14869 C 802.85054,585.98149 802.44257,585.64208 802.65659,585.52169 L 802.86559,585.52169 C 802.87896,585.41469 802.8054,585.42652 802.86559,585.31269 C 803.22674,585.5869 803.53439,585.16563 803.70159,585.31269 C 804.34364,585.05855 804.97398,585.07514 805.58259,584.89469 C 805.98387,584.77431 806.27988,585.04678 806.62759,584.68569 C 808.15245,584.47837 809.73583,583.8731 810.59858,582.5957 C 810.71897,581.86002 811.3126,581.28806 811.22558,580.5057 C 812.18197,579.25504 812.17528,577.81699 812.06158,576.3257 C 812.02146,575.06167 813.13501,574.18547 813.31558,572.9817 C 813.32896,572.46672 813.56304,572.00686 813.31558,571.5187 C 813.77706,569.32504 812.93611,567.24661 813.52458,565.0397 C 813.61153,565.0397 813.49783,564.74022 813.52458,564.4127 C 813.71185,563.36269 814.13493,562.14561 813.73358,561.06871 C 813.51288,560.92157 813.47937,560.5954 813.73358,560.44171 C 813.88741,559.92673 813.14671,560.0005 813.10658,559.60571 C 812.77887,558.95697 812.64504,558.29325 812.27058,557.72471 C 811.5951,557.53076 810.89613,557.1781 810.18058,557.09771 C 808.72929,557.07096 807.47362,557.85358 806.20959,557.09771 C 805.5876,556.9907 805.17964,556.94235 804.53759,556.88871 z M 755.21361,568.8017 L 755.42261,568.5927 L 755.21361,568.5927 L 755.21361,568.8017 z M 607.86868,643.62367 C 607.39383,643.76412 606.2435,644.91432 606.19668,645.29567 C 606.69159,645.95778 608.72314,644.72217 609.33168,644.66867 C 609.5992,644.5951 609.37181,644.18205 609.33168,644.04167 C 608.85683,643.87447 608.43716,643.45653 607.86868,643.62367 z M 584.87869,648.63966 C 584.47072,648.54603 583.69659,648.68126 583.41569,648.84866 C 583.3555,649.02924 583.76012,649.7599 583.83369,649.89366 C 584.17478,650.10099 584.96229,649.56274 585.29669,649.47566 C 585.51739,649.32853 585.29662,649.03593 585.29669,648.84866 C 585.24318,648.66809 585.10608,648.61311 584.87869,648.63966 z M 576.10069,650.72966 C 575.39123,650.75414 574.75146,651.29313 574.21969,651.77466 C 573.94549,652.12244 574.37352,652.47189 574.21969,652.81966 C 574.12606,653.134 574.03417,653.54879 574.42869,653.65566 C 575.56565,654.11713 576.32307,652.7897 577.14569,652.40166 C 578.28265,652.29466 579.1555,651.86482 580.07169,651.35666 C 580.07169,651.1694 580.2322,650.86329 580.07169,650.72966 C 579.91787,650.6561 579.59852,650.77635 579.44469,650.72966 C 578.44818,650.87011 577.69745,650.76464 576.72769,650.93866 C 576.46519,650.81159 576.33718,650.7215 576.10069,650.72966 z M 571.9207,652.81966 C 571.54282,652.8832 571.18,652.9684 570.8757,653.02866 C 570.46773,653.28281 569.508,653.41804 569.6217,654.07366 C 569.84909,654.53513 570.6483,654.48678 570.8757,654.70066 C 571.41074,654.6806 572.31535,654.77751 572.75669,654.28266 C 573.06434,654.02183 572.88551,653.6455 572.96569,653.23766 L 572.96569,653.02866 C 572.68814,652.70764 572.29857,652.75613 571.9207,652.81966 z M 567.9497,654.07366 C 567.37881,654.17057 567.10367,654.9833 566.4867,655.11866 C 566.2058,655.28586 566.16393,655.49152 566.2777,655.74566 C 566.64554,656.05331 567.31267,656.0618 567.7407,655.95466 C 568.32924,655.64033 569.12177,655.18741 568.9947,654.49166 L 568.5767,654.28266 C 568.33258,654.15225 568.13997,654.04136 567.9497,654.07366 z M 563.3517,656.37266 C 562.76984,656.52649 562.59261,656.70385 562.0977,656.79066 C 562.05757,656.84417 561.9824,656.80397 561.8887,656.79066 C 561.61449,656.97793 561.37038,657.62994 561.4707,658.04466 C 561.62452,658.37906 561.95899,658.33405 562.3067,658.25366 C 562.99556,657.86576 564.14255,657.71528 564.3967,656.99966 C 564.28969,656.52481 563.8533,656.35949 563.3517,656.37266 z M 537.64471,657.83566 C 537.19662,657.81981 536.53952,658.02299 536.18171,658.25366 C 535.98776,658.52118 535.47439,658.64177 535.55471,659.08966 C 535.60153,659.41068 535.65175,659.54959 535.97271,659.71666 C 536.62814,659.70997 537.62291,659.53936 538.27171,659.29866 C 538.68637,659.28528 538.73646,658.75011 538.68971,658.46266 C 538.47235,658.02794 538.09281,657.85151 537.64471,657.83566 z M 520.08872,664.52366 C 519.67908,664.62732 519.37812,664.71099 519.04372,664.94166 C 518.84308,665.17574 518.94333,665.55027 519.04372,665.77766 C 519.75265,666.34614 520.38466,665.91135 521.13372,665.77766 C 521.47481,665.61715 521.75905,665.33625 521.55172,664.94166 L 521.34272,664.52366 C 520.92806,664.37987 520.49836,664.41999 520.08872,664.52366 z M 515.90872,666.40466 C 515.64287,666.40633 515.32018,666.54684 515.07272,666.61366 C 514.43067,666.48658 514.45582,667.26253 514.02772,667.44966 C 513.89396,667.69042 514.08296,667.71403 514.23672,667.86766 C 514.45743,668.01479 514.64302,667.90765 514.86372,667.86766 C 515.17137,667.68708 515.47902,667.87622 515.69972,668.07666 C 515.90036,668.27061 515.64455,668.50282 515.49072,668.70366 C 515.51079,668.91767 515.41883,669.17008 515.69972,669.33066 C 515.90705,669.39754 516.2682,669.51792 516.53572,669.33066 C 516.78318,668.61504 517.62413,668.77207 517.99872,668.07666 C 518.36656,667.9429 518.97851,667.98643 519.25272,667.65866 C 519.654,667.44464 520.1556,667.61365 520.08872,667.03166 C 519.86133,666.617 519.37143,666.63359 519.04372,666.61366 C 518.66919,666.97481 518.20438,666.62041 517.78972,666.61366 L 516.53572,666.61366 C 516.34846,666.43308 516.17457,666.40298 515.90872,666.40466 z M 491.24673,672.04765 C 490.65819,672.12791 490.27196,672.43208 489.78373,672.46565 C 489.08818,672.97394 488.17193,672.8551 487.27573,673.51065 C 487.13529,674.25302 488.29064,674.37013 488.73873,674.76465 C 490.07633,675.17262 490.95239,674.18266 492.08273,673.92865 C 491.88878,673.43374 492.27,672.98738 492.08273,672.46565 C 491.90884,672.13125 491.65477,672.06765 491.24673,672.04765 z M 486.23073,674.34665 C 485.96321,674.66099 485.01847,674.54729 485.18574,675.18265 C 485.17905,675.47692 485.5519,675.70913 485.81274,675.80965 C 486.34109,675.68258 486.91452,676.18264 487.27573,675.60065 C 487.40281,675.34651 487.30255,675.01866 487.27573,674.76465 C 487.05503,674.37675 486.64532,674.44691 486.23073,674.34665 z M 483.09574,675.39165 C 482.72121,675.43847 482.32662,675.93325 482.25974,676.22765 C 481.76482,676.50855 481.3501,676.63729 481.42374,677.27265 C 481.50399,677.50673 481.78997,677.71092 482.05074,677.69065 C 482.71285,677.36963 483.95849,677.39317 483.93174,676.43665 C 483.73778,676.08888 483.63084,675.45178 483.09574,675.39165 z M 478.91574,677.89965 C 478.7143,677.90219 478.44256,678.04518 478.28874,678.10865 C 478.04797,678.28923 477.35911,678.5837 477.45274,678.94465 C 477.57981,679.07172 478.10147,678.96485 478.28874,678.94465 C 478.62314,678.75739 479.36711,678.63025 479.33374,678.10865 C 479.30364,677.86788 479.11718,677.89711 478.91574,677.89965 z M 472.64574,680.82565 C 472.33729,680.93012 472.16588,681.21516 472.01874,681.45265 C 471.99199,681.66667 472.05379,681.94582 472.22774,682.07965 C 472.61565,682.2201 472.95165,681.9911 473.27274,681.87065 C 473.48676,681.70345 473.62219,681.34885 473.48174,681.03465 C 473.30451,680.727 472.95419,680.72118 472.64574,680.82565 z"
         id="path4536"
         style="fill:#d11b28" />
      <path
         d="M 799.52159,514.46173 C 798.78752,514.45156 798.10039,514.49691 797.43159,514.67073 C 794.06746,515.13207 786.76089,517.35429 783.6376,518.22373 C 783.36332,518.39748 781.66631,519.1549 779.6666,519.26872 C 778.99773,519.40235 778.11338,519.42917 777.7856,520.10472 C 777.95273,520.86033 776.97301,522.08283 776.5316,522.40372 C 776.33089,522.13607 776.04512,521.80863 775.9046,521.56772 C 773.56373,521.40708 771.57238,522.25177 769.4256,522.61272 C 769.26502,522.65272 768.88561,522.75331 768.7986,522.61272 C 766.23035,523.36833 763.60029,523.82486 761.06561,524.49372 C 760.34992,524.8213 744.41082,530.61658 744.13662,530.76372 C 743.42093,530.9241 742.74886,531.16353 742.04662,531.39072 C 741.45801,531.56447 740.92972,531.65971 740.37462,531.59972 C 740.10703,531.96074 739.3347,531.94094 739.12062,532.43572 C 739.261,533.71299 740.50838,532.52587 741.21062,532.85372 C 741.15705,533.09435 740.96644,533.32034 740.79262,533.48072 C 739.62884,533.8618 738.30127,534.10778 737.03062,534.10772 C 736.60921,533.99389 736.95712,533.83037 737.03062,533.68972 C 737.03055,533.54914 737.151,533.3386 737.03062,533.27172 C 736.27481,532.85693 734.98917,531.74344 734.31362,532.01772 C 728.06696,534.71285 719.66691,537.41654 714.24963,538.91472 C 709.12656,541.02799 706.01162,542.01293 701.91863,543.30371 C 700.84849,543.71155 699.37552,543.97599 698.36564,544.55771 C 698.43245,544.94548 697.78706,544.73655 697.94764,545.18471 C 697.76031,545.36516 697.75703,545.25347 697.52964,545.39371 C 697.22861,545.24644 696.97453,545.08459 696.69364,545.18471 C 696.29229,545.05082 695.72722,545.21802 695.43964,545.18471 C 695.18543,545.49223 694.5803,545.34864 694.18564,545.60271 C 693.96487,545.65608 693.51858,545.84662 693.55864,546.02071 C 692.90984,546.28141 691.52709,546.20283 691.25964,547.06571 C 691.01212,547.13246 690.9336,547.03889 690.63264,547.06571 C 687.14144,548.20254 683.38961,549.46824 679.76465,550.61871 C 679.65088,550.7724 679.40015,550.45833 679.34665,550.61871 C 666.82665,554.74507 656.00728,559.31164 644.44366,563.7857 C 644.17607,563.93939 643.74985,564.31426 643.81666,564.6217 C 644.13093,565.36394 644.93356,564.4127 645.48866,564.4127 C 645.64911,564.43932 645.71772,564.65013 645.69766,564.8307 C 645.09567,565.21847 644.60752,565.20503 644.02566,565.6667 C 643.22972,565.5395 642.40717,566.25866 641.51766,566.0847 C 640.84044,566.56109 639.54818,566.53715 639.63666,567.5477 L 639.42766,567.7567 C 639.10657,568.03746 638.886,567.69491 638.59166,567.5477 C 637.4212,567.5275 636.56012,568.71824 635.45667,568.3837 C 634.92825,568.57752 634.02704,568.45065 633.99367,569.2197 C 633.69264,569.35333 633.46531,569.73789 633.15767,569.6377 C 632.58243,570.39331 631.48567,570.82629 630.64967,571.1007 C 629.43907,571.73593 628.03299,571.37832 627.09667,572.3547 C 626.2606,572.40807 616.30057,575.36109 616.01967,575.2807 C 615.39094,575.23375 611.74096,577.07288 611.21268,576.9527 C 611.00528,577.30703 610.67102,577.26376 610.37668,577.3707 C 610.06227,577.53108 607.1748,578.32708 606.40568,579.8787 C 606.23172,580.21296 604.20526,580.78325 603.89768,580.9237 C 603.24888,581.15095 603.40444,580.06101 603.27068,580.0877 C 602.22729,580.75636 596.02584,582.43498 589.68569,585.10369 L 589.26769,585.10369 C 588.01028,585.62522 586.67609,586.26058 585.50569,586.77569 C 585.19129,586.90263 584.63458,587.01124 584.46069,586.98469 C 584.27336,587.15176 583.77851,587.42256 583.62469,587.40269 C 583.43067,587.52294 583.19164,587.67342 582.99769,587.82069 C 581.61321,588.38235 580.50474,588.63001 579.02669,589.49269 C 578.24413,589.82027 577.34132,590.11642 576.51869,590.53769 C 576.13072,590.45061 575.80809,590.95556 575.47369,590.95569 C 569.55475,593.95178 563.09254,596.17567 556.8727,598.89769 C 555.45478,599.51285 554.11216,600.13845 552.9017,600.98769 C 553.537,602.23152 551.38694,602.28001 550.8117,602.86869 C 550.24985,602.99562 550.05603,603.7079 549.97571,604.12269 C 549.38041,604.21618 549.59944,605.09907 548.93071,604.95869 L 548.72171,604.54069 C 547.81207,603.7915 546.97447,604.13767 546.00471,604.33169 C 545.20208,604.94016 537.49256,608.25085 534.50971,609.34768 C 534.00805,609.5415 533.4413,609.99468 533.04671,609.97468 C 531.96988,610.38252 530.91324,611.25062 529.70271,611.43768 C 529.53545,611.56462 529.34992,611.74687 529.07572,611.64668 L 529.07572,611.85568 C 528.92851,611.87561 528.79148,611.82886 528.65772,611.85568 C 528.67102,612.23008 527.69458,612.23503 527.82172,612.48268 C 527.72133,612.58287 527.47896,612.42409 527.61272,612.69168 C 527.15118,612.99251 526.55775,612.80718 526.14972,612.90068 C 526.14965,612.95405 526.19653,613.07617 526.14972,613.10968 C 525.66811,613.1898 525.1415,613.37399 524.68672,613.52768 L 524.68672,613.73668 C 524.34556,614.0442 523.45613,613.99096 523.01472,614.57268 C 522.62675,615.16778 522.04496,615.70135 521.34272,616.03568 C 521.25571,616.00211 521.18722,615.90199 521.13372,616.03568 C 520.74575,616.03555 520.19406,616.19967 519.87972,616.45368 C 519.3513,616.82807 518.58726,616.93522 517.99872,617.28968 C 517.45024,617.89815 516.40865,617.88003 515.69972,618.33468 C 515.30506,618.73583 514.78674,618.26265 514.44572,618.54368 C 514.05775,618.87126 513.69332,618.43848 513.19172,618.75268 C 507.13902,621.80896 501.59474,624.45426 495.63573,627.53067 C 493.80984,628.42004 491.85367,629.23759 490.20173,630.24767 C 489.74688,630.72239 489.62824,631.10059 489.57473,631.50167 C 489.76193,631.56173 490.74848,631.19737 490.82873,631.08367 C 491.143,631.00328 491.46403,630.98516 491.66473,631.29267 C 490.94236,632.38268 489.86907,632.40275 488.73873,632.96467 C 487.05329,633.77379 485.4683,634.27906 483.72274,635.05467 C 482.77966,636.17812 480.97731,636.27677 479.96074,637.35367 C 480.02086,638.14941 477.65512,638.89204 476.82574,639.02567 C 476.27726,639.74115 471.72447,641.58062 471.18274,642.36967 C 470.87503,643.13197 467.67984,643.54488 467.21174,643.83267 C 466.08809,643.83253 465.02651,645.18518 464.07675,645.71367 C 463.64196,645.9543 463.72736,646.67674 463.03175,646.54967 C 462.47657,646.71673 462.1607,647.11988 461.98675,647.59467 C 461.73254,647.62128 461.40482,647.06799 461.15075,646.96767 C 460.80959,647.04779 455.35393,650.65783 454.67175,650.93866 C 453.37421,651.98855 451.98491,652.07208 450.70075,653.02866 C 450.47329,653.41643 450.97663,653.72595 450.90975,654.07366 C 450.56191,654.28086 450.23928,654.34446 449.86475,654.49166 C 448.41339,654.13038 447.30151,654.55854 446.31175,655.32766 C 445.78333,656.11671 445.66636,659.09287 446.72975,658.67166 C 446.97714,658.43745 446.72139,658.17153 446.52075,658.04466 C 446.64776,657.95758 446.72975,657.96273 446.72975,657.83566 C 447.12428,657.69508 447.51559,657.1902 447.98375,657.41766 C 449.24772,657.08313 450.83117,656.44442 451.11875,656.16366 C 451.86774,656.10334 452.31925,655.12027 453.20875,655.32766 C 454.17175,655.64186 454.94763,654.82613 455.71675,654.49166 C 456.05777,654.40458 456.06285,654.26099 456.34375,654.07366 C 457.1128,653.72575 457.98231,654.22093 458.85175,654.07366 C 459.35997,653.72575 459.90845,653.2293 460.52375,653.02866 C 460.81795,652.43999 461.62058,652.43336 462.19575,652.19266 C 462.22912,651.45685 463.14384,651.3465 463.65875,650.93866 C 463.83925,650.61082 464.40954,650.50555 464.70374,650.31166 C 464.9712,650.36503 465.04323,650.79153 465.33074,650.93866 C 466.07973,650.79139 466.55632,651.31968 467.21174,650.93866 C 467.6999,650.30317 468.67969,649.95406 468.46574,649.05766 C 468.86027,648.63619 469.36688,648.40886 469.92874,648.22167 C 470.14938,648.3486 470.36012,648.35857 470.34674,648.63966 C 470.56738,649.34846 471.39509,648.82706 471.80974,648.63966 C 472.06382,648.82011 472.56716,648.92905 472.85474,648.84866 C 473.70405,648.48069 473.89299,647.71652 473.89974,646.96767 C 474.53503,646.41912 475.68711,646.40066 475.78074,645.50467 C 476.24214,645.62492 476.23057,646.3606 476.82574,646.34067 C 477.3139,646.2469 477.69183,645.79874 478.07974,645.50467 C 478.38063,645.45103 478.61485,645.56493 478.91574,645.50467 C 479.2367,645.3574 479.20834,645.025 479.54274,644.87767 C 480.25829,644.71702 480.40716,645.50126 480.58774,645.92267 C 481.20965,646.48432 482.00225,645.95591 482.67774,645.92267 L 482.88674,646.34067 C 482.87329,646.65487 482.37343,646.7471 482.25974,646.96767 C 482.20617,647.68984 481.40535,648.24494 480.79674,648.63966 C 480.42883,649.34846 479.29027,649.1311 478.91574,649.89366 C 478.9023,650.64259 477.58817,650.75648 477.66174,651.56566 C 477.7018,651.81299 477.79215,651.78817 478.07974,651.77466 C 478.66822,651.29968 479.65476,651.35151 480.16974,650.72966 C 480.89866,650.55564 481.3903,649.67972 482.25974,649.89366 C 483.05554,649.22473 484.15578,649.46075 485.18574,649.26666 C 485.66052,648.892 486.27253,648.78352 486.43973,648.22167 C 486.21228,647.81356 486.58185,647.50458 486.64873,647.17667 C 487.80569,646.72175 488.89089,646.2988 490.20173,646.13167 C 490.48925,645.65668 490.87381,644.86917 491.45573,644.66867 C 492.72638,643.96629 493.90026,643.69215 495.21773,642.99667 L 495.42673,643.20567 L 495.63573,642.99667 C 496.3379,642.68889 496.82118,642.6089 497.51673,642.99667 C 498.41954,642.6822 499.16198,642.21925 500.02473,641.95167 C 500.71353,641.51681 501.48104,641.21438 502.32373,640.90667 C 504.27656,639.98359 506.31145,638.84509 508.38472,638.18967 C 508.86619,637.58093 509.87621,637.77856 510.05672,636.93567 C 510.7589,636.40718 511.70197,636.09144 512.56472,635.89067 C 513.55448,636.53258 514.33865,635.64669 515.28172,635.47267 C 515.72306,635.63305 516.33174,636.05607 516.95372,635.68167 C 517.31481,635.27357 518.14091,635.19191 518.20772,634.63667 C 518.80957,634.03462 520.04023,633.57154 520.71572,633.59167 C 521.27744,634.21352 519.69908,634.45268 519.87972,635.05467 C 520.0736,635.81697 521.56015,634.99441 521.76072,635.05467 C 521.9546,634.98097 522.16708,634.89918 522.38772,634.84567 C 522.73543,634.73853 522.87929,634.54652 522.80572,634.21867 C 522.6652,634.09147 522.8108,633.72717 522.59672,633.80067 C 522.69028,633.66678 522.61183,633.38254 522.80572,633.38267 L 523.01472,633.38267 C 523.08822,633.29559 523.43272,633.26918 523.43272,633.38267 C 523.53297,633.41598 523.65677,633.01971 523.85072,633.17367 C 524.03791,633.05984 523.96782,632.92454 524.26872,632.96467 C 524.49604,632.83747 524.93076,632.98326 525.10472,632.75567 L 525.10472,632.54667 C 525.27185,632.60673 525.41571,632.33761 525.52272,632.33767 C 525.54271,632.00983 525.98914,632.23581 526.14972,632.12867 C 526.43723,632.29574 526.79009,632.02835 526.77672,632.12867 C 527.04417,632.20211 527.54082,632.39639 527.82172,632.12867 C 528.01226,632.22384 528.27222,632.18104 528.44872,632.12867 C 528.57706,632.05898 528.75543,632.18117 528.86672,632.12867 L 529.28471,631.91967 L 529.28471,632.12867 C 529.81969,631.96803 530.54206,631.7492 530.95671,631.50167 L 531.16571,631.29267 C 531.31947,631.33267 541.19771,627.53054 541.19771,627.53067 C 541.43172,627.40347 542.04882,627.46206 542.24271,627.32167 C 543.01845,627.4018 543.16565,626.47879 543.91471,626.48568 C 544.00159,626.31834 544.57689,626.35024 544.75071,626.27668 C 545.07835,626.06921 545.41456,626.06768 545.79571,626.06768 C 546.27718,626.27487 546.48624,625.79012 546.84071,625.64968 C 548.05117,624.37882 549.79513,623.80867 549.97571,623.76868 C 550.90527,623.15994 553.18594,622.65332 554.1557,622.30568 C 555.10533,622.29217 555.93471,621.9262 556.6637,621.67868 C 557.55983,621.55816 558.37583,621.00827 559.1717,620.63368 C 559.53947,619.4899 559.22353,619.44161 559.7987,619.58868 C 560.49419,619.02006 561.29347,619.83266 561.8887,619.17068 C 562.06921,618.73583 564.5338,617.25116 564.8147,617.49868 C 566.09873,617.44504 567.26411,616.76628 568.3677,616.24468 C 568.6619,616.08403 569.04318,616.12757 569.2037,615.82668 C 569.32401,614.65615 567.89285,615.56565 567.5317,614.99068 C 567.63195,614.46888 568.35766,614.52406 568.7857,614.36368 C 569.07321,614.43043 569.24717,614.91537 569.6217,614.78168 C 570.25699,614.37358 571.39736,614.20324 571.7117,613.52768 C 571.91896,612.89888 572.67309,613.05283 573.17469,612.69168 C 573.51572,612.83868 573.70305,612.25522 574.01069,612.48268 C 574.024,612.48255 574.01745,612.68486 574.01069,612.69168 C 574.16445,612.75843 574.07256,612.81367 574.21969,612.90068 C 575.65086,613.12125 577.17572,612.46757 578.39969,612.27368 C 578.60027,612.46081 578.99987,612.35039 579.02669,612.69168 C 579.24064,613.15971 580.20211,612.93412 580.48969,612.90068 C 580.71702,612.59959 585.05084,610.9429 585.50569,610.60168 C 585.50562,610.60155 586.32323,610.48638 586.55069,610.39268 C 587.01209,610.57312 586.80978,609.90098 587.17769,609.97468 C 587.81298,609.95449 588.48185,609.24221 588.84969,608.72068 C 588.97669,609.07501 589.27611,608.66705 589.47669,608.72068 C 589.75083,608.72055 589.81604,608.32422 590.10369,608.51168 C 590.42464,608.29085 593.45605,607.04875 593.65669,607.04868 C 593.83719,606.88135 594.49937,606.7712 594.49268,606.63068 C 595.60283,606.34965 596.96056,606.10073 597.83668,605.58568 C 598.64586,605.09064 599.5153,604.86164 600.34468,604.54069 C 601.16055,605.16254 602.21231,604.49554 603.06168,604.74969 C 605.05464,604.28139 606.77185,603.67974 608.70468,603.07769 C 609.54061,602.74984 610.51211,602.38735 611.42168,602.03269 L 611.63068,602.03269 C 611.79112,601.80516 612.01691,601.82349 612.25768,601.82369 C 614.45796,601.03437 616.48289,600.15349 618.73667,599.52469 C 619.51241,599.36404 619.989,598.85422 620.61767,598.47969 C 620.61092,598.09165 620.2715,598.04015 619.99067,597.85269 L 620.19967,597.64369 C 620.54069,597.59005 620.93027,597.34621 621.24467,597.22569 C 622.10067,596.96472 623.08394,596.58204 623.75267,596.18069 C 624.39465,596.46145 624.95143,596.36802 625.63367,596.18069 C 626.30909,595.68564 627.37589,595.74925 627.72367,594.92669 C 628.49272,594.61222 629.58795,594.27448 630.02267,593.67269 L 630.02267,593.88169 C 630.15636,593.88824 630.16472,593.88162 630.23167,593.88169 C 630.41887,593.94175 630.46909,594.13731 630.64967,594.09069 C 630.93718,594.10393 631.36535,594.06387 631.48567,594.09069 L 631.69467,593.88169 C 632.23633,593.94844 632.845,593.61738 633.36667,593.46369 C 633.39335,593.24285 633.52216,592.96383 633.57567,592.83669 C 633.48197,592.67605 633.83978,592.50543 633.99367,592.41869 C 634.23437,592.12429 634.55546,592.28995 634.82967,592.20969 C 635.02355,592.04905 635.21583,592.15619 635.45667,592.20969 C 635.50341,592.25637 635.32959,592.45875 635.45667,592.41869 C 635.57029,592.29817 635.73415,592.39682 635.87467,592.20969 C 636.49658,592.49714 637.00494,591.80687 637.54666,592.00069 C 637.70042,591.67285 637.89952,591.83684 638.17366,591.58269 C 638.82233,591.23478 639.51969,591.30862 640.05466,590.74669 C 640.1081,590.80006 640.29035,590.90199 640.26366,590.95569 C 640.4308,590.88868 640.49942,590.84026 640.47266,590.74669 C 640.71336,590.84019 640.88565,590.54612 641.09966,590.74669 C 641.21998,590.64624 641.39728,590.50412 641.51766,590.53769 C 641.91888,590.54425 642.03257,590.3422 642.35366,590.32869 C 642.72144,590.07441 643.09101,590.20496 643.39866,589.91069 C 643.3986,589.91056 644.35344,589.88708 644.86166,589.49269 C 645.19599,589.4123 646.04209,589.48266 646.11566,589.07469 C 646.13566,589.08793 646.13572,589.23694 646.11566,589.28369 C 646.11559,589.28356 646.83128,588.94742 646.95166,589.07469 C 647.64046,588.80704 647.85447,589.53095 648.62366,589.28369 C 648.8443,588.94247 649.50139,589.15321 649.66866,588.86569 L 649.87766,588.86569 C 650.43938,588.80537 650.57655,588.63496 651.13166,588.44769 C 651.70007,588.26698 651.96431,588.0949 652.38566,587.82069 C 652.46585,587.74699 652.66816,588.19014 652.59466,588.02969 C 652.88217,587.96268 653.29864,587.71195 653.63966,587.61169 C 653.79341,587.3106 659.57191,585.66896 660.32765,585.52169 C 663.59802,584.51836 666.75141,583.43658 669.94165,582.3867 C 670.87121,582.39994 671.80927,581.80491 672.65865,581.5507 C 673.207,581.26298 673.71696,581.20118 673.70365,580.5057 C 673.33574,580.19123 673.12012,580.34358 672.65865,580.2967 C 672.45125,580.54402 672.32766,580.05085 672.24065,580.5057 C 672.10682,580.3718 672.24072,580.2149 672.24065,580.0877 C 672.42785,580.03406 672.38444,579.85188 672.65865,579.8787 C 672.7589,579.55754 673.17356,579.72808 673.49465,579.4607 C 673.57484,579.40706 673.90756,579.1178 674.12165,579.2517 C 674.64993,578.97736 675.2653,579.02103 675.79365,578.8337 C 676.05441,578.47241 676.55775,578.52939 676.83865,578.4157 C 677.2733,578.28849 678.89855,577.94928 679.34665,577.7887 C 679.58735,577.85544 679.71943,577.52613 679.97365,577.5797 C 679.97358,577.57956 681.79612,576.7037 682.06364,576.7437 C 682.31772,576.40916 682.53006,576.16178 682.69064,575.9077 C 682.94472,575.79387 683.29758,575.67195 683.31764,575.6987 C 683.66535,575.69857 684.21544,575.76404 684.36264,575.4897 C 684.71035,575.43606 685.16019,575.32237 685.40764,575.4897 C 685.76873,575.31568 686.31387,575.40944 686.66164,575.4897 C 687.317,575.9711 688.30528,575.51665 688.96064,575.4897 C 689.60262,574.72713 691.25964,574.22881 691.25964,574.2357 C 691.07231,574.55659 690.45367,575.55818 690.84164,575.6987 C 691.52375,575.57818 692.99016,574.83916 693.55864,574.4447 C 693.85284,573.66876 692.8146,573.80111 692.51364,573.3997 C 692.70084,573.326 692.83299,573.02838 693.14064,572.9817 C 693.78931,572.61373 694.21079,573.52002 694.81264,573.3997 C 695.95622,573.05848 697.03981,572.99173 698.15664,572.5637 C 698.22345,571.60049 698.86891,572.701 699.41064,572.1457 C 701.16951,572.072 702.5657,571.2142 704.21763,571.1007 C 704.71917,570.96681 704.88811,570.66076 705.26263,570.4737 L 705.47163,570.6827 C 705.95979,570.18766 706.27754,570.47042 706.72563,570.0557 L 707.14363,569.6377 C 707.2372,569.64426 708.14516,569.75655 708.60663,569.4287 C 708.66676,569.47538 709.48443,568.28171 709.65163,568.1747 C 709.87227,568.14782 710.6448,566.73993 710.90563,566.9207 C 711.15302,566.70655 711.32537,566.58951 711.53263,566.5027 C 711.97397,566.35543 712.23153,566.15312 712.78663,566.2937 C 713.08083,566.22 713.62604,565.64657 714.04063,565.6667 C 714.64917,565.26529 715.09064,565.8959 715.71263,565.8757 C 717.25749,565.25359 717.94976,565.36066 719.47463,565.0397 C 719.74877,564.9125 720.29391,564.69039 720.72863,564.8307 C 721.33048,564.79044 721.67163,564.7354 722.40063,564.6217 C 722.72827,564.30055 726.18603,563.50795 727.41662,563.3677 C 729.66372,562.7389 732.30394,562.02154 734.73162,561.48671 C 734.86531,561.54008 735.03599,561.13706 735.14962,561.27771 C 736.5139,560.75591 737.93858,560.80787 739.32962,560.23271 C 739.83784,560.29945 739.81784,560.02351 740.16562,560.02371 L 740.37462,560.02371 C 740.64876,559.88981 741.02335,559.92191 741.21062,559.81471 C 741.41788,559.87476 749.25788,557.58606 749.77961,557.09771 C 750.027,557.07082 750.27947,557.06413 750.40661,557.09771 C 750.87471,556.89693 751.32788,556.53765 751.86961,556.47071 C 752.14375,556.38363 752.2224,556.24853 752.49661,556.26171 L 752.49661,556.47071 C 753.25229,556.11611 753.97305,556.08963 754.79561,555.63471 C 754.98281,555.0059 755.32563,554.99273 755.84061,554.79871 C 757.52592,554.59793 758.99072,554.02805 760.85661,553.75371 C 762.2744,554.10135 763.28107,553.2604 764.61861,553.12671 C 765.91601,553.67499 767.75688,552.90942 769.0076,552.70871 C 769.34862,552.60826 769.34535,552.40949 769.4256,552.08171 C 770.03414,551.66692 771.05574,551.72892 771.7246,551.45471 C 773.0822,551.7756 774.76757,551.13549 775.9046,550.82771 C 776.21218,551.10178 776.58009,550.25595 776.7406,550.40971 C 776.86092,550.40958 776.80246,550.30939 776.9496,550.40971 C 777.29062,550.18218 777.7957,550.3011 778.2036,550.20071 C 778.33729,550.28083 778.61498,550.03338 778.6216,550.20071 C 778.88905,550.09357 778.96102,550.00656 779.2486,550.20071 C 779.54949,549.90631 787.95972,548.30975 788.02659,547.90171 C 788.10678,547.95508 790.0447,547.22776 790.32559,547.27471 C 790.32553,547.24783 792.63971,546.55254 792.83359,546.43871 C 793.18799,546.5924 795.25639,545.08767 795.55059,544.76671 C 795.95849,544.84684 796.01206,544.2817 796.38659,544.34871 C 796.3999,544.0008 798.58193,545.09269 800.77559,543.72171 C 803.02269,542.91902 805.17455,541.7103 807.25459,540.58672 C 807.93669,539.37605 810.07023,540.5282 810.59858,539.12372 C 810.59183,537.33789 812.94614,537.55866 813.94258,536.61572 C 813.95589,535.90666 814.5964,536.27289 814.56958,535.57072 C 814.89054,533.67788 815.33369,531.30391 813.94258,529.71872 C 813.90239,529.51795 813.63821,528.90105 813.52458,528.67372 C 813.47101,528.53983 813.33732,528.39603 813.52458,528.25572 C 813.60477,527.96132 813.31552,527.41979 813.31558,527.41972 C 813.32889,527.03168 813.70349,525.90656 813.31558,525.53872 C 812.90086,524.70259 813.17848,522.73324 812.89758,521.77672 C 812.30897,520.03771 811.54494,518.06642 811.01658,517.80573 C 810.83594,517.86578 810.15885,516.16222 809.97158,516.34273 C 809.57024,515.96138 808.56035,515.71927 808.29959,515.29773 C 808.20589,514.85619 805.90201,514.56198 805.37359,514.46173 L 801.61159,514.67073 C 801.01629,514.59034 800.2556,514.47176 799.52159,514.46173 z M 470.97374,638.39867 C 470.7396,638.09089 467.29695,639.75981 467.00274,639.65267 C 466.4877,640.76943 464.28073,640.39336 464.49474,641.95167 C 465.28386,642.18561 464.8676,643.68888 465.95774,643.41467 C 466.30545,643.26071 467.15824,643.20908 467.21174,642.78767 C 466.91072,642.37957 467.8471,642.48176 468.04774,642.16067 C 468.18812,641.89301 468.29012,641.64583 468.25674,641.32467 C 467.47418,640.82962 471.43521,639.00059 470.97374,638.39867 z M 462.61375,642.78767 C 462.50667,642.98149 460.00543,644.12513 460.10575,644.45967 C 460.29963,644.84744 462.5569,644.6686 463.03175,644.66867 C 463.29251,644.62172 463.84099,643.54843 463.86775,643.41467 C 463.31926,643.34765 463.32274,642.56676 462.61375,642.78767 z M 479.75174,646.34067 C 477.97935,646.44085 476.80066,647.74 476.19874,648.22167 C 476.33243,648.83683 478.2252,647.97441 478.70674,648.22167 C 479.06782,647.94732 479.65637,647.93401 479.54274,647.38567 C 479.56274,647.21833 480.06607,646.44747 479.75174,646.34067 z M 474.94474,649.47566 C 474.11536,649.97044 473.13905,649.42738 472.43674,650.10266 C 472.13571,650.47706 471.76299,651.03725 471.80974,651.56566 C 471.95681,652.56873 473.32624,652.10057 474.10874,652.40166 C 474.97143,652.46172 475.67039,651.89826 476.19874,651.35666 C 476.55982,651.01544 476.279,650.50394 476.19874,650.10266 C 476.00472,649.72131 475.45972,649.47566 474.94474,649.47566 z M 468.04774,651.77466 C 466.71008,652.49683 465.57987,653.98839 463.86775,654.28266 C 463.4664,654.39622 461.92662,655.37107 461.98675,655.74566 C 462.10706,656.10668 463.80414,655.92778 464.28575,655.95466 C 466.17838,656.3625 467.02776,654.67545 468.46574,654.07366 C 469.0074,653.40473 470.12109,654.21592 470.55574,653.44666 C 470.62256,653.10544 470.46044,652.58899 470.34674,652.40166 C 469.57087,652.18751 468.964,651.69447 468.04774,651.77466 z M 460.31475,656.16366 C 460.16099,656.15744 459.99372,656.25562 459.89675,656.37266 C 458.57246,656.84069 458.79329,657.6486 459.06075,657.83566 C 459.39508,658.04285 460.76117,657.41599 460.94175,657.20866 C 461.3029,656.72699 460.77608,656.18239 460.31475,656.16366 z M 443.17675,657.20866 C 442.74866,657.23528 442.63663,657.5347 442.54976,657.83566 C 442.04809,658.14986 441.43119,658.44775 441.50476,659.08966 C 441.58494,659.34367 441.87092,659.30515 442.13176,659.29866 C 442.8473,658.94406 444.23513,659.20356 444.22175,658.25366 C 443.9943,657.84556 443.7453,657.2623 443.17675,657.20866 z"
         id="path4490"
         style="fill:#8a909e" />
      <path
         d="M 247.97085,471.19875 C 247.97085,471.19875 248.09123,479.14081 247.97085,479.14074 C 252.63238,479.14074 259.84204,480.74573 263.01884,490.00874 L 317.56781,636.51767 L 330.52581,636.51767 L 362.92079,535.36172 C 364.54598,530.92089 364.59279,528.04665 364.59279,528.04672 C 364.59279,528.04672 364.89047,530.92095 366.68279,535.36172 L 403.25777,636.51767 L 416.00677,636.51767 L 455.50775,505.68373 C 461.13904,487.90035 470.28321,479.14081 481.63274,479.14074 L 481.63274,471.19875 L 428.96476,471.19875 C 428.96476,471.19875 429.08515,479.14081 428.96476,479.14074 C 442.89586,479.14074 447.10762,491.98852 442.13176,510.07273 L 424.57576,571.5187 C 422.91045,576.82897 422.90376,579.04256 422.90376,579.0427 C 422.90376,579.0427 422.45895,576.65662 420.81377,571.7277 L 391.97178,490.00874 C 390.61412,484.94592 391.09732,479.14081 400.54077,479.14074 L 400.54077,471.19875 L 336.3778,471.19875 L 336.3778,479.14074 C 342.8451,479.14074 347.67223,482.48461 350.3808,490.00874 L 358.74079,513.20773 L 339.7218,571.5187 C 337.78228,577.23025 337.6318,579.04256 337.6318,579.0427 C 337.6318,579.0427 337.52152,577.47095 335.5418,571.5187 L 305.65482,490.00874 C 304.1634,484.95261 305.68157,479.14081 314.85081,479.14074 L 314.85081,471.19875 L 247.97085,471.19875 z M 755.00461,473.70675 C 750.15581,493.29589 732.86741,513.20097 711.53263,520.73172 L 711.53263,528.04672 L 727.62562,528.04672 L 727.62562,615.19968 C 727.62562,619.52681 729.4146,637.98074 758.97561,637.98067 C 769.09455,637.98067 776.65198,637.26178 782.3836,635.89067 L 782.3836,627.11267 C 776.43128,628.17607 764.61861,628.95689 764.61861,617.70768 L 764.61861,528.04672 L 785.3096,528.04672 L 785.3096,518.01473 L 764.61861,518.01473 L 764.61861,473.70675 L 755.00461,473.70675 z M 521.55172,516.13373 C 495.88312,516.13359 462.40475,535.8383 462.40475,577.3707 C 462.40468,622.39416 496.84626,638.6078 528.23972,638.60767 C 554.02856,638.60754 575.92179,620.50982 578.81769,597.64369 L 567.1137,597.64369 C 562.07757,624.83695 536.79032,629.41147 529.49371,629.41167 C 512.11823,629.41154 502.11473,617.19103 502.11473,591.58269 C 502.11466,591.58256 502.06122,579.50758 502.11473,579.4607 L 579.65369,579.4607 C 579.65362,533.95543 549.86201,516.13366 521.55172,516.13373 z M 644.44366,516.55173 C 610.08073,516.55173 599.71762,539.14378 599.71768,550.82771 C 599.71768,574.93794 619.13802,584.08538 638.80066,589.91069 C 658.79777,595.82288 679.13771,598.43294 679.13765,611.85568 C 679.13765,620.21568 670.01194,628.99367 656.14766,628.99367 C 634.12408,628.99367 614.02665,612.34397 611.00368,597.64369 L 602.22568,597.64369 L 603.89768,635.68167 L 612.46668,635.68167 C 612.46668,635.68167 613.25419,630.45674 618.10967,630.45667 C 627.79389,630.45667 635.67068,637.98067 656.35666,637.98067 C 677.93882,637.98067 702.12763,623.35897 702.12763,598.47969 C 702.12763,572.47007 682.54184,564.9646 662.41765,558.97871 C 641.93901,552.88594 621.24467,549.9465 621.24467,537.66072 C 621.24467,532.02274 628.38578,525.12052 644.44366,525.12072 C 666.10608,525.12072 679.83487,537.80959 682.69064,551.24571 L 691.05064,551.24571 L 689.58764,518.01473 L 681.22764,518.01473 C 681.22764,518.01473 681.22597,522.40386 676.00265,522.40372 C 668.63916,522.40372 662.33405,516.55173 644.44366,516.55173 z M 521.34272,524.49372 C 536.34383,524.49359 540.57071,540.53983 540.57071,557.30671 C 540.61746,557.30657 540.57071,569.01739 540.57071,569.0107 L 502.11473,569.0107 L 502.11473,557.72471 C 502.11466,551.33921 502.41763,545.05945 503.78673,539.75072 C 504.24305,537.981 504.76779,536.26754 505.45873,534.73472 C 508.22247,528.60336 513.17667,524.49379 521.34272,524.49372 z"
         id="path4565"
         style="fill:#fff;fill-opacity:1;fill-rule:evenodd" />
    </g>
  </g>
</svg>
